G04*
G04 #@! TF.GenerationSoftware,Altium Limited,Altium Designer,26.4.1 (12)*
G04*
G04 Layer_Color=16711935*
%FSLAX25Y25*%
%MOIN*%
G70*
G04*
G04 #@! TF.SameCoordinates,1A45A5A6-F4EF-494D-AC7D-CFB48117C0D7*
G04*
G04*
G04 #@! TF.FilePolarity,Positive*
G04*
G01*
G75*
%ADD10C,0.00500*%
%ADD12C,0.00787*%
%ADD13C,0.00394*%
%ADD14C,0.01000*%
%ADD57C,0.00600*%
%ADD58C,0.00500*%
G36*
X337100Y136700D02*
X338900D01*
Y134400D01*
X337100D01*
Y136700D01*
D02*
G37*
G36*
X333400Y144601D02*
X335199D01*
Y142300D01*
X333400D01*
Y144601D01*
D02*
G37*
G36*
X340800Y144600D02*
X342600D01*
Y142300D01*
X340800D01*
Y144600D01*
D02*
G37*
G36*
X334700Y171400D02*
X332900D01*
Y173700D01*
X334700D01*
Y171400D01*
D02*
G37*
G36*
X342100Y171399D02*
X340300D01*
Y173700D01*
X342100D01*
Y171399D01*
D02*
G37*
G36*
X338400Y179300D02*
X336600D01*
Y181600D01*
X338400D01*
Y179300D01*
D02*
G37*
D10*
X374917Y101063D02*
X410114D01*
Y130000D01*
X374917D02*
X410114D01*
X374917Y101063D02*
Y130000D01*
X370862Y102992D02*
X427949D01*
X181394Y239067D02*
Y309933D01*
X256984D01*
Y239067D02*
Y309933D01*
X181394Y239067D02*
X256984D01*
X295630Y201961D02*
Y222039D01*
X279882Y201961D02*
Y222039D01*
X295630D01*
X279882Y201961D02*
X295630D01*
X229327Y183150D02*
X532673D01*
X229327Y101850D02*
Y183150D01*
Y101850D02*
X532673D01*
Y183150D01*
X547339Y126752D02*
X551276D01*
X210724Y124784D02*
X214661D01*
X212693Y122815D02*
Y126752D01*
D12*
X380311Y134921D02*
G03*
X380311Y134921I-394J0D01*
G01*
X355012Y353685D02*
G03*
X355012Y353685I-394J0D01*
G01*
X278890Y353972D02*
G03*
X278890Y353972I-394J0D01*
G01*
X450512Y353685D02*
G03*
X450512Y353685I-394J0D01*
G01*
X533890Y353472D02*
G03*
X533890Y353472I-394J0D01*
G01*
X186472Y235130D02*
G03*
X186472Y235130I-394J0D01*
G01*
X270650Y202138D02*
G03*
X270650Y202138I-394J0D01*
G01*
D13*
X418941Y154465D02*
Y162535D01*
X424059Y154465D02*
Y162535D01*
X418941Y154465D02*
X424059D01*
X418941Y162535D02*
X424059D01*
X366961Y371480D02*
Y408961D01*
X342039D02*
X366961D01*
X342039Y371480D02*
Y408961D01*
X334815Y371480D02*
X342039D01*
X366961D01*
X374185D01*
X342000Y356480D02*
X342039Y371480D01*
X342000Y356480D02*
X367000D01*
X366961Y371480D02*
X367000Y356480D01*
X290839Y371768D02*
Y409248D01*
X265917D02*
X290839D01*
X265917Y371768D02*
Y409248D01*
X258693Y371768D02*
X265917D01*
X290839D01*
X298063D01*
X265878Y356768D02*
X265917Y371768D01*
X265878Y356768D02*
X290878D01*
X290839Y371768D02*
X290878Y356768D01*
X462461Y371480D02*
Y408961D01*
X437539D02*
X462461D01*
X437539Y371480D02*
Y408961D01*
X430315Y371480D02*
X437539D01*
X462461D01*
X469685D01*
X437500Y356480D02*
X437539Y371480D01*
X437500Y356480D02*
X462500D01*
X462461Y371480D02*
X462500Y356480D01*
X452307Y206543D02*
X465693D01*
X452307Y199457D02*
X465693D01*
Y206543D01*
X452307Y199457D02*
Y206543D01*
X545839Y371268D02*
Y408748D01*
X520917D02*
X545839D01*
X520917Y371268D02*
Y408748D01*
X513693Y371268D02*
X520917D01*
X545839D01*
X553063D01*
X520878Y356268D02*
X520917Y371268D01*
X520878Y356268D02*
X545878D01*
X545839Y371268D02*
X545878Y356268D01*
X479807Y188457D02*
X493193D01*
X479807Y195543D02*
X493193D01*
X479807Y188457D02*
Y195543D01*
X493193Y188457D02*
Y195543D01*
X465357Y188457D02*
Y195543D01*
X451325Y188457D02*
Y195543D01*
X465357D01*
X451325Y188457D02*
X465357D01*
X413059Y269465D02*
Y277535D01*
X407941Y269465D02*
Y277535D01*
X413059D01*
X407941Y269465D02*
X413059D01*
X386059D02*
Y277535D01*
X380941Y269465D02*
Y277535D01*
X386059D01*
X380941Y269465D02*
X386059D01*
X364559D02*
Y277535D01*
X359441Y269465D02*
Y277535D01*
X364559D01*
X359441Y269465D02*
X364559D01*
X354559Y269965D02*
Y278035D01*
X349441Y269965D02*
Y278035D01*
X354559D01*
X349441Y269965D02*
X354559D01*
X424441Y269465D02*
Y277535D01*
X429559Y269465D02*
Y277535D01*
X424441Y269465D02*
X429559D01*
X424441Y277535D02*
X429559D01*
X486457Y216032D02*
X493543D01*
X486457Y202000D02*
X493543D01*
Y216032D01*
X486457Y202000D02*
Y216032D01*
X432559Y138465D02*
Y146535D01*
X427441Y138465D02*
Y146535D01*
X432559D01*
X427441Y138465D02*
X432559D01*
X424059D02*
Y146535D01*
X418941Y138465D02*
Y146535D01*
X424059D01*
X418941Y138465D02*
X424059D01*
X475957Y286966D02*
X483043D01*
X475957Y272934D02*
X483043D01*
Y286966D01*
X475957Y272934D02*
Y286966D01*
X482457Y132968D02*
X489543D01*
X482457Y147000D02*
X489543D01*
X482457Y132968D02*
Y147000D01*
X489543Y132968D02*
Y147000D01*
X479946Y199457D02*
Y206543D01*
X493978Y199457D02*
Y206543D01*
X479946Y199457D02*
X493978D01*
X479946Y206543D02*
X493978D01*
X427441Y154465D02*
Y162535D01*
X432559Y154465D02*
Y162535D01*
X427441Y154465D02*
X432559D01*
X427441Y162535D02*
X432559D01*
X245059Y340965D02*
Y349035D01*
X239941Y340965D02*
Y349035D01*
Y340965D02*
X245059D01*
X239941Y349035D02*
X245059D01*
X242559Y196465D02*
Y204535D01*
X237441Y196465D02*
Y204535D01*
Y196465D02*
X242559D01*
X237441Y204535D02*
X242559D01*
X284465Y233059D02*
X292535D01*
X284465Y227941D02*
X292535D01*
Y233059D01*
X284465Y227941D02*
Y233059D01*
X258465Y221059D02*
X266535D01*
X258465Y215941D02*
X266535D01*
Y221059D01*
X258465Y215941D02*
Y221059D01*
X416441Y269465D02*
Y277535D01*
X421559Y269465D02*
Y277535D01*
X416441Y269465D02*
X421559D01*
X416441Y277535D02*
X421559D01*
X389941Y269465D02*
Y277535D01*
X395059Y269465D02*
Y277535D01*
X389941Y269465D02*
X395059D01*
X389941Y277535D02*
X395059D01*
X341059Y269965D02*
Y278035D01*
X335941Y269965D02*
Y278035D01*
X341059D01*
X335941Y269965D02*
X341059D01*
D14*
X412988Y103819D02*
Y106218D01*
X414188D01*
X414588Y105818D01*
Y105018D01*
X414188Y104619D01*
X412988D01*
X416987Y105818D02*
X416587Y106218D01*
X415787D01*
X415387Y105818D01*
Y104219D01*
X415787Y103819D01*
X416587D01*
X416987Y104219D01*
X417787Y106218D02*
Y103819D01*
X418986D01*
X419386Y104219D01*
Y104619D01*
X418986Y105018D01*
X417787D01*
X418986D01*
X419386Y105418D01*
Y105818D01*
X418986Y106218D01*
X417787D01*
X424185D02*
X422585D01*
Y103819D01*
X424185D01*
X422585Y105018D02*
X423385D01*
X424984Y106218D02*
Y103819D01*
X426184D01*
X426584Y104219D01*
Y105818D01*
X426184Y106218D01*
X424984D01*
X428983Y105818D02*
X428583Y106218D01*
X427783D01*
X427384Y105818D01*
Y104219D01*
X427783Y103819D01*
X428583D01*
X428983Y104219D01*
Y105018D01*
X428183D01*
X431382Y106218D02*
X429783D01*
Y103819D01*
X431382D01*
X429783Y105018D02*
X430583D01*
D57*
X486000Y225600D02*
Y253200D01*
X460000D02*
X486000D01*
X460000Y225600D02*
Y253200D01*
Y225600D02*
X486000D01*
X471200Y221700D02*
Y225600D01*
Y221700D02*
X474800D01*
Y225600D01*
X462400Y213400D02*
Y225600D01*
Y213400D02*
X465900D01*
Y225600D01*
X462400D02*
X465900D01*
X480100Y213400D02*
Y225600D01*
Y213400D02*
X483600D01*
Y225600D01*
X480100D02*
X483600D01*
D58*
X371445Y370699D02*
Y368300D01*
X372645D01*
X373044Y368700D01*
Y369500D01*
X372645Y369899D01*
X371445D01*
X375444Y368700D02*
X375044Y368300D01*
X374244D01*
X373844Y368700D01*
Y370299D01*
X374244Y370699D01*
X375044D01*
X375444Y370299D01*
X376243Y368300D02*
Y370699D01*
X377443D01*
X377843Y370299D01*
Y369899D01*
X377443Y369500D01*
X376243D01*
X377443D01*
X377843Y369100D01*
Y368700D01*
X377443Y368300D01*
X376243D01*
X382641D02*
X381042D01*
Y370699D01*
X382641D01*
X381042Y369500D02*
X381842D01*
X383441Y368300D02*
Y370699D01*
X384641D01*
X385041Y370299D01*
Y368700D01*
X384641Y368300D01*
X383441D01*
X387440Y368700D02*
X387040Y368300D01*
X386240D01*
X385840Y368700D01*
Y370299D01*
X386240Y370699D01*
X387040D01*
X387440Y370299D01*
Y369500D01*
X386640D01*
X389839Y368300D02*
X388240D01*
Y370699D01*
X389839D01*
X388240Y369500D02*
X389039D01*
X295323Y370987D02*
Y368587D01*
X296523D01*
X296922Y368987D01*
Y369787D01*
X296523Y370187D01*
X295323D01*
X299322Y368987D02*
X298922Y368587D01*
X298122D01*
X297722Y368987D01*
Y370587D01*
X298122Y370987D01*
X298922D01*
X299322Y370587D01*
X300121Y368587D02*
Y370987D01*
X301321D01*
X301721Y370587D01*
Y370187D01*
X301321Y369787D01*
X300121D01*
X301321D01*
X301721Y369387D01*
Y368987D01*
X301321Y368587D01*
X300121D01*
X306519D02*
X304920D01*
Y370987D01*
X306519D01*
X304920Y369787D02*
X305720D01*
X307319Y368587D02*
Y370987D01*
X308519D01*
X308918Y370587D01*
Y368987D01*
X308519Y368587D01*
X307319D01*
X311318Y368987D02*
X310918Y368587D01*
X310118D01*
X309718Y368987D01*
Y370587D01*
X310118Y370987D01*
X310918D01*
X311318Y370587D01*
Y369787D01*
X310518D01*
X313717Y368587D02*
X312118D01*
Y370987D01*
X313717D01*
X312118Y369787D02*
X312917D01*
X466945Y370699D02*
Y368300D01*
X468145D01*
X468544Y368700D01*
Y369500D01*
X468145Y369899D01*
X466945D01*
X470944Y368700D02*
X470544Y368300D01*
X469744D01*
X469344Y368700D01*
Y370299D01*
X469744Y370699D01*
X470544D01*
X470944Y370299D01*
X471743Y368300D02*
Y370699D01*
X472943D01*
X473343Y370299D01*
Y369899D01*
X472943Y369500D01*
X471743D01*
X472943D01*
X473343Y369100D01*
Y368700D01*
X472943Y368300D01*
X471743D01*
X478141D02*
X476542D01*
Y370699D01*
X478141D01*
X476542Y369500D02*
X477342D01*
X478941Y368300D02*
Y370699D01*
X480141D01*
X480541Y370299D01*
Y368700D01*
X480141Y368300D01*
X478941D01*
X482940Y368700D02*
X482540Y368300D01*
X481740D01*
X481340Y368700D01*
Y370299D01*
X481740Y370699D01*
X482540D01*
X482940Y370299D01*
Y369500D01*
X482140D01*
X485339Y368300D02*
X483740D01*
Y370699D01*
X485339D01*
X483740Y369500D02*
X484539D01*
X550323Y370487D02*
Y368087D01*
X551523D01*
X551922Y368487D01*
Y369287D01*
X551523Y369687D01*
X550323D01*
X554322Y368487D02*
X553922Y368087D01*
X553122D01*
X552722Y368487D01*
Y370087D01*
X553122Y370487D01*
X553922D01*
X554322Y370087D01*
X555121Y368087D02*
Y370487D01*
X556321D01*
X556721Y370087D01*
Y369687D01*
X556321Y369287D01*
X555121D01*
X556321D01*
X556721Y368887D01*
Y368487D01*
X556321Y368087D01*
X555121D01*
X561519D02*
X559920D01*
Y370487D01*
X561519D01*
X559920Y369287D02*
X560720D01*
X562319Y368087D02*
Y370487D01*
X563519D01*
X563918Y370087D01*
Y368487D01*
X563519Y368087D01*
X562319D01*
X566318Y368487D02*
X565918Y368087D01*
X565118D01*
X564718Y368487D01*
Y370087D01*
X565118Y370487D01*
X565918D01*
X566318Y370087D01*
Y369287D01*
X565518D01*
X568717Y368087D02*
X567118D01*
Y370487D01*
X568717D01*
X567118Y369287D02*
X567917D01*
M02*
