G04*
G04 #@! TF.GenerationSoftware,Altium Limited,Altium Designer,26.4.1 (12)*
G04*
G04 Layer_Color=10085887*
%FSLAX25Y25*%
%MOIN*%
G70*
G04*
G04 #@! TF.SameCoordinates,2731D81E-BC19-4F9C-8D00-85A1CBF2600A*
G04*
G04*
G04 #@! TF.FilePolarity,Positive*
G04*
G01*
G75*
%ADD10C,0.00500*%
%ADD11C,0.00984*%
%ADD12C,0.00787*%
%ADD13C,0.00394*%
%ADD14C,0.01000*%
D10*
X467714Y188200D02*
X469264D01*
Y195800D01*
X467714D02*
X469264D01*
X229327Y156476D02*
Y183150D01*
Y101850D02*
Y128524D01*
Y183150D02*
X532673D01*
X547339Y126752D02*
X551276D01*
X229327Y101850D02*
X532673D01*
Y156476D02*
Y183150D01*
Y101850D02*
Y128524D01*
X212693Y122815D02*
Y126752D01*
X210724Y124784D02*
X214661D01*
X476039Y206800D02*
X477589D01*
X476039Y199200D02*
X477589D01*
X476039D02*
Y206800D01*
X279882Y201961D02*
X295630D01*
X279882Y222039D02*
X295630D01*
D11*
X183126Y337142D02*
G03*
X183126Y337142I-492J0D01*
G01*
X179008Y196691D02*
G03*
X179008Y195876I276J-408D01*
G01*
D12*
X355012Y353685D02*
G03*
X355012Y353685I-394J0D01*
G01*
X278890Y353972D02*
G03*
X278890Y353972I-394J0D01*
G01*
X450512Y353685D02*
G03*
X450512Y353685I-394J0D01*
G01*
X533890Y353472D02*
G03*
X533890Y353472I-394J0D01*
G01*
X270650Y202138D02*
G03*
X270650Y202138I-394J0D01*
G01*
X358437Y356480D02*
X361587D01*
X347413D02*
X350563D01*
X271291Y356768D02*
X274441D01*
X282315D02*
X285465D01*
X453937Y356480D02*
X457087D01*
X442913D02*
X446063D01*
X457622Y199949D02*
X460378D01*
X457622Y206051D02*
X460378D01*
X526291Y356268D02*
X529441D01*
X537315D02*
X540465D01*
X485122Y195051D02*
X487878D01*
X485122Y188949D02*
X487878D01*
X174976Y139469D02*
X179106D01*
X174976D02*
Y144587D01*
X179106D01*
X191512Y130771D02*
Y138323D01*
X180488Y126279D02*
Y148721D01*
X184425Y124114D02*
X187575D01*
X184425Y150886D02*
X187575D01*
X191512Y142582D02*
Y144229D01*
X192378Y357811D02*
X214622D01*
X191689Y341177D02*
Y350823D01*
X215311Y341177D02*
Y350823D01*
X192378Y334189D02*
X214622D01*
X189028Y193331D02*
X211272D01*
X188339Y200319D02*
Y209965D01*
X211961Y200319D02*
Y209965D01*
X189028Y216953D02*
X211272D01*
D13*
X282299Y233945D02*
X285400D01*
X291600D02*
X294701D01*
X293520Y227055D02*
X294701D01*
X291600D02*
X293520D01*
X282398D02*
X285400D01*
X237736Y200106D02*
Y200894D01*
X236555Y203600D02*
Y206701D01*
Y194299D02*
Y197400D01*
X242264Y200106D02*
Y200894D01*
X256398Y215055D02*
X259400D01*
X262106Y216236D02*
X262894D01*
X262106Y220764D02*
X262894D01*
X267520Y215055D02*
X268701D01*
X265600D02*
X267520D01*
X288106Y232764D02*
X288894D01*
X288106Y228236D02*
X288894D01*
X256299Y221945D02*
X259400D01*
X265600D02*
X268701D01*
X244764Y344606D02*
Y345394D01*
X240236Y344606D02*
Y345394D01*
X239055Y348100D02*
Y351201D01*
Y338799D02*
Y341900D01*
D14*
X447850Y336333D02*
G03*
X453150Y336333I2650J1967D01*
G01*
X449665Y341493D02*
G03*
X447850Y340267I835J-3193D01*
G01*
X453150Y340267D02*
G03*
X451335Y341493I-2650J-1967D01*
G01*
X530850Y335833D02*
G03*
X536150Y335833I2650J1967D01*
G01*
X532665Y340992D02*
G03*
X530850Y339767I835J-3193D01*
G01*
X536150Y339767D02*
G03*
X534335Y340992I-2650J-1967D01*
G01*
X275850Y335833D02*
G03*
X281150Y335833I2650J1967D01*
G01*
X277665Y340992D02*
G03*
X275850Y339767I835J-3193D01*
G01*
X281150Y339767D02*
G03*
X279335Y340992I-2650J-1967D01*
G01*
X352043Y335483D02*
G03*
X357343Y335483I2650J1967D01*
G01*
X353858Y340642D02*
G03*
X352043Y339417I835J-3193D01*
G01*
X357343Y339417D02*
G03*
X355528Y340642I-2650J-1967D01*
G01*
X281566Y344150D02*
X283450D01*
X273550D02*
X275448D01*
X272771Y332429D02*
X273800Y331400D01*
X283400D02*
X284300Y332300D01*
X273800Y331400D02*
X283400D01*
X272714Y343314D02*
X273550Y344150D01*
X453566Y344650D02*
X455450D01*
X445550D02*
X447448D01*
X444714Y343814D02*
X445550Y344650D01*
X445800Y331900D02*
X455400D01*
X444771Y332929D02*
X445800Y331900D01*
X455450Y344650D02*
X456300Y343800D01*
X527771Y332429D02*
X528800Y331400D01*
X538400D01*
X539300Y332300D01*
X349993Y331050D02*
X359593D01*
X348964Y332079D02*
X349993Y331050D01*
X359593D02*
X360493Y331950D01*
X283450Y344150D02*
X284300Y343300D01*
X455400Y331900D02*
X456300Y332800D01*
X359643Y343800D02*
X360493Y342950D01*
X357759Y343800D02*
X359643D01*
X349743D02*
X351641D01*
X348907Y342964D02*
X349743Y343800D01*
X538450Y344150D02*
X539300Y343300D01*
X536566Y344150D02*
X538450D01*
X528550D02*
X530448D01*
X527714Y343314D02*
X528550Y344150D01*
X341601Y349898D02*
X343601D01*
X342601D01*
Y344900D01*
X343601Y343900D01*
X344600D01*
X345600Y344900D01*
X335603Y349898D02*
X339602D01*
Y346899D01*
X337603Y347899D01*
X336603D01*
X335603Y346899D01*
Y344900D01*
X336603Y343900D01*
X338602D01*
X339602Y344900D01*
X265501Y350198D02*
X267501D01*
X266501D01*
Y345200D01*
X267501Y344200D01*
X268500D01*
X269500Y345200D01*
X259503Y350198D02*
X261503Y349198D01*
X263502Y347199D01*
Y345200D01*
X262502Y344200D01*
X260503D01*
X259503Y345200D01*
Y346199D01*
X260503Y347199D01*
X263502D01*
X437101Y349898D02*
X439101D01*
X438101D01*
Y344900D01*
X439101Y343900D01*
X440100D01*
X441100Y344900D01*
X432103Y343900D02*
Y349898D01*
X435102Y346899D01*
X431103D01*
X443901Y204998D02*
X444901Y205998D01*
X446900D01*
X447900Y204998D01*
Y201000D01*
X446900Y200000D01*
X444901D01*
X443901Y201000D01*
X441902Y200000D02*
X439903D01*
X440902D01*
Y205998D01*
X441902Y204998D01*
X432905Y205998D02*
X436904D01*
Y202999D01*
X434904Y203999D01*
X433905D01*
X432905Y202999D01*
Y201000D01*
X433905Y200000D01*
X435904D01*
X436904Y201000D01*
X520501Y349698D02*
X522501D01*
X521501D01*
Y344700D01*
X522501Y343700D01*
X523500D01*
X524500Y344700D01*
X518502Y348698D02*
X517502Y349698D01*
X515503D01*
X514503Y348698D01*
Y347699D01*
X515503Y346699D01*
X516503D01*
X515503D01*
X514503Y345699D01*
Y344700D01*
X515503Y343700D01*
X517502D01*
X518502Y344700D01*
X253000Y202500D02*
Y196502D01*
X255999D01*
X256999Y197502D01*
Y199501D01*
X255999Y200501D01*
X253000D01*
X254999D02*
X256999Y202500D01*
X258998D02*
X260997D01*
X259998D01*
Y196502D01*
X258998Y197502D01*
X263996D02*
X264996Y196502D01*
X266996D01*
X267995Y197502D01*
Y198501D01*
X266996Y199501D01*
X265996D01*
X266996D01*
X267995Y200501D01*
Y201500D01*
X266996Y202500D01*
X264996D01*
X263996Y201500D01*
X306200Y201500D02*
Y195502D01*
X309199D01*
X310199Y196502D01*
Y198501D01*
X309199Y199501D01*
X306200D01*
X308199D02*
X310199Y201500D01*
X312198D02*
X314197D01*
X313198D01*
Y195502D01*
X312198Y196502D01*
X317196Y201500D02*
X319196D01*
X318196D01*
Y195502D01*
X317196Y196502D01*
X490401Y181400D02*
X491401Y182399D01*
X493400D01*
X494400Y181400D01*
Y177401D01*
X493400Y176401D01*
X491401D01*
X490401Y177401D01*
X488402Y176401D02*
X486403D01*
X487402D01*
Y182399D01*
X488402Y181400D01*
X480405Y176401D02*
Y182399D01*
X483404Y179400D01*
X479405D01*
X441901Y193998D02*
X442901Y194998D01*
X444900D01*
X445900Y193998D01*
Y190000D01*
X444900Y189000D01*
X442901D01*
X441901Y190000D01*
X439902Y189000D02*
X437903D01*
X438902D01*
Y194998D01*
X439902Y193998D01*
X434904D02*
X433904Y194998D01*
X431905D01*
X430905Y193998D01*
Y192999D01*
X431905Y191999D01*
X432904D01*
X431905D01*
X430905Y190999D01*
Y190000D01*
X431905Y189000D01*
X433904D01*
X434904Y190000D01*
X192496Y161598D02*
X193496Y162598D01*
X195495D01*
X196495Y161598D01*
Y160599D01*
X195495Y159599D01*
X193496D01*
X192496Y158599D01*
Y157600D01*
X193496Y156600D01*
X195495D01*
X196495Y157600D01*
X190497Y162598D02*
Y156600D01*
X188497Y158599D01*
X186498Y156600D01*
Y162598D01*
X184499Y161598D02*
X183499Y162598D01*
X181500D01*
X180500Y161598D01*
Y160599D01*
X181500Y159599D01*
X180500Y158599D01*
Y157600D01*
X181500Y156600D01*
X183499D01*
X184499Y157600D01*
Y158599D01*
X183499Y159599D01*
X184499Y160599D01*
Y161598D01*
X183499Y159599D02*
X181500D01*
X464300Y264698D02*
Y259700D01*
X463300Y258700D01*
X461301D01*
X460301Y259700D01*
Y264698D01*
X454303D02*
X456303Y263698D01*
X458302Y261699D01*
Y259700D01*
X457302Y258700D01*
X455303D01*
X454303Y259700D01*
Y260699D01*
X455303Y261699D01*
X458302D01*
X280500Y232098D02*
Y227100D01*
X279500Y226100D01*
X277501D01*
X276501Y227100D01*
Y232098D01*
X274502Y231098D02*
X273502Y232098D01*
X271503D01*
X270503Y231098D01*
Y230099D01*
X271503Y229099D01*
X272503D01*
X271503D01*
X270503Y228099D01*
Y227100D01*
X271503Y226100D01*
X273502D01*
X274502Y227100D01*
X194601Y366598D02*
X195601Y367598D01*
X197600D01*
X198600Y366598D01*
Y365599D01*
X197600Y364599D01*
X195601D01*
X194601Y363599D01*
Y362600D01*
X195601Y361600D01*
X197600D01*
X198600Y362600D01*
X192602Y367598D02*
Y361600D01*
X190603Y363599D01*
X188603Y361600D01*
Y367598D01*
X182605Y361600D02*
X186604D01*
X182605Y365599D01*
Y366598D01*
X183605Y367598D01*
X185604D01*
X186604Y366598D01*
X198499Y224999D02*
X199499Y225999D01*
X201498D01*
X202498Y224999D01*
Y224000D01*
X201498Y223000D01*
X199499D01*
X198499Y222000D01*
Y221001D01*
X199499Y220001D01*
X201498D01*
X202498Y221001D01*
X196500Y225999D02*
Y220001D01*
X194500Y222000D01*
X192501Y220001D01*
Y225999D01*
X190502Y220001D02*
X188502D01*
X189502D01*
Y225999D01*
X190502Y224999D01*
X318900Y223300D02*
Y229298D01*
X315901D01*
X314901Y228298D01*
Y226299D01*
X315901Y225299D01*
X318900D01*
X316901D02*
X314901Y223300D01*
X312902D02*
X310903D01*
X311902D01*
Y229298D01*
X312902Y228298D01*
X307904D02*
X306904Y229298D01*
X304905D01*
X303905Y228298D01*
Y224300D01*
X304905Y223300D01*
X306904D01*
X307904Y224300D01*
Y228298D01*
X234800Y355400D02*
Y361398D01*
X231801D01*
X230801Y360398D01*
Y358399D01*
X231801Y357399D01*
X234800D01*
X232801D02*
X230801Y355400D01*
X224803Y361398D02*
X228802D01*
Y358399D01*
X226803Y359399D01*
X225803D01*
X224803Y358399D01*
Y356400D01*
X225803Y355400D01*
X227802D01*
X228802Y356400D01*
X232700Y210400D02*
Y216398D01*
X229701D01*
X228701Y215398D01*
Y213399D01*
X229701Y212399D01*
X232700D01*
X230701D02*
X228701Y210400D01*
X226702D02*
X224703D01*
X225702D01*
Y216398D01*
X226702Y215398D01*
X487801Y214998D02*
X488801Y215998D01*
X490800D01*
X491800Y214998D01*
Y211000D01*
X490800Y210000D01*
X488801D01*
X487801Y211000D01*
X485802Y210000D02*
X483803D01*
X484802D01*
Y215998D01*
X485802Y214998D01*
X476805Y210000D02*
X480804D01*
X476805Y213999D01*
Y214998D01*
X477805Y215998D01*
X479804D01*
X480804Y214998D01*
X264101Y230298D02*
X265101Y231298D01*
X267100D01*
X268100Y230298D01*
Y226300D01*
X267100Y225300D01*
X265101D01*
X264101Y226300D01*
X262102Y225300D02*
X260103D01*
X261102D01*
Y231298D01*
X262102Y230298D01*
X257104Y225300D02*
X255104D01*
X256104D01*
Y231298D01*
X257104Y230298D01*
X290101Y242298D02*
X291101Y243298D01*
X293100D01*
X294100Y242298D01*
Y238300D01*
X293100Y237300D01*
X291101D01*
X290101Y238300D01*
X288102Y243298D02*
X284103D01*
Y242298D01*
X288102Y238300D01*
Y237300D01*
X243201Y215098D02*
X244201Y216098D01*
X246200D01*
X247200Y215098D01*
Y211100D01*
X246200Y210100D01*
X244201D01*
X243201Y211100D01*
X237203Y216098D02*
X239203Y215098D01*
X241202Y213099D01*
Y211100D01*
X240202Y210100D01*
X238203D01*
X237203Y211100D01*
Y212099D01*
X238203Y213099D01*
X241202D01*
X245701Y359598D02*
X246701Y360598D01*
X248700D01*
X249700Y359598D01*
Y355600D01*
X248700Y354600D01*
X246701D01*
X245701Y355600D01*
X239703Y360598D02*
X243702D01*
Y357599D01*
X241703Y358599D01*
X240703D01*
X239703Y357599D01*
Y355600D01*
X240703Y354600D01*
X242702D01*
X243702Y355600D01*
X551900Y193198D02*
Y187200D01*
X548901D01*
X547901Y188200D01*
Y189199D01*
X548901Y190199D01*
X551900D01*
X548901D01*
X547901Y191199D01*
Y192198D01*
X548901Y193198D01*
X551900D01*
X545902D02*
X541903D01*
X543903D01*
Y187200D01*
X539904D02*
X537905D01*
X538904D01*
Y193198D01*
X539904Y192198D01*
X314496Y335501D02*
Y339500D01*
X312497Y341499D01*
X310498Y339500D01*
Y335501D01*
Y338500D01*
X314496D01*
X308498Y335501D02*
Y341499D01*
X304500Y335501D01*
Y341499D01*
X302500D02*
X298502D01*
X300501D01*
Y335501D01*
X293503D02*
Y341499D01*
X296502Y338500D01*
X292503D01*
X388496Y334501D02*
Y338500D01*
X386497Y340499D01*
X384498Y338500D01*
Y334501D01*
Y337500D01*
X388496D01*
X382498Y334501D02*
Y340499D01*
X378500Y334501D01*
Y340499D01*
X376500D02*
X372502D01*
X374501D01*
Y334501D01*
X370502Y339499D02*
X369503Y340499D01*
X367503D01*
X366504Y339499D01*
Y338500D01*
X367503Y337500D01*
X368503D01*
X367503D01*
X366504Y336500D01*
Y335501D01*
X367503Y334501D01*
X369503D01*
X370502Y335501D01*
X484496Y334501D02*
Y338500D01*
X482497Y340499D01*
X480498Y338500D01*
Y334501D01*
Y337500D01*
X484496D01*
X478498Y334501D02*
Y340499D01*
X474500Y334501D01*
Y340499D01*
X472500D02*
X468502D01*
X470501D01*
Y334501D01*
X462503D02*
X466502D01*
X462503Y338500D01*
Y339499D01*
X463503Y340499D01*
X465503D01*
X466502Y339499D01*
X565497Y335001D02*
Y339000D01*
X563497Y340999D01*
X561498Y339000D01*
Y335001D01*
Y338000D01*
X565497D01*
X559499Y335001D02*
Y340999D01*
X555500Y335001D01*
Y340999D01*
X553501D02*
X549502D01*
X551501D01*
Y335001D01*
X547503D02*
X545503D01*
X546503D01*
Y340999D01*
X547503Y339999D01*
M02*
