G04*
G04 #@! TF.GenerationSoftware,Altium Limited,Altium Designer,26.4.1 (12)*
G04*
G04 Layer_Color=32768*
%FSLAX25Y25*%
%MOIN*%
G70*
G04*
G04 #@! TF.SameCoordinates,2731D81E-BC19-4F9C-8D00-85A1CBF2600A*
G04*
G04*
G04 #@! TF.FilePolarity,Positive*
G04*
G01*
G75*
%ADD13C,0.00394*%
%ADD57C,0.00600*%
%ADD59C,0.00197*%
G36*
X343500Y169994D02*
X331494D01*
Y183000D01*
X343500D01*
Y169994D01*
D02*
G37*
G36*
X401358Y154642D02*
X381658D01*
Y174343D01*
X401358D01*
Y154642D01*
D02*
G37*
G36*
X344006Y133000D02*
X332000D01*
Y146006D01*
X344006D01*
Y133000D01*
D02*
G37*
D13*
X419531Y158500D02*
X423468D01*
X421500Y156532D02*
Y160468D01*
X495587Y181815D02*
X575902D01*
Y120791D02*
Y181815D01*
X495587Y120791D02*
X575902D01*
X495587D02*
Y181815D01*
X459000Y201031D02*
Y204969D01*
X457031Y203000D02*
X460968D01*
X451126Y206839D02*
X466874D01*
X451126Y199161D02*
X466874D01*
Y206839D01*
X451126Y199161D02*
Y206839D01*
X486500Y190032D02*
Y193968D01*
X484531Y192000D02*
X488469D01*
X478626Y188161D02*
X494374D01*
X478626Y195839D02*
X494374D01*
X478626Y188161D02*
Y195839D01*
X494374Y188161D02*
Y195839D01*
X408532Y273500D02*
X412468D01*
X410500Y271532D02*
Y275468D01*
X381532Y273500D02*
X385469D01*
X383500Y271532D02*
Y275468D01*
X360032Y273500D02*
X363968D01*
X362000Y271532D02*
Y275468D01*
X350031Y274000D02*
X353969D01*
X352000Y272031D02*
Y275969D01*
X425032Y273500D02*
X428968D01*
X427000Y271532D02*
Y275468D01*
X428031Y142500D02*
X431968D01*
X430000Y140532D02*
Y144468D01*
X419531Y142500D02*
X423468D01*
X421500Y140532D02*
Y144468D01*
X496587Y251315D02*
X576902D01*
Y190291D02*
Y251315D01*
X496587Y190291D02*
X576902D01*
X496587D02*
Y251315D01*
X497587Y339815D02*
X577902D01*
Y278791D02*
Y339815D01*
X497587Y278791D02*
X577902D01*
X497587D02*
Y339815D01*
X428031Y158500D02*
X431968D01*
X430000Y156532D02*
Y160468D01*
X240531Y345000D02*
X244468D01*
X242500Y343032D02*
Y346969D01*
X238032Y200500D02*
X241968D01*
X240000Y198531D02*
Y202468D01*
X288500Y228532D02*
Y232469D01*
X286531Y230500D02*
X290469D01*
X262500Y216531D02*
Y220468D01*
X260531Y218500D02*
X264469D01*
X417031Y273500D02*
X420968D01*
X419000Y271532D02*
Y275468D01*
X390531Y273500D02*
X394468D01*
X392500Y271532D02*
Y275468D01*
X336531Y274000D02*
X340469D01*
X338500Y272031D02*
Y275969D01*
D57*
X459000Y211000D02*
Y255400D01*
X487000D01*
Y211000D02*
Y255400D01*
X459000Y211000D02*
X487000D01*
D59*
X417760Y152004D02*
Y164996D01*
X425240Y152004D02*
Y164996D01*
X417760Y152004D02*
X425240D01*
X417760Y164996D02*
X425240D01*
X372732Y100079D02*
Y133228D01*
Y100079D02*
X412299D01*
Y133228D01*
X372732D02*
X412299D01*
X339736Y353961D02*
X369264D01*
Y372465D01*
X367945D02*
X369264D01*
X367945D02*
Y409945D01*
X341055D02*
X367945D01*
X341055Y372465D02*
Y409945D01*
X339736Y372465D02*
X341055D01*
X339736Y353961D02*
Y372465D01*
X263614Y354248D02*
X293142D01*
Y372752D01*
X291823D02*
X293142D01*
X291823D02*
Y410232D01*
X264933D02*
X291823D01*
X264933Y372752D02*
Y410232D01*
X263614Y372752D02*
X264933D01*
X263614Y354248D02*
Y372752D01*
X435236Y353961D02*
X464764D01*
Y372465D01*
X463445D02*
X464764D01*
X463445D02*
Y409945D01*
X436555D02*
X463445D01*
X436555Y372465D02*
Y409945D01*
X435236Y372465D02*
X436555D01*
X435236Y353961D02*
Y372465D01*
X518614Y353748D02*
X548142D01*
Y372252D01*
X546823D02*
X548142D01*
X546823D02*
Y409732D01*
X519933D02*
X546823D01*
X519933Y372252D02*
Y409732D01*
X518614Y372252D02*
X519933D01*
X518614Y353748D02*
Y372252D01*
X414240Y267004D02*
Y279996D01*
X406760Y267004D02*
Y279996D01*
X414240D01*
X406760Y267004D02*
X414240D01*
X387240D02*
Y279996D01*
X379760Y267004D02*
Y279996D01*
X387240D01*
X379760Y267004D02*
X387240D01*
X365740D02*
Y279996D01*
X358260Y267004D02*
Y279996D01*
X365740D01*
X358260Y267004D02*
X365740D01*
X355740Y267504D02*
Y280496D01*
X348260Y267504D02*
Y280496D01*
X355740D01*
X348260Y267504D02*
X355740D01*
X423260Y267004D02*
Y279996D01*
X430740Y267004D02*
Y279996D01*
X423260Y267004D02*
X430740D01*
X423260Y279996D02*
X430740D01*
X433740Y136004D02*
Y148996D01*
X426260Y136004D02*
Y148996D01*
X433740D01*
X426260Y136004D02*
X433740D01*
X425240D02*
Y148996D01*
X417760Y136004D02*
Y148996D01*
X425240D01*
X417760Y136004D02*
X425240D01*
X180409Y236114D02*
Y312886D01*
X259937D01*
Y236114D02*
Y312886D01*
X180409Y236114D02*
X259937D01*
X302362Y200976D02*
Y223024D01*
X273150Y200976D02*
Y223024D01*
X302362D01*
X273150Y200976D02*
X302362D01*
X228343Y184134D02*
X533658D01*
X228343Y156220D02*
Y184134D01*
X209150Y156220D02*
X228343D01*
X209150Y128779D02*
Y156220D01*
Y128779D02*
X228343D01*
Y100866D02*
Y128779D01*
Y100866D02*
X533658D01*
Y128779D01*
X552850D01*
Y156220D01*
X533658D02*
X552850D01*
X533658D02*
Y184134D01*
X426260Y152004D02*
Y164996D01*
X433740Y152004D02*
Y164996D01*
X426260Y152004D02*
X433740D01*
X426260Y164996D02*
X433740D01*
X246240Y338504D02*
Y351496D01*
X238760Y338504D02*
Y351496D01*
Y338504D02*
X246240D01*
X238760Y351496D02*
X246240D01*
X243740Y194004D02*
Y206996D01*
X236260Y194004D02*
Y206996D01*
Y194004D02*
X243740D01*
X236260Y206996D02*
X243740D01*
X282004Y234240D02*
X294996D01*
X282004Y226760D02*
X294996D01*
Y234240D01*
X282004Y226760D02*
Y234240D01*
X256004Y222240D02*
X268996D01*
X256004Y214760D02*
X268996D01*
Y222240D01*
X256004Y214760D02*
Y222240D01*
X415260Y267004D02*
Y279996D01*
X422740Y267004D02*
Y279996D01*
X415260Y267004D02*
X422740D01*
X415260Y279996D02*
X422740D01*
X388760Y267004D02*
Y279996D01*
X396240Y267004D02*
Y279996D01*
X388760Y267004D02*
X396240D01*
X388760Y279996D02*
X396240D01*
X342240Y267504D02*
Y280496D01*
X334760Y267504D02*
Y280496D01*
X342240D01*
X334760Y267504D02*
X342240D01*
M02*
