G04*
G04 #@! TF.GenerationSoftware,Altium Limited,Altium Designer,26.4.1 (12)*
G04*
G04 Layer_Color=8388736*
%FSLAX25Y25*%
%MOIN*%
G70*
G04*
G04 #@! TF.SameCoordinates,2731D81E-BC19-4F9C-8D00-85A1CBF2600A*
G04*
G04*
G04 #@! TF.FilePolarity,Negative*
G04*
G01*
G75*
%ADD16R,0.05315X0.03543*%
%ADD17R,0.05906X0.05118*%
%ADD19R,0.04000X0.04500*%
%ADD22R,0.05315X0.16535*%
%ADD23R,0.05118X0.05906*%
%ADD24R,0.04720X0.07870*%
%ADD25R,0.06102X0.05118*%
%ADD26O,0.01575X0.07874*%
%ADD27R,0.03543X0.05906*%
%ADD28R,0.05906X0.03543*%
%ADD29R,0.03543X0.03543*%
%ADD30R,0.01000X0.03543*%
%ADD31R,0.03543X0.01000*%
%ADD32O,0.08661X0.04331*%
%ADD33R,0.02756X0.04882*%
%ADD34R,0.01575X0.04882*%
%ADD35R,0.12205X0.12205*%
%ADD36O,0.03543X0.07874*%
%ADD37O,0.03543X0.06693*%
%ADD38C,0.03543*%
%ADD39C,0.09409*%
%ADD40C,0.02500*%
%ADD41C,0.02400*%
D16*
X421500Y154760D02*
D03*
Y162240D02*
D03*
X410500Y277240D02*
D03*
Y269760D02*
D03*
X383500Y277240D02*
D03*
Y269760D02*
D03*
X362000Y277240D02*
D03*
Y269760D02*
D03*
X352000Y277740D02*
D03*
Y270260D02*
D03*
X427000Y269760D02*
D03*
Y277240D02*
D03*
X430000Y146240D02*
D03*
Y138760D02*
D03*
X421500Y146240D02*
D03*
Y138760D02*
D03*
X430000Y154760D02*
D03*
Y162240D02*
D03*
X419000Y269760D02*
D03*
Y277240D02*
D03*
X392500Y269760D02*
D03*
Y277240D02*
D03*
X338500Y277740D02*
D03*
Y270260D02*
D03*
D17*
X342000Y161980D02*
D03*
Y154500D02*
D03*
X333000Y162000D02*
D03*
Y154520D02*
D03*
X364500Y170000D02*
D03*
Y162520D02*
D03*
X421000Y119000D02*
D03*
Y126480D02*
D03*
X353000Y140500D02*
D03*
Y133020D02*
D03*
X307500Y159000D02*
D03*
Y166480D02*
D03*
X353500Y162520D02*
D03*
Y170000D02*
D03*
X364000Y118500D02*
D03*
Y125980D02*
D03*
X341500Y119500D02*
D03*
Y112020D02*
D03*
X372500Y269500D02*
D03*
Y276980D02*
D03*
X401500Y277480D02*
D03*
Y270000D02*
D03*
X316500Y159500D02*
D03*
Y166980D02*
D03*
D19*
X338000Y135500D02*
D03*
X334500Y143500D02*
D03*
X341500D02*
D03*
X337500Y180500D02*
D03*
X341000Y172500D02*
D03*
X334000D02*
D03*
D22*
X343378Y363213D02*
D03*
X365622D02*
D03*
X267256Y363500D02*
D03*
X289500D02*
D03*
X438878Y363213D02*
D03*
X461122D02*
D03*
X522256Y363000D02*
D03*
X544500D02*
D03*
D23*
X365000Y147000D02*
D03*
X372480D02*
D03*
D24*
X490000Y214500D02*
D03*
Y203478D02*
D03*
X479500Y285434D02*
D03*
Y274412D02*
D03*
X486000Y134500D02*
D03*
Y145522D02*
D03*
D25*
X441150Y203142D02*
D03*
X409850D02*
D03*
X441150Y220858D02*
D03*
X409850D02*
D03*
X357150Y203142D02*
D03*
X325850D02*
D03*
X357150Y220858D02*
D03*
X325850D02*
D03*
X399150Y203142D02*
D03*
X367850D02*
D03*
X399150Y220858D02*
D03*
X367850D02*
D03*
D26*
X423500Y254000D02*
D03*
X420744D02*
D03*
X417988D02*
D03*
X415232D02*
D03*
X412476D02*
D03*
X409721D02*
D03*
X406965D02*
D03*
X404209D02*
D03*
X401453D02*
D03*
X398697D02*
D03*
X395941D02*
D03*
X393185D02*
D03*
X390429D02*
D03*
X387673D02*
D03*
X384917D02*
D03*
X382161D02*
D03*
X379405D02*
D03*
X376650D02*
D03*
X373894D02*
D03*
X371138D02*
D03*
X368382D02*
D03*
X365626D02*
D03*
X362870D02*
D03*
X360114D02*
D03*
X357358D02*
D03*
X354602D02*
D03*
X351847D02*
D03*
X349091D02*
D03*
X346335D02*
D03*
X343579D02*
D03*
D27*
X251079Y240051D02*
D03*
X246079D02*
D03*
X241079D02*
D03*
X236079D02*
D03*
X231079D02*
D03*
X226079D02*
D03*
X221079D02*
D03*
X216079D02*
D03*
X211079D02*
D03*
X206079D02*
D03*
X201079D02*
D03*
X196079D02*
D03*
X191079D02*
D03*
X186079D02*
D03*
X251079Y308949D02*
D03*
X246079D02*
D03*
X241079D02*
D03*
X236079D02*
D03*
X231079D02*
D03*
X226079D02*
D03*
X221079D02*
D03*
X216079D02*
D03*
X211079D02*
D03*
X206079D02*
D03*
X201079D02*
D03*
X196079D02*
D03*
X191079D02*
D03*
X186079D02*
D03*
D28*
X256000Y277000D02*
D03*
Y282000D02*
D03*
Y287000D02*
D03*
Y292000D02*
D03*
Y297000D02*
D03*
Y272000D02*
D03*
Y267000D02*
D03*
Y262000D02*
D03*
Y257000D02*
D03*
Y252000D02*
D03*
D29*
X216472Y268595D02*
D03*
Y263083D02*
D03*
Y274106D02*
D03*
X210961Y268595D02*
D03*
Y263083D02*
D03*
Y274106D02*
D03*
X221984Y268595D02*
D03*
Y263083D02*
D03*
Y274106D02*
D03*
D30*
X385595Y154303D02*
D03*
X387563D02*
D03*
X389531D02*
D03*
X391500D02*
D03*
X393468D02*
D03*
X395437D02*
D03*
X397406D02*
D03*
Y174697D02*
D03*
X395437D02*
D03*
X393468D02*
D03*
X391500D02*
D03*
X389531D02*
D03*
X387563D02*
D03*
X385595D02*
D03*
D31*
X401697Y158595D02*
D03*
Y160563D02*
D03*
Y162531D02*
D03*
Y164500D02*
D03*
Y166469D02*
D03*
Y168437D02*
D03*
Y170405D02*
D03*
X381303D02*
D03*
Y168437D02*
D03*
Y166469D02*
D03*
Y164500D02*
D03*
Y162531D02*
D03*
Y160563D02*
D03*
Y158595D02*
D03*
D32*
X500311Y133783D02*
D03*
Y138980D02*
D03*
Y158980D02*
D03*
Y153980D02*
D03*
Y163980D02*
D03*
Y168980D02*
D03*
Y148980D02*
D03*
Y143980D02*
D03*
X501311Y203284D02*
D03*
Y208480D02*
D03*
Y228480D02*
D03*
Y223480D02*
D03*
Y233480D02*
D03*
Y238480D02*
D03*
Y218480D02*
D03*
Y213480D02*
D03*
X502311Y291783D02*
D03*
Y296980D02*
D03*
Y316980D02*
D03*
Y311980D02*
D03*
Y321980D02*
D03*
Y326980D02*
D03*
Y306980D02*
D03*
Y301980D02*
D03*
D33*
X379917Y130000D02*
D03*
X383067D02*
D03*
X401965D02*
D03*
X405114D02*
D03*
D34*
X391531D02*
D03*
X389563D02*
D03*
X387595D02*
D03*
X385626D02*
D03*
X393500D02*
D03*
X395468D02*
D03*
X397437D02*
D03*
X399406D02*
D03*
D35*
X391500Y164500D02*
D03*
D36*
X375488Y127717D02*
D03*
X409543D02*
D03*
D37*
X375488Y111299D02*
D03*
X409543D02*
D03*
D38*
X186000Y143406D02*
D03*
Y131594D02*
D03*
D39*
X239976Y111004D02*
D03*
D40*
X464500Y203000D02*
D03*
X267500Y280000D02*
D03*
X279500Y274500D02*
D03*
X294500Y300000D02*
D03*
X479500Y285912D02*
D03*
X318500Y300000D02*
D03*
X446500Y286000D02*
D03*
X501311Y238480D02*
D03*
X490000Y214500D02*
D03*
X500311Y168980D02*
D03*
X486000Y145522D02*
D03*
X457500Y179000D02*
D03*
X273500Y285000D02*
D03*
X421500Y146000D02*
D03*
X191000Y240000D02*
D03*
X243500Y279500D02*
D03*
X243000Y274500D02*
D03*
X430500Y154500D02*
D03*
D41*
X518000Y218500D02*
D03*
X502000D02*
D03*
X409500Y168000D02*
D03*
X394500Y165500D02*
D03*
X521700Y223938D02*
D03*
X516000Y149000D02*
D03*
X511000Y158000D02*
D03*
X509750Y144250D02*
D03*
X516000Y159500D02*
D03*
X501500Y223500D02*
D03*
X537181Y142500D02*
D03*
X241079Y240051D02*
D03*
X236079D02*
D03*
X231079D02*
D03*
X409850Y220858D02*
D03*
X367850D02*
D03*
X325850D02*
D03*
X184500Y214000D02*
D03*
X186079Y240051D02*
D03*
X216472Y268595D02*
D03*
X500311Y133783D02*
D03*
X501311Y203284D02*
D03*
X502311Y291783D02*
D03*
X258500Y218500D02*
D03*
X278000Y214500D02*
D03*
X360000Y154000D02*
D03*
X333000Y154520D02*
D03*
X362664Y177164D02*
D03*
X341000Y172500D02*
D03*
X372000Y166000D02*
D03*
X353500Y193500D02*
D03*
X422500Y247000D02*
D03*
X411000D02*
D03*
X388500D02*
D03*
X378000Y247500D02*
D03*
X368500Y247000D02*
D03*
X363500Y246500D02*
D03*
X343500D02*
D03*
X201039Y252539D02*
D03*
X206000Y255000D02*
D03*
X196500Y296500D02*
D03*
X212500Y297000D02*
D03*
X392000Y264000D02*
D03*
X389000Y262000D02*
D03*
X381567Y135433D02*
D03*
X394500Y137500D02*
D03*
X388500Y137000D02*
D03*
X281000Y149500D02*
D03*
X266500Y177000D02*
D03*
X317500Y216500D02*
D03*
X297166Y219500D02*
D03*
X316500Y208000D02*
D03*
X201358Y128642D02*
D03*
X240000Y196500D02*
D03*
X337500Y180500D02*
D03*
X267500Y271000D02*
D03*
X249500D02*
D03*
X372480Y147000D02*
D03*
X266240Y218500D02*
D03*
X297500Y204500D02*
D03*
X278012Y219500D02*
D03*
X191254Y309000D02*
D03*
X227500Y204000D02*
D03*
X184500Y196283D02*
D03*
X196000Y240000D02*
D03*
X251000Y332000D02*
D03*
Y309000D02*
D03*
X241500Y328500D02*
D03*
X246000Y322500D02*
D03*
X226500Y318500D02*
D03*
X221000Y309000D02*
D03*
X502500Y322000D02*
D03*
Y317000D02*
D03*
Y312000D02*
D03*
Y307000D02*
D03*
Y302000D02*
D03*
M02*
