G04*
G04 #@! TF.GenerationSoftware,Altium Limited,Altium Designer,26.4.1 (12)*
G04*
G04 Layer_Physical_Order=1*
G04 Layer_Color=255*
%FSLAX25Y25*%
%MOIN*%
G70*
G04*
G04 #@! TF.SameCoordinates,1A45A5A6-F4EF-494D-AC7D-CFB48117C0D7*
G04*
G04*
G04 #@! TF.FilePolarity,Positive*
G04*
G01*
G75*
%ADD12C,0.00787*%
%ADD14C,0.01000*%
%ADD16R,0.05315X0.03543*%
%ADD17R,0.05906X0.05118*%
%ADD18O,0.07874X0.03543*%
%ADD19R,0.04000X0.04500*%
%ADD20R,0.02362X0.04488*%
%ADD21R,0.01181X0.04488*%
%ADD22R,0.05315X0.16535*%
%ADD23R,0.05118X0.05906*%
%ADD24R,0.04720X0.07870*%
%ADD25R,0.06102X0.05118*%
%ADD26O,0.01575X0.07874*%
%ADD27R,0.03543X0.05906*%
%ADD28R,0.05906X0.03543*%
%ADD29R,0.03543X0.03543*%
%ADD30R,0.01000X0.03543*%
%ADD31R,0.03543X0.01000*%
%ADD35R,0.12205X0.12205*%
%ADD36O,0.03543X0.07874*%
%ADD37O,0.03543X0.06693*%
%ADD38C,0.03543*%
%ADD39C,0.09409*%
%ADD40C,0.02500*%
%ADD41C,0.02400*%
%ADD42C,0.03937*%
%ADD43C,0.01968*%
G36*
X576500Y100000D02*
X179500D01*
Y371500D01*
X263598D01*
Y364000D01*
X270913D01*
Y371500D01*
X285842D01*
Y364000D01*
X293158D01*
Y371500D01*
X339721D01*
Y363713D01*
X347035D01*
Y371500D01*
X361965D01*
Y363713D01*
X369280D01*
Y371500D01*
X435220D01*
Y363713D01*
X442535D01*
Y371500D01*
X457465D01*
Y363713D01*
X464780D01*
Y371500D01*
X518598D01*
Y363500D01*
X525913D01*
Y371500D01*
X540842D01*
Y363500D01*
X548158D01*
Y371500D01*
X576500D01*
Y100000D01*
D02*
G37*
%LPC*%
G36*
X293158Y363000D02*
X290000D01*
Y354232D01*
X293158D01*
Y363000D01*
D02*
G37*
G36*
X289000D02*
X285842D01*
Y354232D01*
X289000D01*
Y363000D01*
D02*
G37*
G36*
X270913D02*
X267756D01*
Y354232D01*
X270913D01*
Y363000D01*
D02*
G37*
G36*
X266756D02*
X263598D01*
Y354232D01*
X266756D01*
Y363000D01*
D02*
G37*
G36*
X464780Y362713D02*
X461622D01*
Y353945D01*
X464780D01*
Y362713D01*
D02*
G37*
G36*
X460622D02*
X457465D01*
Y353945D01*
X460622D01*
Y362713D01*
D02*
G37*
G36*
X442535D02*
X439378D01*
Y353945D01*
X442535D01*
Y362713D01*
D02*
G37*
G36*
X438378D02*
X435220D01*
Y353945D01*
X438378D01*
Y362713D01*
D02*
G37*
G36*
X369280D02*
X366122D01*
Y353945D01*
X369280D01*
Y362713D01*
D02*
G37*
G36*
X365122D02*
X361965D01*
Y353945D01*
X365122D01*
Y362713D01*
D02*
G37*
G36*
X347035D02*
X343878D01*
Y353945D01*
X347035D01*
Y362713D01*
D02*
G37*
G36*
X342878D02*
X339721D01*
Y353945D01*
X342878D01*
Y362713D01*
D02*
G37*
G36*
X548158Y362500D02*
X545000D01*
Y353732D01*
X548158D01*
Y362500D01*
D02*
G37*
G36*
X544000D02*
X540842D01*
Y353732D01*
X544000D01*
Y362500D01*
D02*
G37*
G36*
X525913D02*
X522756D01*
Y353732D01*
X525913D01*
Y362500D01*
D02*
G37*
G36*
X521756D02*
X518598D01*
Y353732D01*
X521756D01*
Y362500D01*
D02*
G37*
G36*
X251438Y334200D02*
X250562D01*
X249754Y333865D01*
X249135Y333246D01*
X248800Y332438D01*
Y331562D01*
X249135Y330754D01*
X249549Y330339D01*
Y312902D01*
X247529D01*
Y320918D01*
X247865Y321254D01*
X248200Y322062D01*
Y322938D01*
X247865Y323746D01*
X247246Y324365D01*
X246438Y324700D01*
X245562D01*
X244754Y324365D01*
X244135Y323746D01*
X243800Y322938D01*
Y322062D01*
X244135Y321254D01*
X244471Y320918D01*
Y312902D01*
X243029D01*
Y326918D01*
X243365Y327254D01*
X243700Y328062D01*
Y328938D01*
X243365Y329746D01*
X242746Y330365D01*
X241938Y330700D01*
X241062D01*
X240254Y330365D01*
X239635Y329746D01*
X239300Y328938D01*
Y328062D01*
X239635Y327254D01*
X239971Y326918D01*
Y312902D01*
X228029D01*
Y316918D01*
X228365Y317254D01*
X228700Y318062D01*
Y318938D01*
X228365Y319746D01*
X227746Y320365D01*
X226938Y320700D01*
X226062D01*
X225254Y320365D01*
X224635Y319746D01*
X224300Y318938D01*
Y318062D01*
X224635Y317254D01*
X224971Y316918D01*
Y312902D01*
X186579D01*
Y308949D01*
Y304996D01*
X194971D01*
Y298082D01*
X194635Y297746D01*
X194300Y296938D01*
Y296062D01*
X194635Y295254D01*
X195254Y294635D01*
X196062Y294300D01*
X196938D01*
X197746Y294635D01*
X198365Y295254D01*
X198700Y296062D01*
Y296938D01*
X198365Y297746D01*
X198029Y298082D01*
Y304996D01*
X199658D01*
Y254269D01*
X199174Y253786D01*
X198839Y252977D01*
Y252102D01*
X199174Y251293D01*
X199793Y250674D01*
X200602Y250339D01*
X201477D01*
X202286Y250674D01*
X202904Y251293D01*
X203239Y252102D01*
Y252977D01*
X202904Y253786D01*
X202500Y254190D01*
Y304996D01*
X204549D01*
Y256661D01*
X204135Y256246D01*
X203800Y255438D01*
Y254562D01*
X204135Y253754D01*
X204754Y253135D01*
X205562Y252800D01*
X206438D01*
X207246Y253135D01*
X207865Y253754D01*
X208200Y254562D01*
Y255438D01*
X207865Y256246D01*
X207608Y256503D01*
Y304996D01*
X209549D01*
Y298800D01*
X209666Y298215D01*
X209997Y297719D01*
X210300Y297416D01*
Y296562D01*
X210635Y295754D01*
X211254Y295135D01*
X212062Y294800D01*
X212938D01*
X213746Y295135D01*
X214365Y295754D01*
X214700Y296562D01*
Y297438D01*
X214365Y298246D01*
X213746Y298865D01*
X212938Y299200D01*
X212842D01*
X212608Y299434D01*
Y304996D01*
X229549D01*
Y286421D01*
X229666Y285836D01*
X229997Y285340D01*
X240750Y274587D01*
Y274052D01*
X241092Y273225D01*
X241725Y272592D01*
X242552Y272250D01*
X243448D01*
X244274Y272592D01*
X244907Y273225D01*
X245250Y274052D01*
Y274948D01*
X244907Y275775D01*
X244274Y276408D01*
X243448Y276750D01*
X243396D01*
X243423Y276999D01*
X243584Y277250D01*
X243948D01*
X244775Y277592D01*
X245408Y278225D01*
X245750Y279052D01*
Y279948D01*
X245408Y280774D01*
X244775Y281407D01*
X243948Y281750D01*
X243413D01*
X237608Y287555D01*
Y304996D01*
X249139D01*
X249333Y304496D01*
X248419Y303581D01*
X248087Y303085D01*
X247971Y302500D01*
Y272582D01*
X247635Y272246D01*
X247300Y271438D01*
Y270562D01*
X247635Y269754D01*
X248254Y269135D01*
X249062Y268800D01*
X249938D01*
X250746Y269135D01*
X251365Y269754D01*
X251547Y270194D01*
X252047Y270094D01*
Y264228D01*
Y259228D01*
Y254228D01*
Y252500D01*
X256000D01*
X259953D01*
Y254228D01*
Y259228D01*
Y264228D01*
Y269228D01*
Y274228D01*
Y279228D01*
Y284228D01*
Y290471D01*
X294000D01*
X294585Y290587D01*
X295081Y290919D01*
X307633Y303471D01*
X449866D01*
X464971Y288367D01*
Y253500D01*
X465087Y252915D01*
X465419Y252419D01*
X485438Y232399D01*
X485934Y232067D01*
X486520Y231951D01*
X496826D01*
X497169Y231504D01*
X497440Y231295D01*
Y230665D01*
X497169Y230457D01*
X496826Y230010D01*
X484153D01*
X463029Y251133D01*
Y285000D01*
X462913Y285585D01*
X462581Y286081D01*
X447581Y301081D01*
X447085Y301413D01*
X446500Y301529D01*
X320153D01*
X319775Y301907D01*
X318948Y302250D01*
X318052D01*
X317226Y301907D01*
X316593Y301274D01*
X316250Y300448D01*
Y299552D01*
X316593Y298726D01*
X316824Y298494D01*
X316617Y297994D01*
X308500D01*
X307725Y297892D01*
X307003Y297593D01*
X306383Y297117D01*
X297260Y287994D01*
X273500D01*
X272725Y287892D01*
X272003Y287593D01*
X271383Y287117D01*
X270907Y286497D01*
X270608Y285775D01*
X270506Y285000D01*
X270608Y284225D01*
X270907Y283503D01*
X271383Y282883D01*
X272003Y282407D01*
X272725Y282108D01*
X273500Y282006D01*
X298500D01*
X299275Y282108D01*
X299997Y282407D01*
X300617Y282883D01*
X309740Y292006D01*
X369506D01*
Y280539D01*
X368547D01*
Y278510D01*
X367980D01*
X367395Y278393D01*
X366899Y278062D01*
X366158Y277320D01*
X365657Y277527D01*
Y280012D01*
X362500D01*
Y277240D01*
Y274468D01*
X365471D01*
Y272532D01*
X358343D01*
Y266988D01*
X360471D01*
Y263134D01*
X357694Y260356D01*
X357305Y260675D01*
X357570Y261072D01*
X357687Y261658D01*
Y276257D01*
X357570Y276842D01*
X357239Y277338D01*
X355996Y278581D01*
X355658Y278807D01*
Y280512D01*
X348342D01*
Y274969D01*
X354628D01*
Y273031D01*
X348342D01*
Y267488D01*
X350317D01*
Y262553D01*
X349817Y262346D01*
X346529Y265634D01*
Y276000D01*
X346413Y276585D01*
X346081Y277081D01*
X344341Y278822D01*
X343845Y279153D01*
X343260Y279270D01*
X342158D01*
Y280512D01*
X334842D01*
Y274969D01*
X342158D01*
Y276136D01*
X342657Y276180D01*
X343471Y275366D01*
Y265399D01*
X342971Y265192D01*
X341137Y267026D01*
X341328Y267488D01*
X342158D01*
Y273031D01*
X334842D01*
Y267488D01*
X336973D01*
X337087Y266915D01*
X337419Y266419D01*
X344657Y259180D01*
X344338Y258792D01*
X344276Y258833D01*
X344079Y258873D01*
Y254000D01*
X343579D01*
Y253500D01*
X341756D01*
Y250850D01*
X341895Y250153D01*
X342049Y249922D01*
Y248161D01*
X341635Y247746D01*
X341326Y247000D01*
X345674D01*
X345365Y247746D01*
X345108Y248003D01*
Y248990D01*
X345549Y249226D01*
X345637Y249167D01*
X346335Y249028D01*
X347032Y249167D01*
X347331Y249366D01*
X347713Y249525D01*
X348094Y249366D01*
X348393Y249167D01*
X349091Y249028D01*
X349788Y249167D01*
X350379Y249562D01*
X350558D01*
X351149Y249167D01*
X351847Y249028D01*
X352544Y249167D01*
X352843Y249366D01*
X353224Y249525D01*
X353606Y249366D01*
X353905Y249167D01*
X354602Y249028D01*
X355300Y249167D01*
X355891Y249562D01*
X356070D01*
X356661Y249167D01*
X357358Y249028D01*
X358056Y249167D01*
X358355Y249366D01*
X358736Y249525D01*
X359118Y249366D01*
X359417Y249167D01*
X359614Y249127D01*
Y254000D01*
X360614D01*
Y249127D01*
X360812Y249167D01*
X360900Y249226D01*
X361341Y248990D01*
Y247130D01*
X361353Y247066D01*
X361326Y247000D01*
X365674D01*
X365365Y247746D01*
X364746Y248365D01*
X364400Y248509D01*
Y248990D01*
X364840Y249226D01*
X364929Y249167D01*
X365626Y249028D01*
X366323Y249167D01*
X366411Y249226D01*
X366852Y248990D01*
Y248464D01*
X366635Y248246D01*
X366326Y247500D01*
X370674D01*
X370365Y248246D01*
X370070Y248541D01*
X370098Y248794D01*
X370178Y248881D01*
X370606Y249134D01*
X371138Y249028D01*
X371835Y249167D01*
X372134Y249366D01*
X372516Y249525D01*
X372897Y249366D01*
X373196Y249167D01*
X373394Y249127D01*
Y254000D01*
X374394D01*
Y249127D01*
X374591Y249167D01*
X374679Y249226D01*
X375120Y248990D01*
Y248850D01*
X375237Y248265D01*
X375414Y248000D01*
X380174D01*
X379917Y248620D01*
X380090Y249141D01*
X380132Y249186D01*
X380694Y249562D01*
X380873D01*
X381464Y249167D01*
X381662Y249127D01*
Y254000D01*
Y258873D01*
X381464Y258833D01*
X381376Y258774D01*
X380935Y259010D01*
Y260595D01*
X380819Y261180D01*
X380487Y261676D01*
X379081Y263081D01*
X378585Y263413D01*
X378000Y263529D01*
X372667D01*
Y265941D01*
X376453D01*
Y267477D01*
X379842D01*
Y266988D01*
X387158D01*
Y272532D01*
X379842D01*
Y271523D01*
X376453D01*
Y273059D01*
X376453D01*
Y273421D01*
X376453D01*
Y280539D01*
X375494D01*
Y292006D01*
X390006D01*
Y280012D01*
X388843D01*
Y274468D01*
X396158D01*
Y280012D01*
X395994D01*
Y292006D01*
X437760D01*
X443506Y286260D01*
Y286000D01*
Y246500D01*
X443608Y245725D01*
X443907Y245003D01*
X444383Y244383D01*
X462506Y226260D01*
Y205240D01*
X462383Y205117D01*
X461907Y204497D01*
X461608Y203775D01*
X461506Y203000D01*
X461608Y202225D01*
X461907Y201503D01*
X462383Y200883D01*
X463003Y200407D01*
X463725Y200108D01*
X464500Y200006D01*
X465275Y200108D01*
X465997Y200407D01*
X466617Y200883D01*
X467617Y201883D01*
X467617Y201883D01*
X477240Y211506D01*
X486640D01*
Y209565D01*
X493360D01*
Y219435D01*
X486640D01*
Y217494D01*
X476000D01*
X475225Y217392D01*
X474802Y217217D01*
X474503Y217093D01*
X473883Y216617D01*
X468956Y211690D01*
X468494Y211882D01*
Y227500D01*
X468392Y228275D01*
X468093Y228997D01*
X467617Y229617D01*
X449494Y247740D01*
Y286000D01*
Y287500D01*
X449392Y288275D01*
X449093Y288997D01*
X448617Y289617D01*
X441117Y297117D01*
X440497Y297593D01*
X439775Y297892D01*
X439179Y297971D01*
X439211Y298471D01*
X445866D01*
X459971Y284366D01*
Y250500D01*
X460087Y249915D01*
X460419Y249419D01*
X482438Y227399D01*
X482934Y227067D01*
X483520Y226951D01*
X496826D01*
X497169Y226503D01*
X497440Y226295D01*
Y225665D01*
X497169Y225457D01*
X496725Y224878D01*
X496445Y224204D01*
X496350Y223480D01*
X496445Y222757D01*
X496725Y222082D01*
X497169Y221503D01*
X497440Y221295D01*
Y220665D01*
X497169Y220457D01*
X496725Y219878D01*
X496445Y219204D01*
X496350Y218480D01*
X496445Y217757D01*
X496725Y217083D01*
X497169Y216504D01*
X497440Y216295D01*
Y215665D01*
X497169Y215457D01*
X496725Y214878D01*
X496445Y214204D01*
X496350Y213480D01*
X496445Y212757D01*
X496725Y212083D01*
X497169Y211504D01*
X497440Y211295D01*
Y210665D01*
X497169Y210457D01*
X496725Y209878D01*
X496445Y209204D01*
X496350Y208480D01*
X496445Y207757D01*
X496725Y207083D01*
X497169Y206504D01*
X497590Y206180D01*
X497629Y206064D01*
Y205700D01*
X497590Y205583D01*
X497169Y205260D01*
X496725Y204681D01*
X496445Y204007D01*
X496416Y203783D01*
X501311D01*
X506206D01*
X506177Y204007D01*
X505897Y204681D01*
X505453Y205260D01*
X505032Y205583D01*
X504993Y205700D01*
Y206064D01*
X505032Y206180D01*
X505453Y206504D01*
X505897Y207083D01*
X506177Y207757D01*
X506272Y208480D01*
X506177Y209204D01*
X505897Y209878D01*
X505453Y210457D01*
X505282Y210588D01*
X505263Y211122D01*
X505615Y211457D01*
X508977D01*
Y158865D01*
X508800Y158438D01*
Y157562D01*
X509135Y156754D01*
X509385Y156503D01*
X509178Y156003D01*
X504393D01*
X504182Y156165D01*
Y156795D01*
X504453Y157003D01*
X504897Y157582D01*
X505177Y158257D01*
X505272Y158980D01*
X505177Y159704D01*
X504897Y160378D01*
X504453Y160957D01*
X504182Y161165D01*
Y161795D01*
X504453Y162004D01*
X504897Y162583D01*
X505177Y163257D01*
X505272Y163980D01*
X505177Y164704D01*
X504897Y165378D01*
X504453Y165957D01*
X504182Y166165D01*
Y166795D01*
X504453Y167004D01*
X504897Y167582D01*
X505177Y168257D01*
X505272Y168980D01*
X505177Y169704D01*
X504897Y170378D01*
X504453Y170957D01*
X503874Y171401D01*
X503200Y171681D01*
X502476Y171776D01*
X498146D01*
X497422Y171681D01*
X496748Y171401D01*
X496169Y170957D01*
X495725Y170378D01*
X495445Y169704D01*
X495350Y168980D01*
X495445Y168257D01*
X495725Y167582D01*
X496169Y167004D01*
X496440Y166795D01*
Y166165D01*
X496169Y165957D01*
X495826Y165510D01*
X491153D01*
X455529Y201133D01*
Y227500D01*
X455413Y228085D01*
X455081Y228581D01*
X443581Y240081D01*
X443085Y240413D01*
X442500Y240529D01*
X315634D01*
X281750Y274413D01*
Y274948D01*
X281407Y275775D01*
X280774Y276408D01*
X279948Y276750D01*
X279052D01*
X278225Y276408D01*
X277592Y275775D01*
X277250Y274948D01*
Y274052D01*
X277592Y273225D01*
X278225Y272592D01*
X279052Y272250D01*
X279587D01*
X313919Y237919D01*
X314415Y237587D01*
X315000Y237471D01*
X441866D01*
X452471Y226867D01*
Y200500D01*
X452587Y199915D01*
X452919Y199419D01*
X489438Y162899D01*
X489934Y162567D01*
X490520Y162451D01*
X495826D01*
X496169Y162004D01*
X496440Y161795D01*
Y161165D01*
X496169Y160957D01*
X495826Y160510D01*
X490153D01*
X451804Y198858D01*
Y225225D01*
X451688Y225810D01*
X451357Y226306D01*
X443581Y234081D01*
X443085Y234413D01*
X442500Y234529D01*
X315134D01*
X269750Y279913D01*
Y280448D01*
X269408Y281275D01*
X268775Y281908D01*
X267948Y282250D01*
X267052D01*
X266226Y281908D01*
X265593Y281275D01*
X265250Y280448D01*
Y279552D01*
X265593Y278726D01*
X266226Y278093D01*
X267052Y277750D01*
X267587D01*
X313419Y231919D01*
X313915Y231587D01*
X314500Y231471D01*
X441866D01*
X448746Y224591D01*
Y198225D01*
X448862Y197640D01*
X449194Y197143D01*
X488438Y157899D01*
X488934Y157567D01*
X489520Y157451D01*
X495826D01*
X496169Y157003D01*
X496440Y156795D01*
Y156165D01*
X496169Y155957D01*
X495725Y155378D01*
X495445Y154704D01*
X495350Y153980D01*
X495445Y153257D01*
X495725Y152583D01*
X496169Y152004D01*
X496440Y151795D01*
Y151165D01*
X496169Y150957D01*
X495725Y150378D01*
X495445Y149704D01*
X495350Y148980D01*
X495445Y148257D01*
X495725Y147582D01*
X496169Y147003D01*
X496440Y146795D01*
Y146165D01*
X496169Y145957D01*
X495725Y145378D01*
X495445Y144704D01*
X495350Y143980D01*
X495445Y143257D01*
X495725Y142582D01*
X496169Y142004D01*
X496440Y141795D01*
Y141165D01*
X496169Y140957D01*
X495725Y140378D01*
X495445Y139704D01*
X495350Y138980D01*
X495445Y138257D01*
X495725Y137583D01*
X496169Y137004D01*
X496590Y136680D01*
X496629Y136564D01*
Y136200D01*
X496590Y136083D01*
X496169Y135760D01*
X495725Y135181D01*
X495445Y134507D01*
X495416Y134283D01*
X500311D01*
X505206D01*
X505177Y134507D01*
X504897Y135181D01*
X504453Y135760D01*
X504032Y136083D01*
X503993Y136200D01*
Y136564D01*
X504032Y136680D01*
X504453Y137004D01*
X504897Y137583D01*
X505177Y138257D01*
X505272Y138980D01*
X505177Y139704D01*
X504897Y140378D01*
X504453Y140957D01*
X504269Y141098D01*
X504251Y141625D01*
X504611Y141967D01*
X509490D01*
X509907Y142050D01*
X510188D01*
X510996Y142385D01*
X511615Y143004D01*
X511950Y143812D01*
Y144688D01*
X511615Y145496D01*
X510996Y146115D01*
X510188Y146450D01*
X509312D01*
X508504Y146115D01*
X508402Y146013D01*
X504380D01*
X504269Y146098D01*
X504251Y146625D01*
X504611Y146967D01*
X515159D01*
X515562Y146800D01*
X516438D01*
X517246Y147135D01*
X517865Y147754D01*
X518200Y148562D01*
Y149438D01*
X517865Y150246D01*
X517246Y150865D01*
X516438Y151200D01*
X515562D01*
X515112Y151013D01*
X504380D01*
X504282Y151088D01*
X504263Y151622D01*
X504615Y151957D01*
X516980D01*
X517755Y152111D01*
X518411Y152550D01*
X523131Y157269D01*
X523569Y157926D01*
X523723Y158700D01*
Y223073D01*
X523900Y223500D01*
Y224375D01*
X523723Y224802D01*
Y305800D01*
X523569Y306574D01*
X523131Y307231D01*
X516950Y313411D01*
X516294Y313849D01*
X515520Y314003D01*
X506393D01*
X506182Y314165D01*
Y314795D01*
X506453Y315003D01*
X506897Y315582D01*
X507177Y316257D01*
X507272Y316980D01*
X507177Y317704D01*
X506897Y318378D01*
X506453Y318957D01*
X506182Y319165D01*
Y319795D01*
X506453Y320004D01*
X506897Y320583D01*
X507177Y321257D01*
X507272Y321980D01*
X507177Y322704D01*
X506897Y323378D01*
X506453Y323957D01*
X506182Y324165D01*
Y324795D01*
X506453Y325004D01*
X506897Y325583D01*
X507177Y326257D01*
X507272Y326980D01*
X507177Y327704D01*
X506897Y328378D01*
X506453Y328957D01*
X505874Y329401D01*
X505200Y329681D01*
X504476Y329776D01*
X503319D01*
X503086Y329872D01*
X502311Y329974D01*
X492480D01*
X491705Y329872D01*
X491282Y329697D01*
X490983Y329573D01*
X490363Y329098D01*
X477383Y316117D01*
X476907Y315497D01*
X476608Y314775D01*
X476506Y314000D01*
Y290369D01*
X476140D01*
Y280499D01*
X482860D01*
Y290369D01*
X482494D01*
Y312760D01*
X493720Y323986D01*
X497561D01*
X497808Y323486D01*
X497725Y323378D01*
X497445Y322704D01*
X497350Y321980D01*
X497445Y321257D01*
X497725Y320583D01*
X498169Y320004D01*
X498440Y319795D01*
Y319165D01*
X498169Y318957D01*
X497725Y318378D01*
X497445Y317704D01*
X497350Y316980D01*
X497445Y316257D01*
X497725Y315582D01*
X498169Y315003D01*
X498440Y314795D01*
Y314165D01*
X498169Y313957D01*
X497725Y313378D01*
X497445Y312704D01*
X497350Y311980D01*
X497445Y311257D01*
X497725Y310582D01*
X498169Y310003D01*
X498440Y309795D01*
Y309165D01*
X498169Y308957D01*
X497725Y308378D01*
X497445Y307704D01*
X497350Y306980D01*
X497445Y306257D01*
X497725Y305582D01*
X498169Y305003D01*
X498440Y304795D01*
Y304165D01*
X498169Y303957D01*
X497725Y303378D01*
X497445Y302704D01*
X497350Y301980D01*
X497445Y301257D01*
X497725Y300583D01*
X498169Y300004D01*
X498440Y299795D01*
Y299165D01*
X498169Y298957D01*
X497725Y298378D01*
X497445Y297704D01*
X497350Y296980D01*
X497445Y296257D01*
X497725Y295583D01*
X498169Y295004D01*
X498590Y294680D01*
X498629Y294564D01*
Y294200D01*
X498590Y294083D01*
X498169Y293760D01*
X497725Y293181D01*
X497445Y292507D01*
X497416Y292284D01*
X502311D01*
X507206D01*
X507177Y292507D01*
X506897Y293181D01*
X506453Y293760D01*
X506032Y294083D01*
X505993Y294200D01*
Y294564D01*
X506032Y294680D01*
X506453Y295004D01*
X506897Y295583D01*
X507177Y296257D01*
X507272Y296980D01*
X507177Y297704D01*
X506897Y298378D01*
X506453Y298957D01*
X506282Y299088D01*
X506263Y299622D01*
X506615Y299957D01*
X508182D01*
X508977Y299162D01*
Y215503D01*
X505393D01*
X505182Y215665D01*
Y216295D01*
X505453Y216504D01*
X505897Y217083D01*
X506177Y217757D01*
X506272Y218480D01*
X506177Y219204D01*
X505897Y219878D01*
X505453Y220457D01*
X505182Y220665D01*
Y221295D01*
X505453Y221503D01*
X505897Y222082D01*
X506177Y222757D01*
X506272Y223480D01*
X506177Y224204D01*
X505897Y224878D01*
X505453Y225457D01*
X505182Y225665D01*
Y226295D01*
X505453Y226503D01*
X505897Y227082D01*
X506177Y227757D01*
X506272Y228480D01*
X506177Y229204D01*
X505897Y229878D01*
X505453Y230457D01*
X505182Y230665D01*
Y231295D01*
X505453Y231504D01*
X505897Y232083D01*
X506177Y232757D01*
X506272Y233480D01*
X506177Y234204D01*
X505897Y234878D01*
X505453Y235457D01*
X505182Y235665D01*
Y236295D01*
X505453Y236504D01*
X505897Y237083D01*
X506177Y237757D01*
X506272Y238480D01*
X506177Y239204D01*
X505897Y239878D01*
X505453Y240457D01*
X504874Y240901D01*
X504200Y241181D01*
X503476Y241276D01*
X499146D01*
X498422Y241181D01*
X497748Y240901D01*
X497169Y240457D01*
X496725Y239878D01*
X496445Y239204D01*
X496350Y238480D01*
X496445Y237757D01*
X496725Y237083D01*
X497169Y236504D01*
X497440Y236295D01*
Y235665D01*
X497169Y235457D01*
X496826Y235010D01*
X487153D01*
X468029Y254134D01*
Y289000D01*
X467913Y289585D01*
X467581Y290081D01*
X451581Y306081D01*
X451085Y306413D01*
X450500Y306529D01*
X307000D01*
X306415Y306413D01*
X305919Y306081D01*
X293367Y293529D01*
X259953D01*
Y295471D01*
X291500D01*
X292085Y295587D01*
X292581Y295919D01*
X294413Y297750D01*
X294948D01*
X295775Y298093D01*
X296408Y298726D01*
X296750Y299552D01*
Y300448D01*
X296408Y301274D01*
X295775Y301907D01*
X294948Y302250D01*
X294052D01*
X293226Y301907D01*
X292593Y301274D01*
X292250Y300448D01*
Y299913D01*
X290866Y298529D01*
X259953D01*
Y299772D01*
X252047D01*
Y294228D01*
Y289228D01*
Y284228D01*
Y279228D01*
Y274228D01*
Y271906D01*
X251547Y271806D01*
X251365Y272246D01*
X251029Y272582D01*
Y301867D01*
X252081Y302919D01*
X252413Y303415D01*
X252529Y304000D01*
Y304996D01*
X253850D01*
Y312902D01*
X252608D01*
Y330497D01*
X252865Y330754D01*
X253200Y331562D01*
Y332438D01*
X252865Y333246D01*
X252246Y333865D01*
X251438Y334200D01*
D02*
G37*
G36*
X185579Y312902D02*
X183307D01*
Y309449D01*
X185579D01*
Y312902D01*
D02*
G37*
G36*
Y308449D02*
X183307D01*
Y304996D01*
X185579D01*
Y308449D01*
D02*
G37*
G36*
X507206Y291283D02*
X502811D01*
Y288988D01*
X504476D01*
X505200Y289083D01*
X505874Y289362D01*
X506453Y289807D01*
X506897Y290386D01*
X507177Y291060D01*
X507206Y291283D01*
D02*
G37*
G36*
X501811D02*
X497416D01*
X497445Y291060D01*
X497725Y290386D01*
X498169Y289807D01*
X498748Y289362D01*
X499422Y289083D01*
X500146Y288988D01*
X501811D01*
Y291283D01*
D02*
G37*
G36*
X405453Y281039D02*
X402000D01*
Y277980D01*
X405453D01*
Y281039D01*
D02*
G37*
G36*
X401000D02*
X397547D01*
Y277980D01*
X401000D01*
Y281039D01*
D02*
G37*
G36*
X387158Y280012D02*
X384000D01*
Y277740D01*
X387158D01*
Y280012D01*
D02*
G37*
G36*
X414157D02*
X411000D01*
Y277740D01*
X414157D01*
Y280012D01*
D02*
G37*
G36*
X361500D02*
X358343D01*
Y277740D01*
X361500D01*
Y280012D01*
D02*
G37*
G36*
X410000D02*
X406843D01*
Y277740D01*
X410000D01*
Y280012D01*
D02*
G37*
G36*
X383000D02*
X379842D01*
Y277740D01*
X383000D01*
Y280012D01*
D02*
G37*
G36*
X430657Y280012D02*
X427500D01*
Y277740D01*
X430657D01*
Y280012D01*
D02*
G37*
G36*
X426500D02*
X423343D01*
Y277740D01*
X426500D01*
Y280012D01*
D02*
G37*
G36*
X422657D02*
X419500D01*
Y277740D01*
X422657D01*
Y280012D01*
D02*
G37*
G36*
X418500D02*
X415343D01*
Y277740D01*
X418500D01*
Y280012D01*
D02*
G37*
G36*
X482860Y279347D02*
X480000D01*
Y274912D01*
X482860D01*
Y279347D01*
D02*
G37*
G36*
X479000D02*
X476140D01*
Y274912D01*
X479000D01*
Y279347D01*
D02*
G37*
G36*
X224756Y276878D02*
X222484D01*
Y274606D01*
X224756D01*
Y276878D01*
D02*
G37*
G36*
X210461D02*
X208189D01*
Y274606D01*
X210461D01*
Y276878D01*
D02*
G37*
G36*
X430657Y276740D02*
X427500D01*
Y274468D01*
X430657D01*
Y276740D01*
D02*
G37*
G36*
X426500D02*
X423343D01*
Y274468D01*
X426500D01*
Y276740D01*
D02*
G37*
G36*
X422657D02*
X419500D01*
Y274468D01*
X422657D01*
Y276740D01*
D02*
G37*
G36*
X418500D02*
X415343D01*
Y274468D01*
X418500D01*
Y276740D01*
D02*
G37*
G36*
X414157Y276740D02*
X411000D01*
Y274468D01*
X414157D01*
Y276740D01*
D02*
G37*
G36*
X410000D02*
X406843D01*
Y274468D01*
X410000D01*
Y276740D01*
D02*
G37*
G36*
X387158D02*
X384000D01*
Y274468D01*
X387158D01*
Y276740D01*
D02*
G37*
G36*
X383000D02*
X379842D01*
Y274468D01*
X383000D01*
Y276740D01*
D02*
G37*
G36*
X361500D02*
X358343D01*
Y274468D01*
X361500D01*
Y276740D01*
D02*
G37*
G36*
X221484Y276878D02*
X216972D01*
Y274106D01*
X215972D01*
Y276878D01*
X211461D01*
Y274106D01*
X210961D01*
Y273606D01*
X208189D01*
Y271335D01*
Y269094D01*
X210961D01*
Y268094D01*
X208189D01*
Y265823D01*
Y263583D01*
X210961D01*
Y263083D01*
X211461D01*
Y260311D01*
X215972D01*
Y263083D01*
X216972D01*
Y260311D01*
X221484D01*
Y263083D01*
X221984D01*
Y263583D01*
X224756D01*
Y265823D01*
Y268094D01*
X221984D01*
Y269094D01*
X224756D01*
Y271335D01*
Y273606D01*
X221984D01*
Y274106D01*
X221484D01*
Y276878D01*
D02*
G37*
G36*
X396158Y272532D02*
X393000D01*
Y270260D01*
X396158D01*
Y272532D01*
D02*
G37*
G36*
X392000D02*
X388843D01*
Y270260D01*
X392000D01*
Y272532D01*
D02*
G37*
G36*
X482860Y273912D02*
X480000D01*
Y269477D01*
X482860D01*
Y273912D01*
D02*
G37*
G36*
X479000D02*
X476140D01*
Y269477D01*
X479000D01*
Y273912D01*
D02*
G37*
G36*
X401500Y277480D02*
D01*
Y276980D01*
X397547D01*
Y274059D01*
X397547Y273921D01*
Y273559D01*
X397547Y273421D01*
Y266441D01*
X399971D01*
Y265000D01*
X400087Y264415D01*
X400419Y263919D01*
X404282Y260055D01*
X404778Y259724D01*
X405363Y259607D01*
X409287D01*
X409418Y259422D01*
X409196Y258868D01*
X409023Y258833D01*
X408432Y258438D01*
X408253D01*
X407662Y258833D01*
X407465Y258873D01*
Y254000D01*
Y249127D01*
X407662Y249167D01*
X407750Y249226D01*
X408191Y248990D01*
Y248280D01*
X408308Y247694D01*
X408437Y247500D01*
X413174D01*
X412865Y248246D01*
X412574Y248538D01*
X412738Y249080D01*
X413174Y249167D01*
X413473Y249366D01*
X413854Y249525D01*
X414236Y249366D01*
X414535Y249167D01*
X415232Y249028D01*
X415930Y249167D01*
X416521Y249562D01*
X416700D01*
X417291Y249167D01*
X417988Y249028D01*
X418686Y249167D01*
X418774Y249226D01*
X419215Y248990D01*
Y248756D01*
X419331Y248171D01*
X419663Y247674D01*
X420300Y247037D01*
Y246562D01*
X420635Y245754D01*
X421254Y245135D01*
X422000Y244826D01*
Y247000D01*
X422500D01*
Y247500D01*
X424674D01*
X424365Y248246D01*
X423995Y248617D01*
X424159Y249159D01*
X424197Y249167D01*
X424789Y249562D01*
X425184Y250153D01*
X425322Y250850D01*
Y253500D01*
X423500D01*
Y254000D01*
X423000D01*
Y258873D01*
X422803Y258833D01*
X422504Y258633D01*
X422122Y258475D01*
X421740Y258633D01*
X421442Y258833D01*
X421244Y258873D01*
Y254000D01*
X420244D01*
Y258873D01*
X420047Y258833D01*
X419958Y258774D01*
X419518Y259010D01*
Y266988D01*
X422657D01*
Y267737D01*
X423343D01*
Y266988D01*
X430657D01*
Y272532D01*
X423343D01*
Y271783D01*
X422657D01*
Y272532D01*
X415343D01*
Y266988D01*
X416459D01*
Y260596D01*
X415959Y260389D01*
X412872Y263476D01*
Y266988D01*
X414157D01*
Y272532D01*
X406843D01*
Y266988D01*
X409813D01*
Y262842D01*
X409668Y262666D01*
X405997D01*
X403029Y265634D01*
Y266441D01*
X405453D01*
Y273421D01*
X405453Y273559D01*
Y273921D01*
X405453Y274059D01*
Y276980D01*
X401500D01*
Y277480D01*
D02*
G37*
G36*
X396158Y269260D02*
X393000D01*
Y266988D01*
X396158D01*
Y269260D01*
D02*
G37*
G36*
X392000D02*
X388843D01*
Y266988D01*
X392000D01*
Y269260D01*
D02*
G37*
G36*
X224756Y262583D02*
X222484D01*
Y260311D01*
X224756D01*
Y262583D01*
D02*
G37*
G36*
X210461Y262583D02*
X208189D01*
Y260311D01*
X210461D01*
Y262583D01*
D02*
G37*
G36*
X392438Y266200D02*
X391562D01*
X390754Y265865D01*
X390135Y265246D01*
X389854Y264569D01*
X389438Y264200D01*
X388562D01*
X387754Y263865D01*
X387135Y263246D01*
X386800Y262438D01*
Y261562D01*
X387135Y260754D01*
X387754Y260135D01*
X388562Y259800D01*
X388900D01*
Y259010D01*
X388459Y258774D01*
X388371Y258833D01*
X388173Y258873D01*
Y254000D01*
X387173D01*
Y258873D01*
X386976Y258833D01*
X386385Y258438D01*
X386206D01*
X385615Y258833D01*
X385417Y258873D01*
Y254000D01*
Y249127D01*
X385615Y249167D01*
X385703Y249226D01*
X386144Y248990D01*
Y247827D01*
X386209Y247500D01*
X390674D01*
X390365Y248246D01*
X390010Y248602D01*
X390256Y249062D01*
X390429Y249028D01*
X391126Y249167D01*
X391425Y249366D01*
X391807Y249525D01*
X392189Y249366D01*
X392488Y249167D01*
X393185Y249028D01*
X393882Y249167D01*
X394181Y249366D01*
X394563Y249525D01*
X394945Y249366D01*
X395244Y249167D01*
X395941Y249028D01*
X396638Y249167D01*
X397230Y249562D01*
X397408D01*
X397999Y249167D01*
X398197Y249127D01*
Y254000D01*
Y258873D01*
X397999Y258833D01*
X397408Y258438D01*
X397230D01*
X396638Y258833D01*
X395941Y258972D01*
X395244Y258833D01*
X395155Y258774D01*
X394714Y259010D01*
Y262436D01*
X394598Y263021D01*
X394267Y263518D01*
X394200Y263584D01*
Y264438D01*
X393865Y265246D01*
X393246Y265865D01*
X392438Y266200D01*
D02*
G37*
G36*
X384417Y258873D02*
X384220Y258833D01*
X383921Y258633D01*
X383539Y258475D01*
X383158Y258633D01*
X382859Y258833D01*
X382662Y258873D01*
Y254000D01*
Y249127D01*
X382859Y249167D01*
X383158Y249366D01*
X383539Y249525D01*
X383921Y249366D01*
X384220Y249167D01*
X384417Y249127D01*
Y254000D01*
Y258873D01*
D02*
G37*
G36*
X424000D02*
Y254500D01*
X425322D01*
Y257150D01*
X425184Y257847D01*
X424789Y258438D01*
X424197Y258833D01*
X424000Y258873D01*
D02*
G37*
G36*
X343079Y258873D02*
X342881Y258833D01*
X342290Y258438D01*
X341895Y257847D01*
X341756Y257150D01*
Y254500D01*
X343079D01*
Y258873D01*
D02*
G37*
G36*
X259953Y251500D02*
X256500D01*
Y249228D01*
X259953D01*
Y251500D01*
D02*
G37*
G36*
X255500D02*
X252047D01*
Y249228D01*
X255500D01*
Y251500D01*
D02*
G37*
G36*
X401953Y258873D02*
Y254000D01*
Y249127D01*
X402150Y249167D01*
X402449Y249366D01*
X402831Y249525D01*
X403212Y249366D01*
X403511Y249167D01*
X403709Y249127D01*
Y254000D01*
Y258873D01*
X403511Y258833D01*
X403212Y258633D01*
X402831Y258475D01*
X402449Y258633D01*
X402150Y258833D01*
X401953Y258873D01*
D02*
G37*
G36*
X404709D02*
Y254000D01*
Y249127D01*
X404906Y249167D01*
X405205Y249366D01*
X405587Y249525D01*
X405968Y249366D01*
X406267Y249167D01*
X406465Y249127D01*
Y254000D01*
Y258873D01*
X406267Y258833D01*
X405968Y258633D01*
X405587Y258475D01*
X405205Y258633D01*
X404906Y258833D01*
X404709Y258873D01*
D02*
G37*
G36*
X399197D02*
Y254000D01*
Y249127D01*
X399394Y249167D01*
X399986Y249562D01*
X400164D01*
X400755Y249167D01*
X400953Y249127D01*
Y254000D01*
Y258873D01*
X400755Y258833D01*
X400164Y258438D01*
X399986D01*
X399394Y258833D01*
X399197Y258873D01*
D02*
G37*
G36*
X380174Y247000D02*
X378500D01*
Y245326D01*
X379246Y245635D01*
X379865Y246254D01*
X380174Y247000D01*
D02*
G37*
G36*
X377500D02*
X375826D01*
X376135Y246254D01*
X376754Y245635D01*
X377500Y245326D01*
Y247000D01*
D02*
G37*
G36*
X424674Y246500D02*
X423000D01*
Y244826D01*
X423746Y245135D01*
X424365Y245754D01*
X424674Y246500D01*
D02*
G37*
G36*
X413174D02*
X411500D01*
Y244826D01*
X412246Y245135D01*
X412865Y245754D01*
X413174Y246500D01*
D02*
G37*
G36*
X410500D02*
X408826D01*
X409135Y245754D01*
X409754Y245135D01*
X410500Y244826D01*
Y246500D01*
D02*
G37*
G36*
X390674D02*
X389000D01*
Y244826D01*
X389746Y245135D01*
X390365Y245754D01*
X390674Y246500D01*
D02*
G37*
G36*
X388000D02*
X386326D01*
X386635Y245754D01*
X387254Y245135D01*
X388000Y244826D01*
Y246500D01*
D02*
G37*
G36*
X370674D02*
X369000D01*
Y244826D01*
X369746Y245135D01*
X370365Y245754D01*
X370674Y246500D01*
D02*
G37*
G36*
X368000D02*
X366326D01*
X366635Y245754D01*
X367254Y245135D01*
X368000Y244826D01*
Y246500D01*
D02*
G37*
G36*
X365674Y246000D02*
X364000D01*
Y244326D01*
X364746Y244635D01*
X365365Y245254D01*
X365674Y246000D01*
D02*
G37*
G36*
X363000D02*
X361326D01*
X361635Y245254D01*
X362254Y244635D01*
X363000Y244326D01*
Y246000D01*
D02*
G37*
G36*
X345674D02*
X344000D01*
Y244326D01*
X344746Y244635D01*
X345365Y245254D01*
X345674Y246000D01*
D02*
G37*
G36*
X343000D02*
X341326D01*
X341635Y245254D01*
X342254Y244635D01*
X343000Y244326D01*
Y246000D01*
D02*
G37*
G36*
X185579Y244004D02*
X183307D01*
Y240551D01*
X185579D01*
Y244004D01*
D02*
G37*
G36*
Y239551D02*
X183307D01*
Y236098D01*
X185579D01*
Y239551D01*
D02*
G37*
G36*
X403201Y224417D02*
X395098D01*
Y222388D01*
X371902D01*
Y224417D01*
X363799D01*
Y217299D01*
X371902D01*
Y219329D01*
X395098D01*
Y217299D01*
X403201D01*
Y224417D01*
D02*
G37*
G36*
X445201D02*
X437098D01*
Y221888D01*
X413902D01*
Y224417D01*
X405799D01*
Y217299D01*
X413902D01*
Y218829D01*
X437098D01*
Y217299D01*
X445201D01*
Y224417D01*
D02*
G37*
G36*
X259000Y220674D02*
Y219000D01*
X260674D01*
X260365Y219746D01*
X259746Y220365D01*
X259000Y220674D01*
D02*
G37*
G36*
X258000D02*
X257254Y220365D01*
X256635Y219746D01*
X256326Y219000D01*
X258000D01*
Y220674D01*
D02*
G37*
G36*
X267938Y273200D02*
X267062D01*
X266254Y272865D01*
X265635Y272246D01*
X265300Y271438D01*
Y270562D01*
X265635Y269754D01*
X266254Y269135D01*
X267062Y268800D01*
X267938D01*
X268746Y269135D01*
X269082Y269471D01*
X269866D01*
X319471Y219866D01*
Y218348D01*
X318971Y218141D01*
X318746Y218365D01*
X317938Y218700D01*
X317062D01*
X316635Y218523D01*
X315500D01*
X314726Y218369D01*
X314069Y217931D01*
X310069Y213931D01*
X309631Y213274D01*
X309477Y212500D01*
X308985Y212521D01*
Y215500D01*
X308883Y216275D01*
X308584Y216997D01*
X308108Y217617D01*
X304108Y221617D01*
X303488Y222093D01*
X302766Y222392D01*
X301991Y222494D01*
X297166D01*
X296391Y222392D01*
X295669Y222093D01*
X295049Y221617D01*
X294573Y220997D01*
X294274Y220275D01*
X294172Y219500D01*
X294274Y218725D01*
X294573Y218003D01*
X295049Y217383D01*
X295669Y216907D01*
X296391Y216608D01*
X297166Y216506D01*
X300751D01*
X302997Y214260D01*
Y198740D01*
X235893Y131636D01*
X201358D01*
X200583Y131534D01*
X199861Y131235D01*
X199241Y130759D01*
X198765Y130139D01*
X198466Y129417D01*
X198364Y128642D01*
X198466Y127867D01*
X198765Y127145D01*
X199241Y126525D01*
X199861Y126049D01*
X200583Y125750D01*
X201358Y125648D01*
X237133D01*
X237908Y125750D01*
X238630Y126049D01*
X239250Y126525D01*
X308108Y195383D01*
X308584Y196003D01*
X308883Y196725D01*
X308977Y197435D01*
X309477Y197403D01*
Y193077D01*
Y175838D01*
X306069Y172431D01*
X305631Y171774D01*
X305477Y171000D01*
Y170039D01*
X303547D01*
Y163059D01*
X303547Y162921D01*
Y162559D01*
X303547Y162421D01*
Y159500D01*
X311453D01*
Y162421D01*
X311453Y162559D01*
Y162921D01*
X311453Y163059D01*
Y170039D01*
X310108D01*
X309900Y170539D01*
X312931Y173569D01*
X313369Y174226D01*
X313523Y175000D01*
Y193077D01*
Y211662D01*
X316338Y214477D01*
X316635D01*
X317062Y214300D01*
X317938D01*
X318746Y214635D01*
X318971Y214859D01*
X319471Y214652D01*
Y197000D01*
X319587Y196415D01*
X319919Y195919D01*
X326471Y189366D01*
Y138500D01*
X326587Y137915D01*
X326919Y137419D01*
X329919Y134419D01*
X330415Y134087D01*
X331000Y133971D01*
X335000D01*
Y132250D01*
X341000D01*
Y138750D01*
X335000D01*
Y137029D01*
X331633D01*
X329529Y139134D01*
Y150961D01*
X331471D01*
Y145000D01*
X331500Y144852D01*
Y140250D01*
X337500D01*
Y146750D01*
X334529D01*
Y150961D01*
X336953D01*
Y158079D01*
X336953D01*
Y158441D01*
X336953D01*
Y165559D01*
X335529D01*
Y169250D01*
X337000D01*
Y175750D01*
X331000D01*
Y169250D01*
X332471D01*
Y165559D01*
X329529D01*
Y190000D01*
X329413Y190585D01*
X329081Y191081D01*
X322529Y197634D01*
Y199583D01*
X325350D01*
Y203142D01*
Y206701D01*
X322529D01*
Y217299D01*
X329902D01*
Y219329D01*
X353098D01*
Y217299D01*
X361201D01*
Y224417D01*
X353098D01*
Y222388D01*
X329902D01*
Y224417D01*
X321799D01*
Y222517D01*
X321337Y222326D01*
X271581Y272081D01*
X271085Y272413D01*
X270500Y272529D01*
X269082D01*
X268746Y272865D01*
X267938Y273200D01*
D02*
G37*
G36*
X260674Y218000D02*
X259000D01*
Y216326D01*
X259746Y216635D01*
X260365Y217254D01*
X260674Y218000D01*
D02*
G37*
G36*
X258000D02*
X256326D01*
X256635Y217254D01*
X257254Y216635D01*
X258000Y216326D01*
Y218000D01*
D02*
G37*
G36*
X185000Y216174D02*
Y214500D01*
X186674D01*
X186365Y215246D01*
X185746Y215865D01*
X185000Y216174D01*
D02*
G37*
G36*
X184000D02*
X183254Y215865D01*
X182635Y215246D01*
X182326Y214500D01*
X184000D01*
Y216174D01*
D02*
G37*
G36*
X280174Y214000D02*
X278500D01*
Y212326D01*
X279246Y212635D01*
X279865Y213254D01*
X280174Y214000D01*
D02*
G37*
G36*
X277500D02*
X275826D01*
X276135Y213254D01*
X276754Y212635D01*
X277500Y212326D01*
Y214000D01*
D02*
G37*
G36*
X186674Y213500D02*
X185000D01*
Y211826D01*
X185746Y212135D01*
X186365Y212754D01*
X186674Y213500D01*
D02*
G37*
G36*
X184000D02*
X182326D01*
X182635Y212754D01*
X183254Y212135D01*
X184000Y211826D01*
Y213500D01*
D02*
G37*
G36*
X493360Y208413D02*
X490500D01*
Y203978D01*
X493360D01*
Y208413D01*
D02*
G37*
G36*
X489500D02*
X486640D01*
Y203978D01*
X489500D01*
Y208413D01*
D02*
G37*
G36*
X445201Y206701D02*
X441650D01*
Y203642D01*
X445201D01*
Y206701D01*
D02*
G37*
G36*
X440650D02*
X437098D01*
Y203642D01*
X440650D01*
Y206701D01*
D02*
G37*
G36*
X413902D02*
X410350D01*
Y203642D01*
X413902D01*
Y206701D01*
D02*
G37*
G36*
X409350D02*
X405799D01*
Y203642D01*
X409350D01*
Y206701D01*
D02*
G37*
G36*
X403201D02*
X399650D01*
Y203642D01*
X403201D01*
Y206701D01*
D02*
G37*
G36*
X398650D02*
X395098D01*
Y203642D01*
X398650D01*
Y206701D01*
D02*
G37*
G36*
X371902D02*
X368350D01*
Y203642D01*
X371902D01*
Y206701D01*
D02*
G37*
G36*
X367350D02*
X363799D01*
Y203642D01*
X367350D01*
Y206701D01*
D02*
G37*
G36*
X361201D02*
X357650D01*
Y203642D01*
X361201D01*
Y206701D01*
D02*
G37*
G36*
X356650D02*
X353098D01*
Y203642D01*
X356650D01*
Y206701D01*
D02*
G37*
G36*
X329902D02*
X326350D01*
Y203642D01*
X329902D01*
Y206701D01*
D02*
G37*
G36*
X282500Y222494D02*
X267526D01*
X266751Y222392D01*
X266328Y222217D01*
X266029Y222093D01*
X265409Y221617D01*
X264985Y221193D01*
X264743Y221093D01*
X264123Y220617D01*
X263647Y219997D01*
X263348Y219275D01*
X263246Y218500D01*
Y177260D01*
X263348Y176485D01*
X263647Y175763D01*
X264123Y175143D01*
X264743Y174667D01*
X265465Y174368D01*
X266240Y174266D01*
X267015Y174368D01*
X267737Y174667D01*
X268357Y175143D01*
X268833Y175763D01*
X269132Y176485D01*
X269234Y177260D01*
Y216506D01*
X276187D01*
X276395Y216006D01*
X276135Y215746D01*
X275826Y215000D01*
X280174D01*
X279865Y215746D01*
X279605Y216006D01*
X279813Y216506D01*
X281260D01*
X295383Y202383D01*
X296003Y201907D01*
X296725Y201608D01*
X297500Y201506D01*
X298275Y201608D01*
X298997Y201907D01*
X299617Y202383D01*
X300093Y203003D01*
X300392Y203725D01*
X300494Y204500D01*
X300392Y205275D01*
X300093Y205997D01*
X299617Y206617D01*
X284617Y221617D01*
X283997Y222093D01*
X283275Y222392D01*
X282500Y222494D01*
D02*
G37*
G36*
X253850Y244004D02*
X186579D01*
Y240051D01*
Y236098D01*
X188085D01*
Y215921D01*
X188187Y215146D01*
X188486Y214424D01*
X188962Y213804D01*
X200883Y201883D01*
X201503Y201407D01*
X202225Y201108D01*
X203000Y201006D01*
X227500D01*
X228275Y201108D01*
X228997Y201407D01*
X229617Y201883D01*
X230093Y202503D01*
X230392Y203225D01*
X230494Y204000D01*
X230392Y204775D01*
X230093Y205497D01*
X229617Y206117D01*
X228997Y206593D01*
X228275Y206892D01*
X227500Y206994D01*
X204240D01*
X194073Y217161D01*
Y236098D01*
X253850D01*
Y244004D01*
D02*
G37*
G36*
X506206Y202783D02*
X501811D01*
Y200488D01*
X503476D01*
X504200Y200583D01*
X504874Y200862D01*
X505453Y201307D01*
X505897Y201886D01*
X506177Y202560D01*
X506206Y202783D01*
D02*
G37*
G36*
X500811D02*
X496416D01*
X496445Y202560D01*
X496725Y201886D01*
X497169Y201307D01*
X497748Y200862D01*
X498422Y200583D01*
X499146Y200488D01*
X500811D01*
Y202783D01*
D02*
G37*
G36*
X445201Y202642D02*
X441650D01*
Y199583D01*
X445201D01*
Y202642D01*
D02*
G37*
G36*
X440650D02*
X437098D01*
Y199583D01*
X440650D01*
Y202642D01*
D02*
G37*
G36*
X413902D02*
X410350D01*
Y199583D01*
X413902D01*
Y202642D01*
D02*
G37*
G36*
X409350D02*
X405799D01*
Y199583D01*
X409350D01*
Y202642D01*
D02*
G37*
G36*
X403201D02*
X399650D01*
Y199583D01*
X403201D01*
Y202642D01*
D02*
G37*
G36*
X398650D02*
X395098D01*
Y199583D01*
X398650D01*
Y202642D01*
D02*
G37*
G36*
X371902D02*
X368350D01*
Y199583D01*
X371902D01*
Y202642D01*
D02*
G37*
G36*
X367350D02*
X363799D01*
Y199583D01*
X367350D01*
Y202642D01*
D02*
G37*
G36*
X361201D02*
X357650D01*
Y199583D01*
X361201D01*
Y202642D01*
D02*
G37*
G36*
X356650D02*
X353098D01*
Y199583D01*
X356650D01*
Y202642D01*
D02*
G37*
G36*
X329902D02*
X326350D01*
Y199583D01*
X329902D01*
Y202642D01*
D02*
G37*
G36*
X493360Y202978D02*
X490500D01*
Y198543D01*
X493360D01*
Y202978D01*
D02*
G37*
G36*
X489500D02*
X486640D01*
Y198543D01*
X489500D01*
Y202978D01*
D02*
G37*
G36*
X501000Y198933D02*
X499000D01*
Y196933D01*
X501000D01*
Y198933D01*
D02*
G37*
G36*
X240438Y198700D02*
X239562D01*
X238754Y198365D01*
X238135Y197746D01*
X237800Y196938D01*
Y196062D01*
X238135Y195254D01*
X238754Y194635D01*
X239562Y194300D01*
X240438D01*
X241246Y194635D01*
X241865Y195254D01*
X242200Y196062D01*
Y196938D01*
X241865Y197746D01*
X241246Y198365D01*
X240438Y198700D01*
D02*
G37*
G36*
X184938Y198484D02*
X184062D01*
X183254Y198149D01*
X182635Y197530D01*
X182300Y196721D01*
Y195846D01*
X182635Y195037D01*
X183254Y194418D01*
X184062Y194083D01*
X184938D01*
X185746Y194418D01*
X186365Y195037D01*
X186700Y195846D01*
Y196721D01*
X186365Y197530D01*
X185746Y198149D01*
X184938Y198484D01*
D02*
G37*
G36*
X340500Y183750D02*
X334500D01*
Y177250D01*
X340500D01*
Y183750D01*
D02*
G37*
G36*
X410000Y170174D02*
Y168500D01*
X411674D01*
X411365Y169246D01*
X410746Y169865D01*
X410000Y170174D01*
D02*
G37*
G36*
X409000D02*
X408254Y169865D01*
X407635Y169246D01*
X407326Y168500D01*
X409000D01*
Y170174D01*
D02*
G37*
G36*
X411674Y167500D02*
X410000D01*
Y165826D01*
X410746Y166135D01*
X411365Y166754D01*
X411674Y167500D01*
D02*
G37*
G36*
X409000D02*
X407326D01*
X407635Y166754D01*
X408254Y166135D01*
X409000Y165826D01*
Y167500D01*
D02*
G37*
G36*
X433658Y165012D02*
X430500D01*
Y162740D01*
X433658D01*
Y165012D01*
D02*
G37*
G36*
X429500D02*
X426342D01*
Y162740D01*
X429500D01*
Y165012D01*
D02*
G37*
G36*
X425157D02*
X422000D01*
Y162740D01*
X425157D01*
Y165012D01*
D02*
G37*
G36*
X421000D02*
X417842D01*
Y162740D01*
X421000D01*
Y165012D01*
D02*
G37*
G36*
X316938Y210200D02*
X316062D01*
X315254Y209865D01*
X314635Y209246D01*
X314300Y208438D01*
Y207562D01*
X314477Y207135D01*
Y201000D01*
Y170539D01*
X312547D01*
Y163559D01*
X312547Y163421D01*
Y163059D01*
X312547Y162921D01*
Y160000D01*
X320453D01*
Y162921D01*
X320453Y163059D01*
Y163421D01*
X320453Y163559D01*
Y170539D01*
X318523D01*
Y201000D01*
Y207135D01*
X318700Y207562D01*
Y208438D01*
X318365Y209246D01*
X317746Y209865D01*
X316938Y210200D01*
D02*
G37*
G36*
X433658Y161740D02*
X430500D01*
Y159468D01*
X433658D01*
Y161740D01*
D02*
G37*
G36*
X429500D02*
X426342D01*
Y159468D01*
X429500D01*
Y161740D01*
D02*
G37*
G36*
X425157D02*
X422000D01*
Y159468D01*
X425157D01*
Y161740D01*
D02*
G37*
G36*
X421000D02*
X417842D01*
Y159468D01*
X421000D01*
Y161740D01*
D02*
G37*
G36*
X320453Y159000D02*
X317000D01*
Y155941D01*
X320453D01*
Y159000D01*
D02*
G37*
G36*
X316000D02*
X312547D01*
Y155941D01*
X316000D01*
Y159000D01*
D02*
G37*
G36*
X311453Y158500D02*
X308000D01*
Y155441D01*
X311453D01*
Y158500D01*
D02*
G37*
G36*
X307000D02*
X303547D01*
Y155441D01*
X307000D01*
Y158500D01*
D02*
G37*
G36*
X353938Y195700D02*
X353062D01*
X352254Y195365D01*
X351635Y194746D01*
X351300Y193938D01*
Y193062D01*
X351635Y192254D01*
X351971Y191918D01*
Y173559D01*
X349547D01*
Y166579D01*
X349547Y166441D01*
Y166079D01*
X349547Y165941D01*
Y158961D01*
X351971D01*
Y155133D01*
X346919Y150081D01*
X346587Y149585D01*
X346471Y149000D01*
Y133133D01*
X340419Y127081D01*
X340087Y126585D01*
X339971Y126000D01*
Y123059D01*
X337547D01*
Y115941D01*
X337547D01*
Y115579D01*
X337547D01*
Y115014D01*
X319721D01*
X283117Y151617D01*
X282497Y152093D01*
X281775Y152392D01*
X281000Y152494D01*
X280225Y152392D01*
X279503Y152093D01*
X278883Y151617D01*
X278407Y150997D01*
X278108Y150275D01*
X278006Y149500D01*
X278108Y148725D01*
X278407Y148003D01*
X278883Y147383D01*
X316363Y109903D01*
X316983Y109427D01*
X317282Y109303D01*
X317705Y109128D01*
X318480Y109026D01*
X337547D01*
Y108461D01*
X345453D01*
Y109006D01*
X350000D01*
X350775Y109108D01*
X351497Y109407D01*
X352117Y109883D01*
X355117Y112883D01*
X355593Y113503D01*
X355717Y113802D01*
X355892Y114225D01*
X355994Y115000D01*
Y129461D01*
X356953D01*
Y130006D01*
X359966D01*
X360047Y129539D01*
X360047Y129506D01*
Y126480D01*
X367953D01*
Y129539D01*
X367287D01*
X367254Y130039D01*
X367775Y130108D01*
X368497Y130407D01*
X369117Y130883D01*
X370673Y132439D01*
X373446D01*
X373616Y131939D01*
X373511Y131859D01*
X373067Y131280D01*
X372788Y130605D01*
X372693Y129882D01*
Y128217D01*
X375488D01*
Y127717D01*
X375988D01*
Y122821D01*
X376212Y122851D01*
X376886Y123130D01*
X377465Y123574D01*
X377909Y124153D01*
X378188Y124828D01*
X378284Y125551D01*
Y126756D01*
X379417D01*
Y130000D01*
X380417D01*
Y126756D01*
X385979D01*
X386093Y126256D01*
X379867Y120029D01*
X367953D01*
Y121921D01*
X367953Y122059D01*
Y122421D01*
X367953Y122559D01*
Y125480D01*
X360047D01*
Y122559D01*
X360047Y122421D01*
Y122059D01*
X360047Y121921D01*
Y114941D01*
X367953D01*
Y116971D01*
X380500D01*
X381085Y117087D01*
X381581Y117419D01*
X388676Y124513D01*
X389007Y125009D01*
X389124Y125594D01*
X389016Y126139D01*
Y126756D01*
X390110D01*
Y125969D01*
X390219Y125425D01*
X390527Y124964D01*
X390995Y124495D01*
X391456Y124187D01*
X392000Y124079D01*
X395007D01*
X395551Y124187D01*
X396012Y124495D01*
X396473Y124956D01*
X396781Y125417D01*
X396889Y125961D01*
Y126756D01*
X397876D01*
Y126094D01*
X397992Y125509D01*
X398324Y125013D01*
X404919Y118419D01*
X405415Y118087D01*
X406000Y117971D01*
X417047D01*
Y115441D01*
X424953D01*
Y122421D01*
X424953Y122559D01*
Y122921D01*
X424953Y123059D01*
Y125980D01*
X417047D01*
Y123059D01*
X417047Y122921D01*
Y122559D01*
X417047Y122421D01*
Y121029D01*
X406634D01*
X401407Y126256D01*
X401614Y126756D01*
X404614D01*
Y130000D01*
Y133244D01*
X396214D01*
X395897Y133631D01*
X395921Y133750D01*
Y135810D01*
X396365Y136254D01*
X396700Y137062D01*
Y137938D01*
X396365Y138746D01*
X395921Y139190D01*
Y141936D01*
X395813Y142480D01*
X395505Y142941D01*
X394905Y143541D01*
Y151532D01*
X398905D01*
Y152167D01*
X399406Y152233D01*
X406829Y144810D01*
X407486Y144371D01*
X408260Y144217D01*
X417842D01*
Y143468D01*
X425157D01*
Y144711D01*
X426342D01*
Y143468D01*
X433658D01*
Y149012D01*
X426342D01*
Y147769D01*
X425157D01*
Y149012D01*
X417842D01*
Y148263D01*
X409098D01*
X401627Y155734D01*
X400971Y156172D01*
X400197Y156326D01*
X399287D01*
X399096Y156582D01*
X399340Y157092D01*
X399397Y157095D01*
X404468D01*
Y157174D01*
X406969D01*
X406975Y157164D01*
X407631Y156725D01*
X408405Y156571D01*
X410568D01*
X412521Y154618D01*
X412506Y154500D01*
X412608Y153725D01*
X412907Y153003D01*
X413383Y152383D01*
X414003Y151907D01*
X414725Y151608D01*
X415500Y151506D01*
X421240D01*
X422015Y151608D01*
X422396Y151766D01*
X430000D01*
X430775Y151868D01*
X431066Y151988D01*
X433658D01*
Y157531D01*
X431066D01*
X430775Y157652D01*
X430000Y157754D01*
X421500D01*
X420725Y157652D01*
X420434Y157531D01*
X417842D01*
Y157494D01*
X415500D01*
X415382Y157479D01*
X412836Y160025D01*
X412180Y160464D01*
X411406Y160618D01*
X408405D01*
X407631Y160464D01*
X406975Y160025D01*
X406969Y160015D01*
X404468D01*
Y163000D01*
Y166937D01*
Y171906D01*
X399397D01*
X398924Y171924D01*
X398905Y172397D01*
Y177469D01*
X384095D01*
Y172397D01*
X384076Y171924D01*
X383603Y171906D01*
X378532D01*
Y168785D01*
X378070Y168593D01*
X368417Y178246D01*
X367921Y178577D01*
X367336Y178694D01*
X364246D01*
X363910Y179029D01*
X363102Y179364D01*
X362227D01*
X361418Y179029D01*
X360799Y178410D01*
X360464Y177602D01*
Y176727D01*
X360799Y175918D01*
X361418Y175299D01*
X362227Y174964D01*
X363102D01*
X363910Y175299D01*
X364246Y175635D01*
X366702D01*
X368278Y174059D01*
X368071Y173559D01*
X360547D01*
Y171529D01*
X357453D01*
Y173559D01*
X355029D01*
Y191918D01*
X355365Y192254D01*
X355700Y193062D01*
Y193938D01*
X355365Y194746D01*
X354746Y195365D01*
X353938Y195700D01*
D02*
G37*
G36*
X537681Y144674D02*
Y143000D01*
X539355D01*
X539046Y143746D01*
X538427Y144365D01*
X537681Y144674D01*
D02*
G37*
G36*
X536681D02*
X535935Y144365D01*
X535316Y143746D01*
X535007Y143000D01*
X536681D01*
Y144674D01*
D02*
G37*
G36*
X186365Y146178D02*
X185635D01*
X184930Y145989D01*
X184298Y145624D01*
X183782Y145108D01*
X183417Y144476D01*
X183228Y143771D01*
Y143041D01*
X183417Y142336D01*
X183782Y141704D01*
X184298Y141188D01*
X184930Y140823D01*
X185635Y140634D01*
X186365D01*
X187070Y140823D01*
X187702Y141188D01*
X188218Y141704D01*
X188583Y142336D01*
X188772Y143041D01*
Y143771D01*
X188583Y144476D01*
X188218Y145108D01*
X187702Y145624D01*
X187070Y145989D01*
X186365Y146178D01*
D02*
G37*
G36*
X457500Y181994D02*
X456725Y181892D01*
X456003Y181593D01*
X455383Y181117D01*
X454907Y180497D01*
X454608Y179775D01*
X454506Y179000D01*
Y162000D01*
X454608Y161225D01*
X454907Y160503D01*
X455383Y159883D01*
X471861Y143405D01*
X472481Y142929D01*
X472780Y142805D01*
X473203Y142630D01*
X473978Y142528D01*
X482640D01*
Y140587D01*
X489360D01*
Y150457D01*
X482640D01*
Y148516D01*
X475218D01*
X460494Y163240D01*
Y179000D01*
X460392Y179775D01*
X460093Y180497D01*
X459617Y181117D01*
X458997Y181593D01*
X458275Y181892D01*
X457500Y181994D01*
D02*
G37*
G36*
X539355Y142000D02*
X537681D01*
Y140326D01*
X538427Y140635D01*
X539046Y141254D01*
X539355Y142000D01*
D02*
G37*
G36*
X536681D02*
X535007D01*
X535316Y141254D01*
X535935Y140635D01*
X536681Y140326D01*
Y142000D01*
D02*
G37*
G36*
X344000Y175750D02*
X338000D01*
Y169250D01*
X339471D01*
Y165539D01*
X338047D01*
Y158559D01*
X338047Y158421D01*
Y158059D01*
X338047Y157921D01*
Y150941D01*
X340471D01*
Y146750D01*
X338500D01*
Y140250D01*
X344500D01*
Y146750D01*
X343529D01*
Y150941D01*
X345953D01*
Y157921D01*
X345953Y158059D01*
Y158421D01*
X345953Y158559D01*
Y165539D01*
X342529D01*
Y169250D01*
X344000D01*
Y175750D01*
D02*
G37*
G36*
X425157Y141532D02*
X422000D01*
Y139260D01*
X425157D01*
Y141532D01*
D02*
G37*
G36*
X433658D02*
X430500D01*
Y139260D01*
X433658D01*
Y141532D01*
D02*
G37*
G36*
X421000D02*
X417842D01*
Y139260D01*
X421000D01*
Y141532D01*
D02*
G37*
G36*
X429500D02*
X426342D01*
Y139260D01*
X429500D01*
Y141532D01*
D02*
G37*
G36*
X433658Y138260D02*
X430500D01*
Y135988D01*
X433658D01*
Y138260D01*
D02*
G37*
G36*
X429500D02*
X426342D01*
Y135988D01*
X429500D01*
Y138260D01*
D02*
G37*
G36*
X425157D02*
X422000D01*
Y135988D01*
X425157D01*
Y138260D01*
D02*
G37*
G36*
X421000D02*
X417842D01*
Y135988D01*
X421000D01*
Y138260D01*
D02*
G37*
G36*
X489360Y139435D02*
X486500D01*
Y135000D01*
X489360D01*
Y139435D01*
D02*
G37*
G36*
X485500D02*
X482640D01*
Y135000D01*
X485500D01*
Y139435D01*
D02*
G37*
G36*
X505206Y133283D02*
X500811D01*
Y130988D01*
X502476D01*
X503200Y131083D01*
X503874Y131362D01*
X504453Y131807D01*
X504897Y132386D01*
X505177Y133060D01*
X505206Y133283D01*
D02*
G37*
G36*
X499811D02*
X495416D01*
X495445Y133060D01*
X495725Y132386D01*
X496169Y131807D01*
X496748Y131362D01*
X497422Y131083D01*
X498146Y130988D01*
X499811D01*
Y133283D01*
D02*
G37*
G36*
X489360Y134000D02*
X486500D01*
Y129565D01*
X489360D01*
Y134000D01*
D02*
G37*
G36*
X485500D02*
X482640D01*
Y129565D01*
X485500D01*
Y134000D01*
D02*
G37*
G36*
X186365Y134366D02*
X185635D01*
X184930Y134177D01*
X184298Y133812D01*
X183782Y133296D01*
X183417Y132664D01*
X183228Y131959D01*
Y131229D01*
X183417Y130524D01*
X183782Y129892D01*
X184298Y129376D01*
X184930Y129011D01*
X185635Y128822D01*
X186365D01*
X187070Y129011D01*
X187702Y129376D01*
X188218Y129892D01*
X188583Y130524D01*
X188772Y131229D01*
Y131959D01*
X188583Y132664D01*
X188218Y133296D01*
X187702Y133812D01*
X187070Y134177D01*
X186365Y134366D01*
D02*
G37*
G36*
X410043Y132612D02*
Y128217D01*
X412339D01*
Y129882D01*
X412244Y130605D01*
X411964Y131280D01*
X411520Y131859D01*
X410941Y132303D01*
X410267Y132582D01*
X410043Y132612D01*
D02*
G37*
G36*
X424953Y130039D02*
X421500D01*
Y126980D01*
X424953D01*
Y130039D01*
D02*
G37*
G36*
X420500D02*
X417047D01*
Y126980D01*
X420500D01*
Y130039D01*
D02*
G37*
G36*
X412339Y127216D02*
X410043D01*
Y122821D01*
X410267Y122851D01*
X410941Y123130D01*
X411520Y123574D01*
X411964Y124153D01*
X412244Y124828D01*
X412339Y125551D01*
Y127216D01*
D02*
G37*
G36*
X407295Y133244D02*
X405614D01*
Y130000D01*
Y126756D01*
X406748D01*
Y125551D01*
X406843Y124828D01*
X407122Y124153D01*
X407566Y123574D01*
X408146Y123130D01*
X408820Y122851D01*
X409043Y122821D01*
Y127717D01*
Y132612D01*
X408820Y132582D01*
X408146Y132303D01*
X407795Y132034D01*
X407295Y132281D01*
Y133244D01*
D02*
G37*
G36*
X374988Y127216D02*
X372693D01*
Y125551D01*
X372788Y124828D01*
X373067Y124153D01*
X373511Y123574D01*
X374090Y123130D01*
X374765Y122851D01*
X374988Y122821D01*
Y127216D01*
D02*
G37*
G36*
X410043Y115604D02*
Y111799D01*
X412339D01*
Y112874D01*
X412244Y113598D01*
X411964Y114272D01*
X411520Y114851D01*
X410941Y115295D01*
X410267Y115574D01*
X410043Y115604D01*
D02*
G37*
G36*
X375988D02*
Y111799D01*
X378284D01*
Y112874D01*
X378188Y113598D01*
X377909Y114272D01*
X377465Y114851D01*
X376886Y115295D01*
X376212Y115574D01*
X375988Y115604D01*
D02*
G37*
G36*
X409043D02*
X408820Y115574D01*
X408146Y115295D01*
X407566Y114851D01*
X407122Y114272D01*
X406843Y113598D01*
X406748Y112874D01*
Y111799D01*
X409043D01*
Y115604D01*
D02*
G37*
G36*
X374988D02*
X374765Y115574D01*
X374090Y115295D01*
X373511Y114851D01*
X373067Y114272D01*
X372788Y113598D01*
X372693Y112874D01*
Y111799D01*
X374988D01*
Y115604D01*
D02*
G37*
G36*
X412339Y110799D02*
X410043D01*
Y106995D01*
X410267Y107024D01*
X410941Y107303D01*
X411520Y107748D01*
X411964Y108327D01*
X412244Y109001D01*
X412339Y109724D01*
Y110799D01*
D02*
G37*
G36*
X378284D02*
X375988D01*
Y106995D01*
X376212Y107024D01*
X376886Y107303D01*
X377465Y107748D01*
X377909Y108327D01*
X378188Y109001D01*
X378284Y109724D01*
Y110799D01*
D02*
G37*
G36*
X409043D02*
X406748D01*
Y109724D01*
X406843Y109001D01*
X407122Y108327D01*
X407566Y107748D01*
X408146Y107303D01*
X408820Y107024D01*
X409043Y106995D01*
Y110799D01*
D02*
G37*
G36*
X374988D02*
X372693D01*
Y109724D01*
X372788Y109001D01*
X373067Y108327D01*
X373511Y107748D01*
X374090Y107303D01*
X374765Y107024D01*
X374988Y106995D01*
Y110799D01*
D02*
G37*
G36*
X240727Y116709D02*
X239225D01*
X237774Y116320D01*
X236474Y115569D01*
X235412Y114507D01*
X234660Y113206D01*
X234272Y111755D01*
Y110253D01*
X234660Y108802D01*
X235412Y107501D01*
X236474Y106439D01*
X237774Y105688D01*
X239225Y105299D01*
X240727D01*
X242178Y105688D01*
X243479Y106439D01*
X244541Y107501D01*
X245292Y108802D01*
X245681Y110253D01*
Y111755D01*
X245292Y113206D01*
X244541Y114507D01*
X243479Y115569D01*
X242178Y116320D01*
X240727Y116709D01*
D02*
G37*
%LPD*%
G36*
X234549Y286921D02*
X234666Y286336D01*
X234997Y285840D01*
X241242Y279596D01*
X241222Y279099D01*
X241071Y278984D01*
X240788Y278875D01*
X232608Y287055D01*
Y304996D01*
X234549D01*
Y286921D01*
D02*
G37*
G36*
X368192Y270456D02*
X368547Y270302D01*
Y265941D01*
X369608D01*
Y262000D01*
Y259010D01*
X369167Y258774D01*
X369079Y258833D01*
X368882Y258873D01*
Y254000D01*
X367882D01*
Y258873D01*
X367685Y258833D01*
X367596Y258774D01*
X367155Y259010D01*
Y261374D01*
X367039Y261959D01*
X366707Y262456D01*
X365581Y263581D01*
X365085Y263913D01*
X364500Y264029D01*
X363529D01*
Y266988D01*
X365657D01*
Y268519D01*
X366000Y268587D01*
X366496Y268919D01*
X368047Y270470D01*
X368192Y270456D01*
D02*
G37*
G36*
X519677Y213472D02*
Y159538D01*
X518416Y158277D01*
X517992Y158560D01*
X518200Y159062D01*
Y159938D01*
X518023Y160365D01*
Y212525D01*
X519177Y213679D01*
X519677Y213472D01*
D02*
G37*
G36*
X515977Y300162D02*
Y219365D01*
X515800Y218938D01*
Y218062D01*
X515894Y217835D01*
Y216118D01*
X514569Y214793D01*
X514131Y214137D01*
X513977Y213363D01*
Y160365D01*
X513800Y159938D01*
Y159062D01*
X514135Y158254D01*
X514754Y157635D01*
X515562Y157300D01*
X516438D01*
X516940Y157508D01*
X517223Y157084D01*
X516142Y156003D01*
X512822D01*
X512615Y156503D01*
X512865Y156754D01*
X513200Y157562D01*
Y158438D01*
X513023Y158865D01*
Y214066D01*
Y300000D01*
X512869Y300774D01*
X512431Y301431D01*
X510450Y303411D01*
X509794Y303849D01*
X509020Y304003D01*
X506393D01*
X506282Y304088D01*
X506263Y304622D01*
X506615Y304957D01*
X511182D01*
X515977Y300162D01*
D02*
G37*
G36*
X375954Y166383D02*
X375763Y165921D01*
X374456D01*
X374200Y166177D01*
Y166438D01*
X373865Y167246D01*
X373246Y167865D01*
X372438Y168200D01*
X371562D01*
X370754Y167865D01*
X370135Y167246D01*
X369800Y166438D01*
Y165562D01*
X370135Y164754D01*
X370436Y164453D01*
X370229Y163953D01*
X368453D01*
Y165941D01*
X368453Y166079D01*
Y166441D01*
X368453Y166579D01*
Y173177D01*
X368953Y173384D01*
X375954Y166383D01*
D02*
G37*
G36*
X360547Y166579D02*
X360547Y166441D01*
Y166079D01*
X360547Y165941D01*
Y158961D01*
X368453D01*
Y161110D01*
X378532D01*
Y160015D01*
X376139D01*
X375594Y160124D01*
X375009Y160008D01*
X374513Y159676D01*
X370367Y155529D01*
X361582D01*
X361246Y155865D01*
X360438Y156200D01*
X359562D01*
X358754Y155865D01*
X358135Y155246D01*
X357800Y154438D01*
Y153562D01*
X358135Y152754D01*
X358754Y152135D01*
X359562Y151800D01*
X360438D01*
X361246Y152135D01*
X361582Y152471D01*
X371000D01*
X371585Y152587D01*
X372081Y152919D01*
X376336Y157174D01*
X378532D01*
Y157095D01*
X383603D01*
X384076Y157076D01*
X384095Y156603D01*
Y151532D01*
X389063D01*
Y154303D01*
X390000D01*
Y151532D01*
X390079D01*
Y139186D01*
X389579Y138934D01*
X388938Y139200D01*
X388062D01*
X387254Y138865D01*
X386635Y138246D01*
X386300Y137438D01*
Y136562D01*
X386635Y135754D01*
X387254Y135135D01*
X387388Y135080D01*
Y134917D01*
X387496Y134373D01*
X387804Y133912D01*
X387971Y133744D01*
X387819Y133244D01*
X385090D01*
Y133933D01*
X384936Y134707D01*
X384497Y135364D01*
X383609Y136252D01*
X383432Y136679D01*
X382813Y137298D01*
X382004Y137633D01*
X381129D01*
X380702Y137456D01*
X378098D01*
X378026Y137550D01*
X377406Y138026D01*
X376683Y138325D01*
X375908Y138427D01*
X369433D01*
X368658Y138325D01*
X368235Y138150D01*
X367936Y138026D01*
X367316Y137550D01*
X365760Y135994D01*
X356953D01*
Y136579D01*
X356953D01*
Y136941D01*
X356953D01*
Y144059D01*
X354421D01*
Y144911D01*
X355089Y145579D01*
X361441D01*
Y143047D01*
X368421D01*
X368559Y143047D01*
X368921D01*
X369059Y143047D01*
X376039D01*
Y150953D01*
X369059D01*
X368921Y150953D01*
X368559D01*
X368421Y150953D01*
X361441D01*
Y148421D01*
X354500D01*
X353956Y148313D01*
X353495Y148005D01*
X351995Y146505D01*
X351687Y146044D01*
X351579Y145500D01*
Y144059D01*
X349529D01*
Y148366D01*
X354581Y153419D01*
X354913Y153915D01*
X355029Y154500D01*
Y158961D01*
X357453D01*
Y165941D01*
X357453Y166079D01*
Y166441D01*
X357453Y166579D01*
Y168471D01*
X360547D01*
Y166579D01*
D02*
G37*
G36*
X349047Y130731D02*
Y129461D01*
X350006D01*
Y116240D01*
X348760Y114994D01*
X345453D01*
Y115579D01*
X345453D01*
Y115941D01*
X345453D01*
Y123059D01*
X343029D01*
Y125366D01*
X348585Y130922D01*
X349047Y130731D01*
D02*
G37*
D12*
X401697Y158595D02*
X408405D01*
X375594D02*
X381303D01*
X378031Y166469D02*
X381303D01*
X373867Y164500D02*
X381303D01*
X372367Y166000D02*
X373867Y164500D01*
X372000Y166000D02*
X372367D01*
X364512Y162531D02*
X381303D01*
X201039Y252539D02*
X201079Y252579D01*
X201000Y252500D02*
X201039Y252539D01*
X201079Y252579D02*
Y308949D01*
X388809Y134917D02*
X389500Y134225D01*
X388809Y134917D02*
Y136691D01*
X394500Y137500D02*
Y141936D01*
Y133750D02*
Y137500D01*
X389500Y130125D02*
Y134225D01*
X388500Y137000D02*
X388809Y136691D01*
X354500Y147000D02*
X365000D01*
X353000Y145500D02*
X354500Y147000D01*
X353000Y140500D02*
Y145500D01*
X393484Y142952D02*
X394500Y141936D01*
X393484Y142952D02*
Y154287D01*
X391500Y138000D02*
Y154303D01*
Y138000D02*
X391531Y137969D01*
X387595Y130000D02*
Y130274D01*
Y128899D02*
Y130000D01*
Y125594D02*
Y128899D01*
X391531Y130000D02*
Y137969D01*
Y125969D02*
Y130000D01*
X393500Y132750D02*
X394500Y133750D01*
X393500Y130000D02*
Y132750D01*
X393468Y154303D02*
X393484Y154287D01*
X391531Y125969D02*
X392000Y125500D01*
X395007D01*
X395468Y125961D01*
Y130000D01*
D14*
X371138Y262000D02*
X378000D01*
X379405Y260595D01*
Y254000D02*
Y260595D01*
X371138Y262000D02*
Y268138D01*
X389531Y154303D02*
Y162531D01*
X391500Y164500D01*
X409543Y127717D02*
Y128825D01*
X408368Y130000D02*
X409543Y128825D01*
X405114Y130000D02*
X408368D01*
X375488Y127717D02*
Y128825D01*
X376663Y130000D01*
X379917D01*
X515990Y148990D02*
X516000Y149000D01*
X510414Y213480D02*
X511000Y214066D01*
X509490Y143990D02*
X509750Y144250D01*
X500311Y143980D02*
X500321Y143990D01*
X500311Y148980D02*
X500321Y148990D01*
X325850Y220858D02*
X357150D01*
X367850D02*
X399150D01*
X353500Y154500D02*
Y162520D01*
X348000Y149000D02*
X353500Y154500D01*
X360000Y154000D02*
X371000D01*
X375594Y158595D01*
X353500Y170000D02*
X364500D01*
X362664Y177164D02*
X367336D01*
X378031Y166469D01*
X353500Y170000D02*
Y193500D01*
X420744Y254000D02*
X423500D01*
X420744Y248756D02*
Y254000D01*
X409721Y248280D02*
Y254000D01*
X401453D02*
X404209D01*
X406965D01*
X384917D02*
X387673D01*
X398697D02*
X401453D01*
X406965D02*
X409721D01*
X387673Y247827D02*
Y254000D01*
X420744Y248756D02*
X422500Y247000D01*
X409721Y248280D02*
X411000Y247000D01*
X412209Y202783D02*
X412350Y202642D01*
X387673Y247827D02*
X388500Y247000D01*
X382161Y254000D02*
X384917D01*
X373894D02*
X376650D01*
Y248850D02*
X377500Y248000D01*
X376650Y248850D02*
Y254000D01*
X360114D02*
X362870D01*
X368382Y247118D02*
Y254000D01*
X362870Y247130D02*
X363500Y246500D01*
X362870Y247130D02*
Y254000D01*
X368382Y247118D02*
X368500Y247000D01*
X343500Y246500D02*
X343579Y246579D01*
Y254000D01*
X206000Y255000D02*
X206079Y255079D01*
Y308949D01*
X196079D02*
X196500Y308528D01*
Y296500D02*
Y308528D01*
X212500Y297000D02*
Y297379D01*
X211079Y298800D02*
X212500Y297379D01*
X211079Y298800D02*
Y308949D01*
X392000Y263621D02*
X393185Y262436D01*
X392000Y263621D02*
Y264000D01*
X393185Y254000D02*
Y262436D01*
Y254000D02*
X395941D01*
X389000Y262000D02*
X390429Y260571D01*
Y254000D02*
Y260571D01*
X392500Y277240D02*
X393000Y277740D01*
X417988Y268748D02*
X419000Y269760D01*
X417988Y254000D02*
Y268748D01*
X412366Y254110D02*
X412476Y254000D01*
X411342Y262842D02*
Y268918D01*
X410500Y269760D02*
X411342Y268918D01*
X405363Y261137D02*
X410219D01*
X411342Y262842D02*
X415342Y258842D01*
X412366Y254110D02*
Y258990D01*
X410219Y261137D02*
X412366Y258990D01*
X401500Y265000D02*
Y270000D01*
Y265000D02*
X405363Y261137D01*
X383240Y269500D02*
X383500Y269760D01*
X367980Y276980D02*
X372500D01*
X367000Y276000D02*
X367980Y276980D01*
X367000Y271586D02*
Y276000D01*
X365414Y270000D02*
X367000Y271586D01*
X363500Y270000D02*
X365414D01*
X363000Y270500D02*
X363500Y270000D01*
X362260Y269760D02*
X363000Y270500D01*
X362000Y269760D02*
X362260D01*
X371138Y268138D02*
X372500Y269500D01*
X371138Y254000D02*
Y262000D01*
X364500Y262500D02*
X365626Y261374D01*
Y254000D02*
Y261374D01*
X362000Y262500D02*
X364500D01*
X421500Y146240D02*
X430000D01*
X357468Y254110D02*
Y257968D01*
X362000Y262500D01*
Y269760D01*
X357358Y254000D02*
X357468Y254110D01*
X338500Y267500D02*
Y270260D01*
Y267500D02*
X346335Y259665D01*
Y254000D02*
Y259665D01*
X267500Y280000D02*
X314500Y233000D01*
X442500D01*
X270500Y271000D02*
X321000Y220500D01*
Y197000D02*
X328000Y190000D01*
X321000Y197000D02*
Y220500D01*
X267500Y271000D02*
X270500D01*
X279500Y274500D02*
X315000Y239000D01*
X316500Y168480D02*
X317250Y167730D01*
X328000Y138500D02*
Y190000D01*
X341500Y119500D02*
Y126000D01*
X348000Y132500D01*
Y149000D01*
X353000Y133020D02*
X353020Y133000D01*
X328000Y138500D02*
X331000Y135500D01*
X338000D01*
X249500Y271000D02*
Y302500D01*
X251000Y304000D01*
Y308870D01*
X251079Y308949D01*
X461500Y250500D02*
Y285000D01*
Y250500D02*
X483520Y228480D01*
X446500Y300000D02*
X461500Y285000D01*
X251000Y332000D02*
X251079Y331921D01*
Y308949D02*
Y331921D01*
X246000Y309028D02*
X246079Y308949D01*
X246000Y309028D02*
Y322500D01*
X241079Y308949D02*
X241500Y309370D01*
Y328500D01*
X226079Y308949D02*
X226500Y309370D01*
Y318500D01*
X291500Y297000D02*
X294500Y300000D01*
X256000Y297000D02*
X291500D01*
X307000Y305000D02*
X450500D01*
X294000Y292000D02*
X307000Y305000D01*
X450500D02*
X466500Y289000D01*
X483520Y228480D02*
X501311D01*
X318500Y300000D02*
X446500D01*
X415232Y254000D02*
X415342Y254110D01*
Y258842D01*
X354602Y260102D02*
X356157Y261658D01*
Y276257D01*
X354914Y277500D02*
X356157Y276257D01*
X352000Y277740D02*
X352240Y277500D01*
X354914D01*
X354602Y254000D02*
Y260102D01*
X351847Y270106D02*
X352000Y270260D01*
X351847Y254000D02*
Y270106D01*
X345000Y265000D02*
Y276000D01*
Y265000D02*
X349091Y260910D01*
X343260Y277740D02*
X345000Y276000D01*
X338500Y277740D02*
X343260D01*
X349091Y254000D02*
Y260910D01*
X256000Y292000D02*
X294000D01*
X442500Y233000D02*
X450275Y225225D01*
Y198225D02*
Y225225D01*
X442500Y239000D02*
X454000Y227500D01*
X315000Y239000D02*
X442500D01*
X454000Y200500D02*
Y227500D01*
X395437Y154303D02*
X397406D01*
X486520Y233480D02*
X501311D01*
X466500Y253500D02*
Y289000D01*
Y253500D02*
X486520Y233480D01*
X454000Y200500D02*
X490520Y163980D01*
X236079Y286921D02*
X243500Y279500D01*
X236079Y286921D02*
Y308949D01*
X231079Y286421D02*
X243000Y274500D01*
X231079Y286421D02*
Y308949D01*
X450275Y198225D02*
X489520Y158980D01*
X490520Y163980D02*
X500311D01*
X489520Y158980D02*
X500311D01*
X412350Y220358D02*
X443650D01*
X364500Y162520D02*
X364512Y162531D01*
X421240Y154500D02*
X421500Y154760D01*
X420500Y119500D02*
X421000Y119000D01*
X406000Y119500D02*
X420500D01*
X399406Y126094D02*
X406000Y119500D01*
X399406Y126094D02*
Y130000D01*
X364000Y118500D02*
X380500D01*
X387595Y125594D01*
X341500Y143500D02*
X342000Y144000D01*
Y154500D01*
X333000Y145000D02*
X334500Y143500D01*
X333000Y145000D02*
Y154520D01*
Y162000D02*
X334000Y163000D01*
Y172500D01*
X341000Y162980D02*
X342000Y161980D01*
X341000Y162980D02*
Y172500D01*
D16*
X421500Y154760D02*
D03*
Y162240D02*
D03*
X410500Y277240D02*
D03*
Y269760D02*
D03*
X383500Y277240D02*
D03*
Y269760D02*
D03*
X362000Y277240D02*
D03*
Y269760D02*
D03*
X352000Y277740D02*
D03*
Y270260D02*
D03*
X427000Y269760D02*
D03*
Y277240D02*
D03*
X430000Y146240D02*
D03*
Y138760D02*
D03*
X421500Y146240D02*
D03*
Y138760D02*
D03*
X430000Y154760D02*
D03*
Y162240D02*
D03*
X419000Y269760D02*
D03*
Y277240D02*
D03*
X392500Y269760D02*
D03*
Y277240D02*
D03*
X338500Y277740D02*
D03*
Y270260D02*
D03*
D17*
X342000Y161980D02*
D03*
Y154500D02*
D03*
X333000Y162000D02*
D03*
Y154520D02*
D03*
X364500Y170000D02*
D03*
Y162520D02*
D03*
X421000Y119000D02*
D03*
Y126480D02*
D03*
X353000Y140500D02*
D03*
Y133020D02*
D03*
X307500Y159000D02*
D03*
Y166480D02*
D03*
X353500Y162520D02*
D03*
Y170000D02*
D03*
X364000Y118500D02*
D03*
Y125980D02*
D03*
X341500Y119500D02*
D03*
Y112020D02*
D03*
X372500Y269500D02*
D03*
Y276980D02*
D03*
X401500Y277480D02*
D03*
Y270000D02*
D03*
X316500Y159500D02*
D03*
Y166980D02*
D03*
D18*
X500311Y133783D02*
D03*
Y138980D02*
D03*
Y158980D02*
D03*
Y153980D02*
D03*
Y163980D02*
D03*
Y168980D02*
D03*
Y148980D02*
D03*
Y143980D02*
D03*
X501311Y203284D02*
D03*
Y208480D02*
D03*
Y228480D02*
D03*
Y223480D02*
D03*
Y233480D02*
D03*
Y238480D02*
D03*
Y218480D02*
D03*
Y213480D02*
D03*
X502311Y291783D02*
D03*
Y296980D02*
D03*
Y316980D02*
D03*
Y311980D02*
D03*
Y321980D02*
D03*
Y326980D02*
D03*
Y306980D02*
D03*
Y301980D02*
D03*
D19*
X338000Y135500D02*
D03*
X334500Y143500D02*
D03*
X341500D02*
D03*
X337500Y180500D02*
D03*
X341000Y172500D02*
D03*
X334000D02*
D03*
D20*
X379917Y130000D02*
D03*
X383067D02*
D03*
X401965D02*
D03*
X405114D02*
D03*
D21*
X391531D02*
D03*
X389563D02*
D03*
X387595D02*
D03*
X385626D02*
D03*
X393500D02*
D03*
X395468D02*
D03*
X397437D02*
D03*
X399406D02*
D03*
D22*
X343378Y363213D02*
D03*
X365622D02*
D03*
X267256Y363500D02*
D03*
X289500D02*
D03*
X438878Y363213D02*
D03*
X461122D02*
D03*
X522256Y363000D02*
D03*
X544500D02*
D03*
D23*
X365000Y147000D02*
D03*
X372480D02*
D03*
D24*
X490000Y214500D02*
D03*
Y203478D02*
D03*
X479500Y285434D02*
D03*
Y274412D02*
D03*
X486000Y134500D02*
D03*
Y145522D02*
D03*
D25*
X441150Y203142D02*
D03*
X409850D02*
D03*
X441150Y220858D02*
D03*
X409850D02*
D03*
X357150Y203142D02*
D03*
X325850D02*
D03*
X357150Y220858D02*
D03*
X325850D02*
D03*
X399150Y203142D02*
D03*
X367850D02*
D03*
X399150Y220858D02*
D03*
X367850D02*
D03*
D26*
X423500Y254000D02*
D03*
X420744D02*
D03*
X417988D02*
D03*
X415232D02*
D03*
X412476D02*
D03*
X409721D02*
D03*
X406965D02*
D03*
X404209D02*
D03*
X401453D02*
D03*
X398697D02*
D03*
X395941D02*
D03*
X393185D02*
D03*
X390429D02*
D03*
X387673D02*
D03*
X384917D02*
D03*
X382161D02*
D03*
X379405D02*
D03*
X376650D02*
D03*
X373894D02*
D03*
X371138D02*
D03*
X368382D02*
D03*
X365626D02*
D03*
X362870D02*
D03*
X360114D02*
D03*
X357358D02*
D03*
X354602D02*
D03*
X351847D02*
D03*
X349091D02*
D03*
X346335D02*
D03*
X343579D02*
D03*
D27*
X251079Y240051D02*
D03*
X246079D02*
D03*
X241079D02*
D03*
X236079D02*
D03*
X231079D02*
D03*
X226079D02*
D03*
X221079D02*
D03*
X216079D02*
D03*
X211079D02*
D03*
X206079D02*
D03*
X201079D02*
D03*
X196079D02*
D03*
X191079D02*
D03*
X186079D02*
D03*
X251079Y308949D02*
D03*
X246079D02*
D03*
X241079D02*
D03*
X236079D02*
D03*
X231079D02*
D03*
X226079D02*
D03*
X221079D02*
D03*
X216079D02*
D03*
X211079D02*
D03*
X206079D02*
D03*
X201079D02*
D03*
X196079D02*
D03*
X191079D02*
D03*
X186079D02*
D03*
D28*
X256000Y277000D02*
D03*
Y282000D02*
D03*
Y287000D02*
D03*
Y292000D02*
D03*
Y297000D02*
D03*
Y272000D02*
D03*
Y267000D02*
D03*
Y262000D02*
D03*
Y257000D02*
D03*
Y252000D02*
D03*
D29*
X216472Y268595D02*
D03*
Y263083D02*
D03*
Y274106D02*
D03*
X210961Y268595D02*
D03*
Y263083D02*
D03*
Y274106D02*
D03*
X221984Y268595D02*
D03*
Y263083D02*
D03*
Y274106D02*
D03*
D30*
X385595Y154303D02*
D03*
X387563D02*
D03*
X389531D02*
D03*
X391500D02*
D03*
X393468D02*
D03*
X395437D02*
D03*
X397406D02*
D03*
Y174697D02*
D03*
X395437D02*
D03*
X393468D02*
D03*
X391500D02*
D03*
X389531D02*
D03*
X387563D02*
D03*
X385595D02*
D03*
D31*
X401697Y158595D02*
D03*
Y160563D02*
D03*
Y162531D02*
D03*
Y164500D02*
D03*
Y166469D02*
D03*
Y168437D02*
D03*
Y170405D02*
D03*
X381303D02*
D03*
Y168437D02*
D03*
Y166469D02*
D03*
Y164500D02*
D03*
Y162531D02*
D03*
Y160563D02*
D03*
Y158595D02*
D03*
D35*
X391500Y164500D02*
D03*
D36*
X375488Y127717D02*
D03*
X409543D02*
D03*
D37*
X375488Y111299D02*
D03*
X409543D02*
D03*
D38*
X186000Y143406D02*
D03*
Y131594D02*
D03*
D39*
X239976Y111004D02*
D03*
D40*
X464500Y203000D02*
D03*
X267500Y280000D02*
D03*
X279500Y274500D02*
D03*
X294500Y300000D02*
D03*
X479500Y285912D02*
D03*
X318500Y300000D02*
D03*
X446500Y286000D02*
D03*
X501311Y238480D02*
D03*
X490000Y214500D02*
D03*
X500311Y168980D02*
D03*
X486000Y145522D02*
D03*
X457500Y179000D02*
D03*
X273500Y285000D02*
D03*
X421500Y146000D02*
D03*
X191000Y240000D02*
D03*
X243500Y279500D02*
D03*
X243000Y274500D02*
D03*
X430500Y154500D02*
D03*
D41*
X518000Y218500D02*
D03*
X502000D02*
D03*
X409500Y168000D02*
D03*
X394500Y165500D02*
D03*
X521700Y223938D02*
D03*
X516000Y149000D02*
D03*
X511000Y158000D02*
D03*
X509750Y144250D02*
D03*
X516000Y159500D02*
D03*
X501500Y223500D02*
D03*
X537181Y142500D02*
D03*
X241079Y240051D02*
D03*
X236079D02*
D03*
X231079D02*
D03*
X409850Y220858D02*
D03*
X367850D02*
D03*
X325850D02*
D03*
X184500Y214000D02*
D03*
X186079Y240051D02*
D03*
X216472Y268595D02*
D03*
X500311Y133783D02*
D03*
X501311Y203284D02*
D03*
X502311Y291783D02*
D03*
X258500Y218500D02*
D03*
X278000Y214500D02*
D03*
X360000Y154000D02*
D03*
X333000Y154520D02*
D03*
X362664Y177164D02*
D03*
X341000Y172500D02*
D03*
X372000Y166000D02*
D03*
X353500Y193500D02*
D03*
X422500Y247000D02*
D03*
X411000D02*
D03*
X388500D02*
D03*
X378000Y247500D02*
D03*
X368500Y247000D02*
D03*
X363500Y246500D02*
D03*
X343500D02*
D03*
X201039Y252539D02*
D03*
X206000Y255000D02*
D03*
X196500Y296500D02*
D03*
X212500Y297000D02*
D03*
X392000Y264000D02*
D03*
X389000Y262000D02*
D03*
X381567Y135433D02*
D03*
X394500Y137500D02*
D03*
X388500Y137000D02*
D03*
X281000Y149500D02*
D03*
X266500Y177000D02*
D03*
X317500Y216500D02*
D03*
X297166Y219500D02*
D03*
X316500Y208000D02*
D03*
X201358Y128642D02*
D03*
X240000Y196500D02*
D03*
X337500Y180500D02*
D03*
X267500Y271000D02*
D03*
X249500D02*
D03*
X372480Y147000D02*
D03*
X266240Y218500D02*
D03*
X297500Y204500D02*
D03*
X278012Y219500D02*
D03*
X191254Y309000D02*
D03*
X227500Y204000D02*
D03*
X184500Y196283D02*
D03*
X196000Y240000D02*
D03*
X251000Y332000D02*
D03*
Y309000D02*
D03*
X241500Y328500D02*
D03*
X246000Y322500D02*
D03*
X226500Y318500D02*
D03*
X221000Y309000D02*
D03*
X502500Y322000D02*
D03*
Y317000D02*
D03*
Y312000D02*
D03*
Y307000D02*
D03*
Y302000D02*
D03*
D42*
X465500Y204000D02*
Y227500D01*
X464500Y203000D02*
X465500Y204000D01*
X476000Y214500D01*
X446500Y246500D02*
X465500Y227500D01*
X476000Y214500D02*
X490000D01*
X393000Y277740D02*
Y295000D01*
X439000D01*
X372500Y276980D02*
Y295000D01*
X393000D01*
X191079Y215921D02*
Y240051D01*
X367000Y133000D02*
X369433Y135433D01*
X353020Y133000D02*
X367000D01*
X369433Y135433D02*
X375908D01*
X281000Y149500D02*
X318480Y112020D01*
X341500D01*
X266240Y177260D02*
Y218500D01*
X278012Y219500D02*
X282500D01*
X297166D02*
X301991D01*
X305991Y197500D02*
Y215500D01*
X301991Y219500D02*
X305991Y215500D01*
X237133Y128642D02*
X305991Y197500D01*
X201358Y128642D02*
X237133D01*
X282500Y219500D02*
X297500Y204500D01*
X267526Y219500D02*
X278012D01*
X341520Y112000D02*
X350000D01*
X353000Y115000D01*
Y133020D01*
X266526Y218500D02*
X267526Y219500D01*
X203000Y204000D02*
X227500D01*
X191079Y215921D02*
X203000Y204000D01*
X479500Y285912D02*
Y314000D01*
Y285500D02*
Y285912D01*
Y314000D02*
X492480Y326980D01*
X502311D01*
X446500Y286000D02*
Y287500D01*
Y246500D02*
Y286000D01*
X439000Y295000D02*
X446500Y287500D01*
X308500Y295000D02*
X372500D01*
X298500Y285000D02*
X308500Y295000D01*
X457500Y162000D02*
X473978Y145522D01*
X486000D01*
X457500Y162000D02*
Y179000D01*
X273500Y285000D02*
X298500D01*
X415500Y154500D02*
X421240D01*
X421500Y154760D02*
X430000D01*
D43*
X516000Y159500D02*
Y213363D01*
X518000Y218500D02*
Y301000D01*
X517917Y215280D02*
Y218417D01*
X518000Y218500D01*
X516000Y213363D02*
X517917Y215280D01*
X502311Y306980D02*
X512020D01*
X518000Y301000D01*
X521700Y158700D02*
Y305800D01*
X516980Y153980D02*
X521700Y158700D01*
X515520Y311980D02*
X521700Y305800D01*
X397406Y154303D02*
X400197D01*
X408405Y158595D02*
X411406D01*
X500321Y148990D02*
X515990D01*
X511000Y158000D02*
Y214066D01*
X500321Y143990D02*
X509490D01*
X501311Y213480D02*
X510414D01*
X511000Y214066D02*
Y300000D01*
X509020Y301980D02*
X511000Y300000D01*
X502311Y301980D02*
X509020D01*
X502311Y311980D02*
X515520D01*
X500311Y153980D02*
X516980D01*
X419000Y269760D02*
X427000D01*
X372500Y269500D02*
X383240D01*
X408260Y146240D02*
X421500D01*
X375908Y135433D02*
X381567D01*
X311500Y212500D02*
X315500Y216500D01*
X317500D01*
X316500Y168480D02*
Y201000D01*
X307500Y166480D02*
Y171000D01*
X311500Y175000D01*
Y193077D01*
Y212500D01*
X316500Y201000D02*
Y208000D01*
X381567Y135433D02*
X383067Y133933D01*
Y130000D02*
Y133933D01*
X400197Y154303D02*
X408260Y146240D01*
X411406Y158595D02*
X415500Y154500D01*
M02*
