G04*
G04 #@! TF.GenerationSoftware,Altium Limited,Altium Designer,26.4.1 (12)*
G04*
G04 Layer_Color=16711935*
%FSLAX25Y25*%
%MOIN*%
G70*
G04*
G04 #@! TF.SameCoordinates,2731D81E-BC19-4F9C-8D00-85A1CBF2600A*
G04*
G04*
G04 #@! TF.FilePolarity,Negative*
G04*
G01*
G75*
%ADD16R,0.05315X0.03543*%
%ADD17R,0.05906X0.05118*%
%ADD22R,0.05315X0.16535*%
%ADD23R,0.05118X0.05906*%
%ADD25R,0.06102X0.05118*%
%ADD36O,0.03543X0.07874*%
%ADD37O,0.03543X0.06693*%
%ADD38C,0.03543*%
%ADD39C,0.09409*%
%ADD40C,0.02500*%
%ADD41C,0.02400*%
%ADD44R,0.05000X0.14173*%
%ADD45R,0.04528X0.06890*%
%ADD46R,0.07870X0.04720*%
%ADD47R,0.03150X0.03937*%
%ADD48O,0.05512X0.02362*%
%ADD49R,0.09500X0.13000*%
G04:AMPARAMS|DCode=50|XSize=77.56mil|YSize=23.62mil|CornerRadius=2.95mil|HoleSize=0mil|Usage=FLASHONLY|Rotation=0.000|XOffset=0mil|YOffset=0mil|HoleType=Round|Shape=RoundedRectangle|*
%AMROUNDEDRECTD50*
21,1,0.07756,0.01772,0,0,0.0*
21,1,0.07165,0.02362,0,0,0.0*
1,1,0.00591,0.03583,-0.00886*
1,1,0.00591,-0.03583,-0.00886*
1,1,0.00591,-0.03583,0.00886*
1,1,0.00591,0.03583,0.00886*
%
%ADD50ROUNDEDRECTD50*%
%ADD51R,0.03700X0.06700*%
%ADD52R,0.26000X0.28800*%
%ADD53R,0.04134X0.08661*%
%ADD54R,0.03937X0.04134*%
%ADD55R,0.29370X0.25472*%
%ADD56R,0.03543X0.05315*%
D16*
X242500Y341260D02*
D03*
Y348740D02*
D03*
X240000Y196760D02*
D03*
Y204240D02*
D03*
D17*
X227500Y204000D02*
D03*
Y196520D02*
D03*
X232000Y341500D02*
D03*
Y348980D02*
D03*
D22*
X343378Y363213D02*
D03*
X365622D02*
D03*
X267256Y363500D02*
D03*
X289500D02*
D03*
X438878Y363213D02*
D03*
X461122D02*
D03*
X522256Y363000D02*
D03*
X544500D02*
D03*
D23*
X266480Y208500D02*
D03*
X259000D02*
D03*
X309000Y207500D02*
D03*
X316480D02*
D03*
X316500Y216500D02*
D03*
X309020D02*
D03*
D25*
X215799Y214000D02*
D03*
X184500D02*
D03*
X215799Y196283D02*
D03*
X184500D02*
D03*
X219150Y354858D02*
D03*
X187850D02*
D03*
X219150Y337142D02*
D03*
X187850D02*
D03*
D36*
X375488Y127717D02*
D03*
X409543D02*
D03*
D37*
X375488Y111299D02*
D03*
X409543D02*
D03*
D38*
X186000Y143406D02*
D03*
Y131594D02*
D03*
D39*
X239976Y111004D02*
D03*
D40*
X464500Y203000D02*
D03*
X267500Y280000D02*
D03*
X279500Y274500D02*
D03*
X294500Y300000D02*
D03*
X479500Y285912D02*
D03*
X318500Y300000D02*
D03*
X446500Y286000D02*
D03*
X501311Y238480D02*
D03*
X490000Y214500D02*
D03*
X500311Y168980D02*
D03*
X486000Y145522D02*
D03*
X457500Y179000D02*
D03*
X273500Y285000D02*
D03*
X421500Y146000D02*
D03*
X191000Y240000D02*
D03*
X243500Y279500D02*
D03*
X243000Y274500D02*
D03*
X430500Y154500D02*
D03*
D41*
X518000Y218500D02*
D03*
X502000D02*
D03*
X409500Y168000D02*
D03*
X394500Y165500D02*
D03*
X521700Y223938D02*
D03*
X516000Y149000D02*
D03*
X511000Y158000D02*
D03*
X509750Y144250D02*
D03*
X516000Y159500D02*
D03*
X501500Y223500D02*
D03*
X537181Y142500D02*
D03*
X241079Y240051D02*
D03*
X236079D02*
D03*
X231079D02*
D03*
X409850Y220858D02*
D03*
X367850D02*
D03*
X325850D02*
D03*
X184500Y214000D02*
D03*
X186079Y240051D02*
D03*
X216472Y268595D02*
D03*
X500311Y133783D02*
D03*
X501311Y203284D02*
D03*
X502311Y291783D02*
D03*
X258500Y218500D02*
D03*
X278000Y214500D02*
D03*
X360000Y154000D02*
D03*
X333000Y154520D02*
D03*
X362664Y177164D02*
D03*
X341000Y172500D02*
D03*
X372000Y166000D02*
D03*
X353500Y193500D02*
D03*
X422500Y247000D02*
D03*
X411000D02*
D03*
X388500D02*
D03*
X378000Y247500D02*
D03*
X368500Y247000D02*
D03*
X363500Y246500D02*
D03*
X343500D02*
D03*
X201039Y252539D02*
D03*
X206000Y255000D02*
D03*
X196500Y296500D02*
D03*
X212500Y297000D02*
D03*
X392000Y264000D02*
D03*
X389000Y262000D02*
D03*
X381567Y135433D02*
D03*
X394500Y137500D02*
D03*
X388500Y137000D02*
D03*
X281000Y149500D02*
D03*
X266500Y177000D02*
D03*
X317500Y216500D02*
D03*
X297166Y219500D02*
D03*
X316500Y208000D02*
D03*
X201358Y128642D02*
D03*
X240000Y196500D02*
D03*
X337500Y180500D02*
D03*
X267500Y271000D02*
D03*
X249500D02*
D03*
X372480Y147000D02*
D03*
X266240Y218500D02*
D03*
X297500Y204500D02*
D03*
X278012Y219500D02*
D03*
X191254Y309000D02*
D03*
X227500Y204000D02*
D03*
X184500Y196283D02*
D03*
X196000Y240000D02*
D03*
X251000Y332000D02*
D03*
Y309000D02*
D03*
X241500Y328500D02*
D03*
X246000Y322500D02*
D03*
X226500Y318500D02*
D03*
X221000Y309000D02*
D03*
X502500Y322000D02*
D03*
Y317000D02*
D03*
Y312000D02*
D03*
Y307000D02*
D03*
Y302000D02*
D03*
D44*
X354500Y364000D02*
D03*
X278378Y364287D02*
D03*
X450000Y364000D02*
D03*
X533378Y363787D02*
D03*
D45*
X464217Y203000D02*
D03*
X453784D02*
D03*
X481284Y192000D02*
D03*
X491716D02*
D03*
D46*
X463825D02*
D03*
X452803D02*
D03*
X481478Y203000D02*
D03*
X492500D02*
D03*
D47*
X190331Y151673D02*
D03*
X181669D02*
D03*
Y123327D02*
D03*
X190331D02*
D03*
D48*
X193480Y128642D02*
D03*
Y140453D02*
D03*
Y146358D02*
D03*
D49*
X287756Y212000D02*
D03*
D50*
X297500Y204500D02*
D03*
Y209500D02*
D03*
Y214500D02*
D03*
Y219500D02*
D03*
X278012D02*
D03*
Y214500D02*
D03*
Y209500D02*
D03*
Y204500D02*
D03*
D51*
X464100Y215400D02*
D03*
X481900D02*
D03*
D52*
X473000Y240000D02*
D03*
D53*
X527693Y337850D02*
D03*
X539307D02*
D03*
X444693Y338350D02*
D03*
X456307D02*
D03*
X348886Y337500D02*
D03*
X360500D02*
D03*
X272693Y337850D02*
D03*
X284307D02*
D03*
D54*
X533507Y344150D02*
D03*
X450507Y344650D02*
D03*
X354700Y343800D02*
D03*
X278507Y344150D02*
D03*
D55*
X224819Y142500D02*
D03*
X537181D02*
D03*
D56*
X292240Y230500D02*
D03*
X284760D02*
D03*
X266240Y218500D02*
D03*
X258760D02*
D03*
M02*
