G04*
G04 #@! TF.GenerationSoftware,Altium Limited,Altium Designer,26.4.1 (12)*
G04*
G04 Layer_Physical_Order=2*
G04 Layer_Color=16711680*
%FSLAX25Y25*%
%MOIN*%
G70*
G04*
G04 #@! TF.SameCoordinates,2731D81E-BC19-4F9C-8D00-85A1CBF2600A*
G04*
G04*
G04 #@! TF.FilePolarity,Positive*
G04*
G01*
G75*
%ADD12C,0.00787*%
%ADD14C,0.01000*%
%ADD16R,0.05315X0.03543*%
%ADD17R,0.05906X0.05118*%
%ADD22R,0.05315X0.16535*%
%ADD23R,0.05118X0.05906*%
%ADD25R,0.06102X0.05118*%
%ADD36O,0.03543X0.07874*%
%ADD37O,0.03543X0.06693*%
%ADD38C,0.03543*%
%ADD39C,0.09409*%
%ADD40C,0.02500*%
%ADD41C,0.02400*%
%ADD42C,0.03937*%
%ADD43C,0.01968*%
%ADD44R,0.05000X0.14173*%
%ADD45R,0.04528X0.06890*%
%ADD46R,0.07870X0.04720*%
%ADD47R,0.03150X0.03937*%
%ADD48O,0.05512X0.02362*%
%ADD49R,0.09500X0.13000*%
G04:AMPARAMS|DCode=50|XSize=77.56mil|YSize=23.62mil|CornerRadius=2.95mil|HoleSize=0mil|Usage=FLASHONLY|Rotation=0.000|XOffset=0mil|YOffset=0mil|HoleType=Round|Shape=RoundedRectangle|*
%AMROUNDEDRECTD50*
21,1,0.07756,0.01772,0,0,0.0*
21,1,0.07165,0.02362,0,0,0.0*
1,1,0.00591,0.03583,-0.00886*
1,1,0.00591,-0.03583,-0.00886*
1,1,0.00591,-0.03583,0.00886*
1,1,0.00591,0.03583,0.00886*
%
%ADD50ROUNDEDRECTD50*%
%ADD51R,0.03700X0.06700*%
%ADD52R,0.26000X0.28800*%
%ADD53R,0.04134X0.08661*%
%ADD54R,0.03937X0.04134*%
%ADD55R,0.29370X0.25472*%
%ADD56R,0.03543X0.05315*%
G36*
X576500Y100000D02*
X179500D01*
Y120358D01*
X184244D01*
Y126295D01*
X179500D01*
Y148705D01*
X184244D01*
Y154642D01*
X179500D01*
Y371500D01*
X263598D01*
Y364000D01*
X270913D01*
Y371500D01*
X274878D01*
Y356201D01*
X275384D01*
Y344279D01*
X275463Y343681D01*
X275201Y343276D01*
X275081Y343181D01*
X273193D01*
Y338350D01*
X275760D01*
Y341083D01*
X281240D01*
Y338350D01*
X283807D01*
Y343181D01*
X281476D01*
Y347217D01*
X281372D01*
Y356201D01*
X281878D01*
Y371500D01*
X285842D01*
Y364000D01*
X293158D01*
Y371500D01*
X339721D01*
Y363713D01*
X347035D01*
Y371500D01*
X351000D01*
Y355913D01*
X351506D01*
Y344000D01*
X351594Y343331D01*
X351415Y343023D01*
X351230Y342831D01*
X349386D01*
Y338000D01*
X351953D01*
Y340733D01*
X357433D01*
Y338000D01*
X360000D01*
Y342831D01*
X357668D01*
Y346867D01*
X357494D01*
Y355913D01*
X358000D01*
Y371500D01*
X361965D01*
Y363713D01*
X369280D01*
Y371500D01*
X435220D01*
Y363713D01*
X442535D01*
Y371500D01*
X446500D01*
Y355913D01*
X447513D01*
Y344650D01*
X447539Y344455D01*
Y343681D01*
X445193D01*
Y338850D01*
X447760D01*
Y341583D01*
X453240D01*
Y338850D01*
X455807D01*
Y343681D01*
X453476D01*
Y344455D01*
X453501Y344650D01*
Y363493D01*
X453500Y363502D01*
Y371500D01*
X457465D01*
Y363713D01*
X464780D01*
Y371500D01*
X518598D01*
Y363500D01*
X525913D01*
Y371500D01*
X529878D01*
Y355701D01*
X530384D01*
Y344279D01*
X530463Y343681D01*
X530201Y343276D01*
X530082Y343181D01*
X528193D01*
Y338350D01*
X530760D01*
Y341083D01*
X536240D01*
Y338350D01*
X538807D01*
Y343181D01*
X536476D01*
Y347217D01*
X536372D01*
Y355701D01*
X536878D01*
Y371500D01*
X540842D01*
Y363500D01*
X548158D01*
Y371500D01*
X576500D01*
Y100000D01*
D02*
G37*
%LPC*%
G36*
X223201Y358417D02*
X219650D01*
Y355358D01*
X223201D01*
Y358417D01*
D02*
G37*
G36*
X218650D02*
X215098D01*
Y355358D01*
X218650D01*
Y358417D01*
D02*
G37*
G36*
X191902D02*
X188350D01*
Y355358D01*
X191902D01*
Y358417D01*
D02*
G37*
G36*
X187350D02*
X183799D01*
Y355358D01*
X187350D01*
Y358417D01*
D02*
G37*
G36*
X293158Y363000D02*
X290000D01*
Y354232D01*
X293158D01*
Y363000D01*
D02*
G37*
G36*
X289000D02*
X285842D01*
Y354232D01*
X289000D01*
Y363000D01*
D02*
G37*
G36*
X270913D02*
X267756D01*
Y354232D01*
X270913D01*
Y363000D01*
D02*
G37*
G36*
X266756D02*
X263598D01*
Y354232D01*
X266756D01*
Y363000D01*
D02*
G37*
G36*
X464780Y362713D02*
X461622D01*
Y353945D01*
X464780D01*
Y362713D01*
D02*
G37*
G36*
X460622D02*
X457465D01*
Y353945D01*
X460622D01*
Y362713D01*
D02*
G37*
G36*
X442535D02*
X439378D01*
Y353945D01*
X442535D01*
Y362713D01*
D02*
G37*
G36*
X438378D02*
X435220D01*
Y353945D01*
X438378D01*
Y362713D01*
D02*
G37*
G36*
X369280D02*
X366122D01*
Y353945D01*
X369280D01*
Y362713D01*
D02*
G37*
G36*
X365122D02*
X361965D01*
Y353945D01*
X365122D01*
Y362713D01*
D02*
G37*
G36*
X347035D02*
X343878D01*
Y353945D01*
X347035D01*
Y362713D01*
D02*
G37*
G36*
X342878D02*
X339721D01*
Y353945D01*
X342878D01*
Y362713D01*
D02*
G37*
G36*
X548158Y362500D02*
X545000D01*
Y353732D01*
X548158D01*
Y362500D01*
D02*
G37*
G36*
X544000D02*
X540842D01*
Y353732D01*
X544000D01*
Y362500D01*
D02*
G37*
G36*
X525913D02*
X522756D01*
Y353732D01*
X525913D01*
Y362500D01*
D02*
G37*
G36*
X521756D02*
X518598D01*
Y353732D01*
X521756D01*
Y362500D01*
D02*
G37*
G36*
X223201Y354358D02*
X219650D01*
Y351299D01*
X223201D01*
Y354358D01*
D02*
G37*
G36*
X218650D02*
X215098D01*
Y351299D01*
X218650D01*
Y354358D01*
D02*
G37*
G36*
X191902D02*
X188350D01*
Y351299D01*
X191902D01*
Y354358D01*
D02*
G37*
G36*
X187350D02*
X183799D01*
Y351299D01*
X187350D01*
Y354358D01*
D02*
G37*
G36*
X246158Y351512D02*
X243000D01*
Y349240D01*
X246158D01*
Y351512D01*
D02*
G37*
G36*
X242000D02*
X238843D01*
Y349240D01*
X242000D01*
Y351512D01*
D02*
G37*
G36*
X246158Y348240D02*
X243000D01*
Y345969D01*
X246158D01*
Y348240D01*
D02*
G37*
G36*
X242000D02*
X238843D01*
Y345969D01*
X242000D01*
Y348240D01*
D02*
G37*
G36*
X459374Y343681D02*
X456807D01*
Y338850D01*
X459374D01*
Y343681D01*
D02*
G37*
G36*
X444193D02*
X441626D01*
Y338850D01*
X444193D01*
Y343681D01*
D02*
G37*
G36*
X542374Y343181D02*
X539807D01*
Y338350D01*
X542374D01*
Y343181D01*
D02*
G37*
G36*
X527193D02*
X524626D01*
Y338350D01*
X527193D01*
Y343181D01*
D02*
G37*
G36*
X287374D02*
X284807D01*
Y338350D01*
X287374D01*
Y343181D01*
D02*
G37*
G36*
X272193D02*
X269626D01*
Y338350D01*
X272193D01*
Y343181D01*
D02*
G37*
G36*
X363567Y342831D02*
X361000D01*
Y338000D01*
X363567D01*
Y342831D01*
D02*
G37*
G36*
X348386D02*
X345819D01*
Y338000D01*
X348386D01*
Y342831D01*
D02*
G37*
G36*
X459374Y337850D02*
X456807D01*
Y333019D01*
X459374D01*
Y337850D01*
D02*
G37*
G36*
X455807D02*
X453240D01*
Y333019D01*
X455807D01*
Y337850D01*
D02*
G37*
G36*
X447760D02*
X445193D01*
Y333019D01*
X447760D01*
Y337850D01*
D02*
G37*
G36*
X444193D02*
X441626D01*
Y333019D01*
X444193D01*
Y337850D01*
D02*
G37*
G36*
X542374Y337350D02*
X539807D01*
Y332519D01*
X542374D01*
Y337350D01*
D02*
G37*
G36*
X538807D02*
X536240D01*
Y332519D01*
X538807D01*
Y337350D01*
D02*
G37*
G36*
X530760D02*
X528193D01*
Y332519D01*
X530760D01*
Y337350D01*
D02*
G37*
G36*
X527193D02*
X524626D01*
Y332519D01*
X527193D01*
Y337350D01*
D02*
G37*
G36*
X287374D02*
X284807D01*
Y332519D01*
X287374D01*
Y337350D01*
D02*
G37*
G36*
X283807D02*
X281240D01*
Y332519D01*
X283807D01*
Y337350D01*
D02*
G37*
G36*
X275760D02*
X273193D01*
Y332519D01*
X275760D01*
Y337350D01*
D02*
G37*
G36*
X272193D02*
X269626D01*
Y332519D01*
X272193D01*
Y337350D01*
D02*
G37*
G36*
X363567Y337000D02*
X361000D01*
Y332169D01*
X363567D01*
Y337000D01*
D02*
G37*
G36*
X360000D02*
X357433D01*
Y332169D01*
X360000D01*
Y337000D01*
D02*
G37*
G36*
X351953D02*
X349386D01*
Y332169D01*
X351953D01*
Y337000D01*
D02*
G37*
G36*
X348386D02*
X345819D01*
Y332169D01*
X348386D01*
Y337000D01*
D02*
G37*
G36*
X248500Y357029D02*
X234000D01*
X233415Y356913D01*
X232919Y356581D01*
X230919Y354581D01*
X230587Y354085D01*
X230471Y353500D01*
Y352539D01*
X228047D01*
Y350529D01*
X220299D01*
X219714Y350413D01*
X219218Y350081D01*
X218068Y348932D01*
X217737Y348436D01*
X217620Y347850D01*
Y340701D01*
X215098D01*
Y338671D01*
X191902D01*
Y340701D01*
X183799D01*
Y333583D01*
X191902D01*
Y335612D01*
X215098D01*
Y333583D01*
X223201D01*
Y340701D01*
X220679D01*
Y347217D01*
X220933Y347471D01*
X228047D01*
Y345559D01*
X228047Y345421D01*
Y345059D01*
X228047Y344921D01*
Y337941D01*
X229006D01*
Y334740D01*
X225760Y331494D01*
X196500D01*
X195725Y331392D01*
X195302Y331217D01*
X195003Y331093D01*
X194383Y330617D01*
X184969Y321203D01*
X184493Y320583D01*
X184194Y319861D01*
X184092Y319086D01*
Y285000D01*
Y263914D01*
X184194Y263139D01*
X184493Y262417D01*
X184969Y261797D01*
X188006Y258760D01*
Y241942D01*
X187506Y241735D01*
X187325Y241916D01*
X186579Y242225D01*
Y240051D01*
Y237877D01*
X187325Y238186D01*
X187944Y238805D01*
X188073Y239117D01*
X188645Y239192D01*
X188883Y238883D01*
X189108Y238710D01*
X189725Y238092D01*
X190552Y237750D01*
X191448D01*
X192274Y238092D01*
X192506Y238324D01*
X193006Y238117D01*
Y215740D01*
X189013Y211747D01*
X188551Y211939D01*
Y213500D01*
X185000D01*
Y210441D01*
X187053D01*
X187245Y209979D01*
X183697Y206432D01*
X182383Y205117D01*
X181907Y204497D01*
X181608Y203775D01*
X181506Y203000D01*
Y199843D01*
X180449D01*
Y192724D01*
X188551D01*
Y193289D01*
X211748D01*
Y192724D01*
X219850D01*
Y193289D01*
X223547D01*
Y192961D01*
X231453D01*
Y193526D01*
X238740D01*
X250883Y181383D01*
X251503Y180907D01*
X252225Y180608D01*
X253000Y180506D01*
X282800D01*
X284923Y178383D01*
X285543Y177907D01*
X285842Y177783D01*
X286265Y177608D01*
X287040Y177506D01*
X337500D01*
X338275Y177608D01*
X338997Y177907D01*
X339617Y178383D01*
X340093Y179003D01*
X340392Y179725D01*
X340494Y180500D01*
X340392Y181275D01*
X340093Y181997D01*
X339617Y182617D01*
X338997Y183093D01*
X338275Y183392D01*
X337500Y183494D01*
X288280D01*
X286157Y185617D01*
X285537Y186093D01*
X284815Y186392D01*
X284040Y186494D01*
X254240D01*
X243657Y197077D01*
Y199531D01*
X236343D01*
Y199514D01*
X231806D01*
X231453Y199867D01*
Y200441D01*
X231453Y200579D01*
Y207559D01*
X223547D01*
Y200579D01*
X223547Y200441D01*
Y200079D01*
X223547Y199941D01*
Y199278D01*
X219850D01*
Y199843D01*
X211748D01*
Y199278D01*
X188551D01*
Y199843D01*
X187494D01*
Y201760D01*
X187932Y202197D01*
X198117Y212383D01*
X198593Y213003D01*
X198892Y213725D01*
X198994Y214500D01*
Y240000D01*
X198892Y240775D01*
X198593Y241497D01*
X198117Y242117D01*
X197497Y242593D01*
X196775Y242892D01*
X196000Y242994D01*
X195225Y242892D01*
X194503Y242593D01*
X194443Y242547D01*
X193994Y242768D01*
Y260000D01*
X193892Y260775D01*
X193593Y261497D01*
X193117Y262117D01*
X190080Y265154D01*
Y282006D01*
X242364D01*
X242463Y281506D01*
X242226Y281407D01*
X241593Y280774D01*
X241250Y279948D01*
Y279052D01*
X241593Y278225D01*
X242226Y277592D01*
X243052Y277250D01*
X243948D01*
X244775Y277592D01*
X245153Y277971D01*
X266520D01*
X267052Y277750D01*
X267948D01*
X268775Y278093D01*
X269408Y278726D01*
X269750Y279552D01*
Y280448D01*
X269408Y281275D01*
X269176Y281506D01*
X269383Y282006D01*
X273500D01*
X274275Y282108D01*
X274997Y282407D01*
X275617Y282883D01*
X276093Y283503D01*
X276392Y284225D01*
X276494Y285000D01*
X276392Y285775D01*
X276093Y286497D01*
X275617Y287117D01*
X274997Y287593D01*
X274275Y287892D01*
X273500Y287994D01*
X190080D01*
Y306655D01*
X190496Y306933D01*
X190817Y306800D01*
X191692D01*
X192500Y307135D01*
X193119Y307754D01*
X193454Y308562D01*
Y309438D01*
X193119Y310246D01*
X192784Y310582D01*
Y313121D01*
X192933Y313271D01*
X258067D01*
X265419Y305919D01*
X265915Y305587D01*
X266205Y305529D01*
X266155Y305029D01*
X222634D01*
X222529Y305134D01*
Y307418D01*
X222865Y307754D01*
X223200Y308562D01*
Y309438D01*
X222865Y310246D01*
X222246Y310865D01*
X221438Y311200D01*
X220562D01*
X219754Y310865D01*
X219135Y310246D01*
X218800Y309438D01*
Y308562D01*
X219135Y307754D01*
X219471Y307418D01*
Y304500D01*
X219587Y303915D01*
X219919Y303419D01*
X220919Y302419D01*
X221415Y302087D01*
X222000Y301971D01*
X292582D01*
X292789Y301471D01*
X292593Y301274D01*
X292250Y300448D01*
Y299552D01*
X292467Y299029D01*
X292135Y298529D01*
X214082D01*
X213746Y298865D01*
X212938Y299200D01*
X212062D01*
X211254Y298865D01*
X210635Y298246D01*
X210300Y297438D01*
Y296562D01*
X210635Y295754D01*
X211254Y295135D01*
X211509Y295029D01*
X211409Y294529D01*
X200634D01*
X198700Y296463D01*
Y296938D01*
X198365Y297746D01*
X197746Y298365D01*
X196938Y298700D01*
X196062D01*
X195254Y298365D01*
X194635Y297746D01*
X194300Y296938D01*
Y296062D01*
X194635Y295254D01*
X195254Y294635D01*
X196062Y294300D01*
X196537D01*
X198919Y291919D01*
X199415Y291587D01*
X200000Y291471D01*
X357366D01*
X386800Y262037D01*
Y261562D01*
X387135Y260754D01*
X387754Y260135D01*
X388562Y259800D01*
X389438D01*
X390246Y260135D01*
X390865Y260754D01*
X391146Y261431D01*
X391562Y261800D01*
X392438D01*
X393246Y262135D01*
X393865Y262754D01*
X394200Y263562D01*
Y264438D01*
X393865Y265246D01*
X393246Y265865D01*
X392438Y266200D01*
X391963D01*
X360081Y298081D01*
X359585Y298413D01*
X359000Y298529D01*
X320865D01*
X320533Y299029D01*
X320750Y299552D01*
Y300448D01*
X320408Y301274D01*
X320211Y301471D01*
X320419Y301971D01*
X327366D01*
X328419Y300919D01*
X328915Y300587D01*
X329500Y300471D01*
X500918D01*
X501254Y300135D01*
X502062Y299800D01*
X502938D01*
X503746Y300135D01*
X504365Y300754D01*
X504700Y301562D01*
Y302438D01*
X504365Y303246D01*
X503746Y303865D01*
X502938Y304200D01*
X502062D01*
X501254Y303865D01*
X500918Y303529D01*
X330134D01*
X329081Y304581D01*
X328585Y304913D01*
X328295Y304971D01*
X328345Y305471D01*
X500918D01*
X501254Y305135D01*
X502062Y304800D01*
X502938D01*
X503746Y305135D01*
X504365Y305754D01*
X504700Y306562D01*
Y307438D01*
X504365Y308246D01*
X503746Y308865D01*
X502938Y309200D01*
X502062D01*
X501254Y308865D01*
X500918Y308529D01*
X267133D01*
X259781Y315881D01*
X259285Y316213D01*
X258700Y316329D01*
X228596D01*
X228329Y316829D01*
X228423Y316971D01*
X263866D01*
X269919Y310919D01*
X270415Y310587D01*
X271000Y310471D01*
X500918D01*
X501254Y310135D01*
X502062Y309800D01*
X502938D01*
X503746Y310135D01*
X504365Y310754D01*
X504700Y311562D01*
Y312438D01*
X504365Y313246D01*
X503746Y313865D01*
X502938Y314200D01*
X502062D01*
X501254Y313865D01*
X500918Y313529D01*
X271634D01*
X265581Y319581D01*
X265085Y319913D01*
X264500Y320029D01*
X247091D01*
X246991Y320529D01*
X247246Y320635D01*
X247582Y320971D01*
X265866D01*
X270919Y315919D01*
X271415Y315587D01*
X272000Y315471D01*
X500918D01*
X501254Y315135D01*
X502062Y314800D01*
X502938D01*
X503746Y315135D01*
X504365Y315754D01*
X504700Y316562D01*
Y317438D01*
X504365Y318246D01*
X503746Y318865D01*
X502938Y319200D01*
X502062D01*
X501254Y318865D01*
X500918Y318529D01*
X272634D01*
X267581Y323581D01*
X267085Y323913D01*
X266500Y324029D01*
X247582D01*
X247246Y324365D01*
X246438Y324700D01*
X245562D01*
X244754Y324365D01*
X244135Y323746D01*
X243800Y322938D01*
Y322062D01*
X244135Y321254D01*
X244754Y320635D01*
X245009Y320529D01*
X244909Y320029D01*
X228082D01*
X227746Y320365D01*
X226938Y320700D01*
X226062D01*
X225254Y320365D01*
X224635Y319746D01*
X224300Y318938D01*
Y318062D01*
X224635Y317254D01*
X225059Y316829D01*
X224852Y316329D01*
X192300D01*
X191715Y316213D01*
X191219Y315881D01*
X190580Y315243D01*
X190080Y315450D01*
Y317846D01*
X197740Y325506D01*
X227000D01*
X227775Y325608D01*
X228497Y325907D01*
X229117Y326383D01*
X234117Y331383D01*
X234593Y332003D01*
X234892Y332725D01*
X234994Y333500D01*
Y337941D01*
X235953D01*
Y339237D01*
X238843D01*
Y338488D01*
X246158D01*
Y344032D01*
X238843D01*
Y343283D01*
X235953D01*
Y344921D01*
X235953Y345059D01*
Y345421D01*
X235953Y345559D01*
Y352539D01*
X233909D01*
X233702Y353039D01*
X234633Y353971D01*
X247867D01*
X249471Y352366D01*
Y333582D01*
X249135Y333246D01*
X248800Y332438D01*
Y331562D01*
X249135Y330754D01*
X249359Y330529D01*
X249152Y330029D01*
X243082D01*
X242746Y330365D01*
X241938Y330700D01*
X241062D01*
X240254Y330365D01*
X239635Y329746D01*
X239300Y328938D01*
Y328062D01*
X239635Y327254D01*
X240254Y326635D01*
X241062Y326300D01*
X241938D01*
X242746Y326635D01*
X243082Y326971D01*
X266866D01*
X272919Y320919D01*
X273415Y320587D01*
X274000Y320471D01*
X500918D01*
X501254Y320135D01*
X502062Y319800D01*
X502938D01*
X503746Y320135D01*
X504365Y320754D01*
X504700Y321562D01*
Y322438D01*
X504365Y323246D01*
X503746Y323865D01*
X502938Y324200D01*
X502062D01*
X501254Y323865D01*
X500918Y323529D01*
X274634D01*
X268581Y329581D01*
X268085Y329913D01*
X267500Y330029D01*
X252848D01*
X252641Y330529D01*
X252865Y330754D01*
X253200Y331562D01*
Y332438D01*
X252865Y333246D01*
X252529Y333582D01*
Y353000D01*
X252413Y353585D01*
X252081Y354081D01*
X249581Y356581D01*
X249085Y356913D01*
X248500Y357029D01*
D02*
G37*
G36*
X251438Y311200D02*
X250562D01*
X249754Y310865D01*
X249135Y310246D01*
X248800Y309438D01*
Y308562D01*
X249135Y307754D01*
X249754Y307135D01*
X250562Y306800D01*
X251438D01*
X252246Y307135D01*
X252865Y307754D01*
X253200Y308562D01*
Y309438D01*
X252865Y310246D01*
X252246Y310865D01*
X251438Y311200D01*
D02*
G37*
G36*
X502811Y293958D02*
Y292284D01*
X504485D01*
X504176Y293030D01*
X503557Y293649D01*
X502811Y293958D01*
D02*
G37*
G36*
X501811D02*
X501065Y293649D01*
X500446Y293030D01*
X500137Y292284D01*
X501811D01*
Y293958D01*
D02*
G37*
G36*
X504485Y291283D02*
X502811D01*
Y289609D01*
X503557Y289918D01*
X504176Y290537D01*
X504485Y291283D01*
D02*
G37*
G36*
X501811D02*
X500137D01*
X500446Y290537D01*
X501065Y289918D01*
X501811Y289609D01*
Y291283D01*
D02*
G37*
G36*
X479070Y289564D02*
X478295Y289462D01*
X477572Y289162D01*
X477353Y288994D01*
X446500D01*
X445725Y288892D01*
X445003Y288593D01*
X444383Y288117D01*
X443907Y287497D01*
X443608Y286775D01*
X443506Y286000D01*
X443608Y285225D01*
X443907Y284503D01*
X444383Y283883D01*
X445003Y283407D01*
X445725Y283108D01*
X446500Y283006D01*
X478500D01*
X479275Y283108D01*
X479997Y283407D01*
X480617Y283883D01*
X480714Y283979D01*
X480774Y284004D01*
X481407Y284637D01*
X481500Y284860D01*
X481663Y285072D01*
X481962Y285795D01*
X482064Y286569D01*
X481962Y287344D01*
X481663Y288067D01*
X481187Y288687D01*
X480567Y289162D01*
X479844Y289462D01*
X479070Y289564D01*
D02*
G37*
G36*
X279948Y276750D02*
X279052D01*
X278225Y276408D01*
X277847Y276029D01*
X244653D01*
X244274Y276408D01*
X243448Y276750D01*
X242552D01*
X241725Y276408D01*
X241092Y275775D01*
X240750Y274948D01*
Y274052D01*
X241092Y273225D01*
X241725Y272592D01*
X242552Y272250D01*
X243448D01*
X244274Y272592D01*
X244653Y272971D01*
X247652D01*
X247859Y272471D01*
X247635Y272246D01*
X247300Y271438D01*
Y270562D01*
X247635Y269754D01*
X248254Y269135D01*
X249062Y268800D01*
X249938D01*
X250746Y269135D01*
X251082Y269471D01*
X265918D01*
X266254Y269135D01*
X267062Y268800D01*
X267938D01*
X268746Y269135D01*
X269365Y269754D01*
X269700Y270562D01*
Y271438D01*
X269365Y272246D01*
X269141Y272471D01*
X269348Y272971D01*
X277847D01*
X278225Y272592D01*
X279052Y272250D01*
X279948D01*
X280774Y272592D01*
X281407Y273225D01*
X281750Y274052D01*
Y274948D01*
X281407Y275775D01*
X280774Y276408D01*
X279948Y276750D01*
D02*
G37*
G36*
X216972Y270769D02*
Y269094D01*
X218647D01*
X218337Y269841D01*
X217719Y270460D01*
X216972Y270769D01*
D02*
G37*
G36*
X215972D02*
X215226Y270460D01*
X214607Y269841D01*
X214298Y269094D01*
X215972D01*
Y270769D01*
D02*
G37*
G36*
X218647Y268094D02*
X216972D01*
Y266420D01*
X217719Y266729D01*
X218337Y267348D01*
X218647Y268094D01*
D02*
G37*
G36*
X215972D02*
X214298D01*
X214607Y267348D01*
X215226Y266729D01*
X215972Y266420D01*
Y268094D01*
D02*
G37*
G36*
X378500Y249674D02*
Y248000D01*
X380174D01*
X379865Y248746D01*
X379246Y249365D01*
X378500Y249674D01*
D02*
G37*
G36*
X377500D02*
X376754Y249365D01*
X376135Y248746D01*
X375826Y248000D01*
X377500D01*
Y249674D01*
D02*
G37*
G36*
X423000Y249174D02*
Y247500D01*
X424674D01*
X424365Y248246D01*
X423746Y248865D01*
X423000Y249174D01*
D02*
G37*
G36*
X422000D02*
X421254Y248865D01*
X420635Y248246D01*
X420326Y247500D01*
X422000D01*
Y249174D01*
D02*
G37*
G36*
X411500D02*
Y247500D01*
X413174D01*
X412865Y248246D01*
X412246Y248865D01*
X411500Y249174D01*
D02*
G37*
G36*
X410500D02*
X409754Y248865D01*
X409135Y248246D01*
X408826Y247500D01*
X410500D01*
Y249174D01*
D02*
G37*
G36*
X389000D02*
Y247500D01*
X390674D01*
X390365Y248246D01*
X389746Y248865D01*
X389000Y249174D01*
D02*
G37*
G36*
X388000D02*
X387254Y248865D01*
X386635Y248246D01*
X386326Y247500D01*
X388000D01*
Y249174D01*
D02*
G37*
G36*
X369000D02*
Y247500D01*
X370674D01*
X370365Y248246D01*
X369746Y248865D01*
X369000Y249174D01*
D02*
G37*
G36*
X368000D02*
X367254Y248865D01*
X366635Y248246D01*
X366326Y247500D01*
X368000D01*
Y249174D01*
D02*
G37*
G36*
X364000Y248674D02*
Y247000D01*
X365674D01*
X365365Y247746D01*
X364746Y248365D01*
X364000Y248674D01*
D02*
G37*
G36*
X363000D02*
X362254Y248365D01*
X361635Y247746D01*
X361326Y247000D01*
X363000D01*
Y248674D01*
D02*
G37*
G36*
X344000D02*
Y247000D01*
X345674D01*
X345365Y247746D01*
X344746Y248365D01*
X344000Y248674D01*
D02*
G37*
G36*
X343000D02*
X342254Y248365D01*
X341635Y247746D01*
X341326Y247000D01*
X343000D01*
Y248674D01*
D02*
G37*
G36*
X380174Y247000D02*
X378500D01*
Y245326D01*
X379246Y245635D01*
X379865Y246254D01*
X380174Y247000D01*
D02*
G37*
G36*
X377500D02*
X375826D01*
X376135Y246254D01*
X376754Y245635D01*
X377500Y245326D01*
Y247000D01*
D02*
G37*
G36*
X424674Y246500D02*
X423000D01*
Y244826D01*
X423746Y245135D01*
X424365Y245754D01*
X424674Y246500D01*
D02*
G37*
G36*
X422000D02*
X420326D01*
X420635Y245754D01*
X421254Y245135D01*
X422000Y244826D01*
Y246500D01*
D02*
G37*
G36*
X413174D02*
X411500D01*
Y244826D01*
X412246Y245135D01*
X412865Y245754D01*
X413174Y246500D01*
D02*
G37*
G36*
X410500D02*
X408826D01*
X409135Y245754D01*
X409754Y245135D01*
X410500Y244826D01*
Y246500D01*
D02*
G37*
G36*
X390674D02*
X389000D01*
Y244826D01*
X389746Y245135D01*
X390365Y245754D01*
X390674Y246500D01*
D02*
G37*
G36*
X388000D02*
X386326D01*
X386635Y245754D01*
X387254Y245135D01*
X388000Y244826D01*
Y246500D01*
D02*
G37*
G36*
X370674D02*
X369000D01*
Y244826D01*
X369746Y245135D01*
X370365Y245754D01*
X370674Y246500D01*
D02*
G37*
G36*
X368000D02*
X366326D01*
X366635Y245754D01*
X367254Y245135D01*
X368000Y244826D01*
Y246500D01*
D02*
G37*
G36*
X365674Y246000D02*
X364000D01*
Y244326D01*
X364746Y244635D01*
X365365Y245254D01*
X365674Y246000D01*
D02*
G37*
G36*
X363000D02*
X361326D01*
X361635Y245254D01*
X362254Y244635D01*
X363000Y244326D01*
Y246000D01*
D02*
G37*
G36*
X345674D02*
X344000D01*
Y244326D01*
X344746Y244635D01*
X345365Y245254D01*
X345674Y246000D01*
D02*
G37*
G36*
X343000D02*
X341326D01*
X341635Y245254D01*
X342254Y244635D01*
X343000Y244326D01*
Y246000D01*
D02*
G37*
G36*
X185579Y242225D02*
X184833Y241916D01*
X184214Y241297D01*
X183905Y240551D01*
X185579D01*
Y242225D01*
D02*
G37*
G36*
X487000Y255400D02*
X473500D01*
Y240500D01*
X487000D01*
Y255400D01*
D02*
G37*
G36*
X472500D02*
X459000D01*
Y240500D01*
X472500D01*
Y255400D01*
D02*
G37*
G36*
X329000Y252029D02*
X237500D01*
X236915Y251913D01*
X236419Y251581D01*
X229997Y245160D01*
X229666Y244664D01*
X229549Y244079D01*
Y241633D01*
X229214Y241297D01*
X228879Y240489D01*
Y239614D01*
X229214Y238805D01*
X229833Y238186D01*
X230641Y237851D01*
X231516D01*
X232325Y238186D01*
X232944Y238805D01*
X233279Y239614D01*
Y240489D01*
X232944Y241297D01*
X232608Y241633D01*
Y243445D01*
X238134Y248971D01*
X328366D01*
X338808Y238529D01*
X338671Y238092D01*
X338623Y238029D01*
X337633D01*
X328081Y247581D01*
X327585Y247913D01*
X327000Y248029D01*
X239000D01*
X238415Y247913D01*
X237919Y247581D01*
X234997Y244660D01*
X234666Y244164D01*
X234549Y243579D01*
Y241633D01*
X234214Y241297D01*
X233879Y240489D01*
Y239614D01*
X234214Y238805D01*
X234833Y238186D01*
X235641Y237851D01*
X236516D01*
X237325Y238186D01*
X237944Y238805D01*
X238279Y239614D01*
Y240489D01*
X237944Y241297D01*
X237608Y241633D01*
Y242945D01*
X239633Y244971D01*
X240154D01*
X240346Y244509D01*
X239997Y244160D01*
X239666Y243664D01*
X239549Y243079D01*
Y241633D01*
X239214Y241297D01*
X238879Y240489D01*
Y239614D01*
X239214Y238805D01*
X239832Y238186D01*
X240641Y237851D01*
X241516D01*
X242325Y238186D01*
X242944Y238805D01*
X243279Y239614D01*
Y240489D01*
X242944Y241297D01*
X242608Y241633D01*
Y242445D01*
X242634Y242471D01*
X324321D01*
Y222440D01*
X323985Y222105D01*
X323650Y221296D01*
Y220421D01*
X323985Y219612D01*
X324604Y218993D01*
X325413Y218658D01*
X326288D01*
X327097Y218993D01*
X327715Y219612D01*
X328050Y220421D01*
Y221296D01*
X327715Y222105D01*
X327380Y222440D01*
Y243150D01*
X327355Y243275D01*
X327816Y243521D01*
X335919Y235419D01*
X336415Y235087D01*
X337000Y234971D01*
X361866D01*
X366321Y230516D01*
Y222440D01*
X365985Y222105D01*
X365650Y221296D01*
Y220421D01*
X365985Y219612D01*
X366604Y218993D01*
X367413Y218658D01*
X368288D01*
X369097Y218993D01*
X369715Y219612D01*
X370050Y220421D01*
Y221296D01*
X369715Y222105D01*
X369380Y222440D01*
Y231150D01*
X369263Y231735D01*
X368932Y232231D01*
X363692Y237471D01*
X363829Y237908D01*
X363877Y237971D01*
X402867D01*
X408471Y232366D01*
Y222590D01*
X407985Y222105D01*
X407650Y221296D01*
Y220421D01*
X407985Y219612D01*
X408604Y218993D01*
X409413Y218658D01*
X410288D01*
X411097Y218993D01*
X411716Y219612D01*
X412050Y220421D01*
Y221296D01*
X411716Y222105D01*
X411529Y222290D01*
Y233000D01*
X411413Y233585D01*
X411081Y234081D01*
X404581Y240581D01*
X404085Y240913D01*
X403500Y241029D01*
X340634D01*
X330081Y251581D01*
X329585Y251913D01*
X329000Y252029D01*
D02*
G37*
G36*
X185579Y239551D02*
X183905D01*
X184214Y238805D01*
X184833Y238186D01*
X185579Y237877D01*
Y239551D01*
D02*
G37*
G36*
X287531Y234157D02*
X285260D01*
Y231000D01*
X287531D01*
Y234157D01*
D02*
G37*
G36*
X284260D02*
X281988D01*
Y231000D01*
X284260D01*
Y234157D01*
D02*
G37*
G36*
X287531Y230000D02*
X285260D01*
Y226842D01*
X287531D01*
Y230000D01*
D02*
G37*
G36*
X284260D02*
X281988D01*
Y226842D01*
X284260D01*
Y230000D01*
D02*
G37*
G36*
X522138Y226138D02*
X521262D01*
X520454Y225803D01*
X520174Y225523D01*
X502365D01*
X501938Y225700D01*
X501062D01*
X500254Y225365D01*
X499635Y224746D01*
X499300Y223938D01*
Y223062D01*
X499635Y222254D01*
X500254Y221635D01*
X501062Y221300D01*
X501938D01*
X502365Y221477D01*
X521146D01*
X521920Y221631D01*
X522080Y221738D01*
X522138D01*
X522946Y222073D01*
X523565Y222691D01*
X523900Y223500D01*
Y224375D01*
X523565Y225184D01*
X522946Y225803D01*
X522138Y226138D01*
D02*
G37*
G36*
X487000Y239500D02*
X473500D01*
Y224600D01*
X487000D01*
Y239500D01*
D02*
G37*
G36*
X472500D02*
X459000D01*
Y224600D01*
X472500D01*
Y239500D01*
D02*
G37*
G36*
X518438Y220700D02*
X517562D01*
X517135Y220523D01*
X502865D01*
X502438Y220700D01*
X501562D01*
X500754Y220365D01*
X500135Y219746D01*
X499800Y218938D01*
Y218062D01*
X500135Y217254D01*
X500754Y216635D01*
X501562Y216300D01*
X502438D01*
X502865Y216477D01*
X517135D01*
X517562Y216300D01*
X518438D01*
X519246Y216635D01*
X519865Y217254D01*
X520200Y218062D01*
Y218938D01*
X519865Y219746D01*
X519246Y220365D01*
X518438Y220700D01*
D02*
G37*
G36*
X295012Y234157D02*
X289469D01*
Y226842D01*
X293923D01*
X294172Y226594D01*
Y221707D01*
X293917D01*
X293412Y221606D01*
X292984Y221320D01*
X292697Y220891D01*
X292597Y220386D01*
Y219500D01*
X282915D01*
Y220386D01*
X282815Y220891D01*
X282528Y221320D01*
X282100Y221606D01*
X281594Y221707D01*
X274429D01*
X273924Y221606D01*
X273495Y221320D01*
X273209Y220891D01*
X273109Y220386D01*
Y218614D01*
X273209Y218109D01*
X273495Y217680D01*
X273924Y217394D01*
X274429Y217294D01*
X281512D01*
X281591Y217054D01*
X281242Y216706D01*
X278512D01*
Y214500D01*
Y212294D01*
X281512D01*
X281591Y212054D01*
X281242Y211706D01*
X274429D01*
X273924Y211606D01*
X273495Y211320D01*
X273271Y210984D01*
X272915Y210913D01*
X272419Y210581D01*
X271866Y210029D01*
X270039D01*
Y212453D01*
X263059D01*
X262921Y212453D01*
X262559D01*
X262421Y212453D01*
X259500D01*
Y208500D01*
Y204547D01*
X262421D01*
X262559Y204547D01*
X262921D01*
X263059Y204547D01*
X270039D01*
Y206971D01*
X272500D01*
X273085Y207087D01*
X273581Y207419D01*
X273704Y207541D01*
X273924Y207394D01*
X274429Y207294D01*
X281512D01*
X281591Y207054D01*
X281242Y206707D01*
X274429D01*
X273924Y206606D01*
X273495Y206320D01*
X273209Y205891D01*
X273109Y205386D01*
Y203614D01*
X273209Y203109D01*
X273495Y202680D01*
X273924Y202394D01*
X274429Y202293D01*
X281594D01*
X282100Y202394D01*
X282528Y202680D01*
X282815Y203109D01*
X282915Y203614D01*
Y204500D01*
X292597D01*
Y203614D01*
X292697Y203109D01*
X292984Y202680D01*
X293412Y202394D01*
X293917Y202293D01*
X301083D01*
X301588Y202394D01*
X302016Y202680D01*
X302303Y203109D01*
X302403Y203614D01*
Y205386D01*
X302303Y205891D01*
X302016Y206320D01*
X301588Y206606D01*
X301083Y206707D01*
X294000D01*
X293921Y206946D01*
X294270Y207294D01*
X301083D01*
X301588Y207394D01*
X301682Y207457D01*
X303069Y206069D01*
X303726Y205631D01*
X304500Y205477D01*
X305441D01*
Y203547D01*
X312421D01*
X312559Y203547D01*
X312921D01*
X313059Y203547D01*
X320039D01*
Y211453D01*
X313059D01*
X312921Y211453D01*
X312559D01*
X312421Y211453D01*
X305441D01*
Y210127D01*
X304941Y209920D01*
X303931Y210931D01*
X303274Y211369D01*
X302500Y211523D01*
X301712D01*
X301588Y211606D01*
X301083Y211706D01*
X294000D01*
X293921Y211946D01*
X294270Y212294D01*
X301083D01*
X301588Y212394D01*
X301712Y212477D01*
X302500D01*
X303274Y212631D01*
X303931Y213069D01*
X304961Y214100D01*
X305461Y213892D01*
Y212547D01*
X312441D01*
X312579Y212547D01*
X312941D01*
X313079Y212547D01*
X320059D01*
Y220453D01*
X313079D01*
X312941Y220453D01*
X312579D01*
X312441Y220453D01*
X305461D01*
Y218523D01*
X304500D01*
X303726Y218369D01*
X303069Y217931D01*
X301682Y216543D01*
X301588Y216606D01*
X301083Y216706D01*
X299746D01*
X299489Y217207D01*
X299552Y217294D01*
X301083D01*
X301588Y217394D01*
X302016Y217680D01*
X302303Y218109D01*
X302403Y218614D01*
Y220386D01*
X302303Y220891D01*
X302016Y221320D01*
X301588Y221606D01*
X301083Y221707D01*
X300160D01*
Y227834D01*
X300058Y228609D01*
X299883Y229032D01*
X299759Y229331D01*
X299283Y229951D01*
X297043Y232191D01*
X296423Y232667D01*
X295701Y232966D01*
X295012Y233057D01*
Y234157D01*
D02*
G37*
G36*
X261531Y222158D02*
X259260D01*
Y219000D01*
X261531D01*
Y222158D01*
D02*
G37*
G36*
X258260D02*
X255988D01*
Y219000D01*
X258260D01*
Y222158D01*
D02*
G37*
G36*
X277512Y216706D02*
X274429D01*
X273924Y216606D01*
X273495Y216320D01*
X273209Y215891D01*
X273109Y215386D01*
Y215000D01*
X277512D01*
Y216706D01*
D02*
G37*
G36*
X269012Y222158D02*
X263469D01*
Y214843D01*
X269012D01*
Y222158D01*
D02*
G37*
G36*
X261531Y218000D02*
X259260D01*
Y214843D01*
X261531D01*
Y218000D01*
D02*
G37*
G36*
X258260D02*
X255988D01*
Y214843D01*
X258260D01*
Y218000D01*
D02*
G37*
G36*
X219850Y217559D02*
X216299D01*
Y214500D01*
X219850D01*
Y217559D01*
D02*
G37*
G36*
X215299D02*
X211748D01*
Y214500D01*
X215299D01*
Y217559D01*
D02*
G37*
G36*
X188551D02*
X185000D01*
Y214500D01*
X188551D01*
Y217559D01*
D02*
G37*
G36*
X184000D02*
X180449D01*
Y214500D01*
X184000D01*
Y217559D01*
D02*
G37*
G36*
X277512Y214000D02*
X273109D01*
Y213614D01*
X273209Y213109D01*
X273495Y212680D01*
X273924Y212394D01*
X274429Y212294D01*
X277512D01*
Y214000D01*
D02*
G37*
G36*
X501311Y241474D02*
X499480D01*
X498705Y241372D01*
X497983Y241073D01*
X497363Y240598D01*
X489883Y233117D01*
X489407Y232497D01*
X489108Y231775D01*
X489006Y231000D01*
Y217740D01*
X487883Y216617D01*
X487407Y215997D01*
X487108Y215275D01*
X487006Y214500D01*
X487108Y213725D01*
X487407Y213003D01*
X487883Y212383D01*
X488503Y211907D01*
X489225Y211608D01*
X490000Y211506D01*
X490775Y211608D01*
X491497Y211907D01*
X492117Y212383D01*
X494117Y214383D01*
X494593Y215003D01*
X494892Y215725D01*
X494994Y216500D01*
Y229760D01*
X500721Y235486D01*
X501311D01*
X502086Y235588D01*
X502808Y235887D01*
X503428Y236363D01*
X503904Y236983D01*
X504203Y237705D01*
X504305Y238480D01*
X504203Y239255D01*
X503904Y239977D01*
X503428Y240598D01*
X502808Y241073D01*
X502086Y241372D01*
X501311Y241474D01*
D02*
G37*
G36*
X219850Y213500D02*
X216299D01*
Y210441D01*
X219850D01*
Y213500D01*
D02*
G37*
G36*
X215299D02*
X211748D01*
Y210441D01*
X215299D01*
Y213500D01*
D02*
G37*
G36*
X184000D02*
X180449D01*
Y210441D01*
X184000D01*
Y213500D01*
D02*
G37*
G36*
X258500Y212453D02*
X255441D01*
Y209000D01*
X258500D01*
Y212453D01*
D02*
G37*
G36*
X206438Y257200D02*
X205562D01*
X204754Y256865D01*
X204135Y256246D01*
X203800Y255438D01*
Y254562D01*
X204135Y253754D01*
X204754Y253135D01*
X205562Y252800D01*
X206037D01*
X248471Y210367D01*
Y207717D01*
X247971Y207566D01*
X247866Y207722D01*
X203239Y252349D01*
Y252977D01*
X202904Y253786D01*
X202286Y254404D01*
X201477Y254739D01*
X200602D01*
X199793Y254404D01*
X199174Y253786D01*
X198839Y252977D01*
Y252102D01*
X199174Y251293D01*
X199793Y250674D01*
X200602Y250339D01*
X201230D01*
X245440Y206129D01*
Y199639D01*
X245548Y199095D01*
X245856Y198634D01*
X256495Y187995D01*
X256956Y187687D01*
X257500Y187579D01*
X368411D01*
X370579Y185411D01*
Y167690D01*
X370135Y167246D01*
X369800Y166438D01*
Y165562D01*
X370135Y164754D01*
X370754Y164135D01*
X370819Y164108D01*
Y148450D01*
X370615Y148246D01*
X370280Y147438D01*
Y146562D01*
X370615Y145754D01*
X371234Y145135D01*
X372043Y144800D01*
X372918D01*
X373727Y145135D01*
X374345Y145754D01*
X374680Y146562D01*
Y147438D01*
X374345Y148246D01*
X373727Y148865D01*
X373661Y148892D01*
Y164550D01*
X373865Y164754D01*
X374200Y165562D01*
Y166438D01*
X373865Y167246D01*
X373421Y167690D01*
Y186000D01*
X373313Y186544D01*
X373005Y187005D01*
X370005Y190005D01*
X369544Y190313D01*
X369000Y190421D01*
X258089D01*
X248282Y200227D01*
Y202471D01*
X248782Y202623D01*
X248919Y202419D01*
X258919Y192419D01*
X259415Y192087D01*
X260000Y191971D01*
X351918D01*
X352254Y191635D01*
X353062Y191300D01*
X353938D01*
X354746Y191635D01*
X355365Y192254D01*
X355700Y193062D01*
Y193938D01*
X355365Y194746D01*
X354746Y195365D01*
X353938Y195700D01*
X353062D01*
X352254Y195365D01*
X351918Y195029D01*
X260633D01*
X251529Y204134D01*
Y211000D01*
X251413Y211585D01*
X251081Y212081D01*
X208200Y254963D01*
Y255438D01*
X207865Y256246D01*
X207246Y256865D01*
X206438Y257200D01*
D02*
G37*
G36*
X243657Y207012D02*
X240500D01*
Y204740D01*
X243657D01*
Y207012D01*
D02*
G37*
G36*
X239500D02*
X236343D01*
Y204740D01*
X239500D01*
Y207012D01*
D02*
G37*
G36*
X258500Y208000D02*
X255441D01*
Y204547D01*
X258500D01*
Y208000D01*
D02*
G37*
G36*
X501811Y205458D02*
Y203783D01*
X503485D01*
X503176Y204530D01*
X502557Y205149D01*
X501811Y205458D01*
D02*
G37*
G36*
X500811D02*
X500065Y205149D01*
X499446Y204530D01*
X499137Y203783D01*
X500811D01*
Y205458D01*
D02*
G37*
G36*
X497435Y206360D02*
X493000D01*
Y203500D01*
X497435D01*
Y206360D01*
D02*
G37*
G36*
X492000D02*
X487565D01*
Y203500D01*
X492000D01*
Y206360D01*
D02*
G37*
G36*
X457047Y207445D02*
X454283D01*
Y203500D01*
X457047D01*
Y207445D01*
D02*
G37*
G36*
X453283D02*
X450520D01*
Y203500D01*
X453283D01*
Y207445D01*
D02*
G37*
G36*
X243657Y203740D02*
X240500D01*
Y201468D01*
X243657D01*
Y203740D01*
D02*
G37*
G36*
X239500D02*
X236343D01*
Y201468D01*
X239500D01*
Y203740D01*
D02*
G37*
G36*
X503485Y202783D02*
X501811D01*
Y201109D01*
X502557Y201418D01*
X503176Y202037D01*
X503485Y202783D01*
D02*
G37*
G36*
X500811D02*
X499137D01*
X499446Y202037D01*
X500065Y201418D01*
X500811Y201109D01*
Y202783D01*
D02*
G37*
G36*
X497435Y202500D02*
X493000D01*
Y199640D01*
X497435D01*
Y202500D01*
D02*
G37*
G36*
X492000D02*
X487565D01*
Y199640D01*
X492000D01*
Y202500D01*
D02*
G37*
G36*
X457047Y202500D02*
X454283D01*
Y198555D01*
X457047D01*
Y202500D01*
D02*
G37*
G36*
X453283D02*
X450520D01*
Y198555D01*
X453283D01*
Y202500D01*
D02*
G37*
G36*
X457738Y195360D02*
X453303D01*
Y192500D01*
X457738D01*
Y195360D01*
D02*
G37*
G36*
X452303D02*
X447868D01*
Y192500D01*
X452303D01*
Y195360D01*
D02*
G37*
G36*
X494980Y196445D02*
X492217D01*
Y192500D01*
X494980D01*
Y196445D01*
D02*
G37*
G36*
X491217D02*
X488453D01*
Y192500D01*
X491217D01*
Y196445D01*
D02*
G37*
G36*
X457738Y191500D02*
X453303D01*
Y188640D01*
X457738D01*
Y191500D01*
D02*
G37*
G36*
X452303D02*
X447868D01*
Y188640D01*
X452303D01*
Y191500D01*
D02*
G37*
G36*
X494980Y191500D02*
X492217D01*
Y187555D01*
X494980D01*
Y191500D01*
D02*
G37*
G36*
X491217D02*
X488453D01*
Y187555D01*
X491217D01*
Y191500D01*
D02*
G37*
G36*
X363102Y179364D02*
X362227D01*
X361418Y179029D01*
X361082Y178694D01*
X345664D01*
X345079Y178577D01*
X344583Y178246D01*
X341037Y174700D01*
X340562D01*
X339754Y174365D01*
X339135Y173746D01*
X338800Y172938D01*
Y172062D01*
X339135Y171254D01*
X339754Y170635D01*
X340562Y170300D01*
X341438D01*
X342246Y170635D01*
X342865Y171254D01*
X343200Y172062D01*
Y172537D01*
X346298Y175635D01*
X361082D01*
X361418Y175299D01*
X362227Y174964D01*
X363102D01*
X363910Y175299D01*
X364529Y175918D01*
X364864Y176727D01*
Y177602D01*
X364529Y178410D01*
X363910Y179029D01*
X363102Y179364D01*
D02*
G37*
G36*
X410000Y170174D02*
Y168500D01*
X411674D01*
X411365Y169246D01*
X410746Y169865D01*
X410000Y170174D01*
D02*
G37*
G36*
X409000D02*
X408254Y169865D01*
X407635Y169246D01*
X407300Y168438D01*
Y167963D01*
X406366Y167029D01*
X396082D01*
X395746Y167365D01*
X395000Y167674D01*
Y165500D01*
Y163326D01*
X395746Y163635D01*
X396082Y163971D01*
X407000D01*
X407585Y164087D01*
X408081Y164419D01*
X409463Y165800D01*
X409938D01*
X410746Y166135D01*
X411365Y166754D01*
X411674Y167500D01*
X409500D01*
Y168000D01*
X409000D01*
Y170174D01*
D02*
G37*
G36*
X394000Y167674D02*
X393254Y167365D01*
X392635Y166746D01*
X392326Y166000D01*
X394000D01*
Y167674D01*
D02*
G37*
G36*
Y165000D02*
X392326D01*
X392635Y164254D01*
X393254Y163635D01*
X394000Y163326D01*
Y165000D01*
D02*
G37*
G36*
X333438Y156720D02*
X332562D01*
X331754Y156385D01*
X331135Y155766D01*
X330800Y154957D01*
Y154082D01*
X331135Y153273D01*
X331754Y152655D01*
X332562Y152320D01*
X333438D01*
X333833Y152484D01*
X333898Y152471D01*
X358418D01*
X358754Y152135D01*
X359562Y151800D01*
X360438D01*
X361246Y152135D01*
X361865Y152754D01*
X362200Y153562D01*
Y154438D01*
X361865Y155246D01*
X361246Y155865D01*
X360438Y156200D01*
X359562D01*
X358754Y155865D01*
X358418Y155529D01*
X334963D01*
X334865Y155766D01*
X334246Y156385D01*
X333438Y156720D01*
D02*
G37*
G36*
X516438Y161700D02*
X515562D01*
X514754Y161365D01*
X514135Y160746D01*
X513800Y159938D01*
Y159062D01*
X513977Y158635D01*
Y149865D01*
X513800Y149438D01*
Y148562D01*
X514135Y147754D01*
X514754Y147135D01*
X515562Y146800D01*
X516438D01*
X517246Y147135D01*
X517865Y147754D01*
X518200Y148562D01*
Y149438D01*
X518023Y149865D01*
Y158635D01*
X518200Y159062D01*
Y159938D01*
X517865Y160746D01*
X517246Y161365D01*
X516438Y161700D01*
D02*
G37*
G36*
X266500Y179994D02*
X265725Y179892D01*
X265003Y179593D01*
X264383Y179117D01*
X264311Y179023D01*
X215500D01*
X214726Y178869D01*
X214069Y178431D01*
X200569Y164931D01*
X200131Y164274D01*
X199977Y163500D01*
Y150338D01*
X198020Y148381D01*
X195953D01*
X195906Y148413D01*
X195055Y148582D01*
X193355D01*
X192905Y148705D01*
X192905Y149082D01*
Y154642D01*
X187756D01*
Y148705D01*
X190591D01*
X190743Y148205D01*
X190333Y147931D01*
X189851Y147209D01*
X189682Y146358D01*
X189851Y145507D01*
X190333Y144786D01*
X191054Y144304D01*
X191905Y144134D01*
X195055D01*
X195906Y144304D01*
X195953Y144335D01*
X198858D01*
X199633Y144489D01*
X200289Y144928D01*
X203431Y148069D01*
X203869Y148726D01*
X204023Y149500D01*
Y162662D01*
X216338Y174977D01*
X263506D01*
Y164000D01*
X263608Y163225D01*
X263907Y162503D01*
X264383Y161883D01*
X278883Y147383D01*
X279503Y146907D01*
X280225Y146608D01*
X281000Y146506D01*
X281775Y146608D01*
X282497Y146907D01*
X283117Y147383D01*
X283593Y148003D01*
X283892Y148725D01*
X283994Y149500D01*
X283892Y150275D01*
X283593Y150997D01*
X283117Y151617D01*
X269494Y165240D01*
Y177000D01*
X269392Y177775D01*
X269093Y178497D01*
X268617Y179117D01*
X267997Y179593D01*
X267275Y179892D01*
X266500Y179994D01*
D02*
G37*
G36*
X466950Y219750D02*
X461250D01*
Y216277D01*
X461208Y216175D01*
X461106Y215400D01*
Y207445D01*
X460953D01*
Y198555D01*
X461222D01*
Y195360D01*
X458890D01*
Y188640D01*
X460831D01*
Y184065D01*
X458760Y181994D01*
X426500D01*
X425725Y181892D01*
X425003Y181593D01*
X424383Y181117D01*
X419383Y176117D01*
X418907Y175497D01*
X418608Y174775D01*
X418506Y174000D01*
Y146000D01*
X418608Y145225D01*
X418907Y144503D01*
X419383Y143883D01*
X420003Y143407D01*
X420725Y143108D01*
X421500Y143006D01*
X422275Y143108D01*
X422997Y143407D01*
X423617Y143883D01*
X424093Y144503D01*
X424392Y145225D01*
X424494Y146000D01*
Y172760D01*
X427740Y176006D01*
X460000D01*
X460775Y176108D01*
X461497Y176407D01*
X462117Y176883D01*
X465942Y180708D01*
X466418Y181328D01*
X466542Y181627D01*
X466717Y182050D01*
X466819Y182825D01*
Y188640D01*
X468760D01*
Y195360D01*
X467211D01*
Y198555D01*
X467480D01*
Y207445D01*
X467094D01*
Y215400D01*
X466992Y216175D01*
X466950Y216277D01*
Y219750D01*
D02*
G37*
G36*
X552866Y156236D02*
X537681D01*
Y143000D01*
X552866D01*
Y156236D01*
D02*
G37*
G36*
X536681D02*
X521496D01*
Y143000D01*
X536681D01*
Y156236D01*
D02*
G37*
G36*
X500311Y171974D02*
X495980D01*
X495205Y171872D01*
X494483Y171573D01*
X493863Y171098D01*
X483883Y161117D01*
X483407Y160497D01*
X483108Y159775D01*
X483006Y159000D01*
Y145522D01*
X483108Y144747D01*
X483407Y144025D01*
X483883Y143405D01*
X484503Y142929D01*
X485225Y142630D01*
X486000Y142528D01*
X486775Y142630D01*
X487497Y142929D01*
X488117Y143405D01*
X488593Y144025D01*
X488892Y144747D01*
X488994Y145522D01*
Y157760D01*
X497221Y165986D01*
X500311D01*
X501086Y166088D01*
X501808Y166387D01*
X502428Y166863D01*
X502904Y167483D01*
X503203Y168205D01*
X503305Y168980D01*
X503203Y169755D01*
X502904Y170477D01*
X502428Y171098D01*
X501808Y171573D01*
X501086Y171872D01*
X500311Y171974D01*
D02*
G37*
G36*
X484750Y219750D02*
X479050D01*
Y216277D01*
X479008Y216175D01*
X478906Y215400D01*
Y206360D01*
X476543D01*
Y199640D01*
X478484D01*
Y196445D01*
X478020D01*
Y191821D01*
X478006Y191717D01*
Y174740D01*
X460760Y157494D01*
X430500D01*
X429725Y157392D01*
X429003Y157093D01*
X428383Y156617D01*
X427907Y155997D01*
X427608Y155275D01*
X427506Y154500D01*
Y143046D01*
X426954Y142494D01*
X417740D01*
X413117Y147117D01*
X412497Y147593D01*
X411775Y147892D01*
X411000Y147994D01*
X386500D01*
X385725Y147892D01*
X385003Y147593D01*
X384383Y147117D01*
X379450Y142184D01*
X378974Y141564D01*
X378675Y140842D01*
X378573Y140067D01*
Y135433D01*
X378675Y134658D01*
X378974Y133936D01*
X379450Y133316D01*
X380070Y132840D01*
X380792Y132541D01*
X381567Y132439D01*
X382342Y132541D01*
X383064Y132840D01*
X383684Y133316D01*
X384160Y133936D01*
X384459Y134658D01*
X384561Y135433D01*
Y138827D01*
X387740Y142006D01*
X409760D01*
X414383Y137383D01*
X415003Y136907D01*
X415725Y136608D01*
X416500Y136506D01*
X428194D01*
X428969Y136608D01*
X429691Y136907D01*
X430311Y137383D01*
X432617Y139689D01*
X433093Y140309D01*
X433217Y140608D01*
X433392Y141031D01*
X433494Y141806D01*
Y151506D01*
X462000D01*
X462775Y151608D01*
X463497Y151907D01*
X464117Y152383D01*
X483117Y171383D01*
X483593Y172003D01*
X483892Y172725D01*
X483994Y173500D01*
Y187555D01*
X484547D01*
Y196445D01*
X484472D01*
Y199640D01*
X486413D01*
Y206360D01*
X484894D01*
Y215400D01*
X484792Y216175D01*
X484750Y216277D01*
Y219750D01*
D02*
G37*
G36*
X511438Y160200D02*
X510562D01*
X509754Y159865D01*
X509135Y159246D01*
X508800Y158438D01*
Y157562D01*
X508977Y157135D01*
Y146717D01*
X508319Y146059D01*
X508060Y145672D01*
X507885Y145496D01*
X507550Y144688D01*
Y143812D01*
X507885Y143004D01*
X508504Y142385D01*
X509312Y142050D01*
X510188D01*
X510996Y142385D01*
X511615Y143004D01*
X511950Y143812D01*
Y143968D01*
X512431Y144448D01*
X512869Y145105D01*
X513023Y145879D01*
Y157135D01*
X513200Y157562D01*
Y158438D01*
X512865Y159246D01*
X512246Y159865D01*
X511438Y160200D01*
D02*
G37*
G36*
X186365Y146178D02*
X185635D01*
X184930Y145989D01*
X184298Y145624D01*
X183782Y145108D01*
X183417Y144476D01*
X183228Y143771D01*
Y143041D01*
X183417Y142336D01*
X183782Y141704D01*
X184298Y141188D01*
X184930Y140823D01*
X185635Y140634D01*
X186365D01*
X187070Y140823D01*
X187702Y141188D01*
X188218Y141704D01*
X188583Y142336D01*
X188772Y143041D01*
Y143771D01*
X188583Y144476D01*
X188218Y145108D01*
X187702Y145624D01*
X187070Y145989D01*
X186365Y146178D01*
D02*
G37*
G36*
X394938Y139700D02*
X394062D01*
X393254Y139365D01*
X392635Y138746D01*
X392604Y138671D01*
X389940D01*
X389746Y138865D01*
X388938Y139200D01*
X388062D01*
X387254Y138865D01*
X386635Y138246D01*
X386300Y137438D01*
Y136562D01*
X386635Y135754D01*
X387254Y135135D01*
X388062Y134800D01*
X388938D01*
X389746Y135135D01*
X390365Y135754D01*
X390396Y135829D01*
X393060D01*
X393254Y135635D01*
X394062Y135300D01*
X394938D01*
X395746Y135635D01*
X396365Y136254D01*
X396700Y137062D01*
Y137938D01*
X396365Y138746D01*
X395746Y139365D01*
X394938Y139700D01*
D02*
G37*
G36*
X500811Y135958D02*
Y134283D01*
X502485D01*
X502176Y135030D01*
X501557Y135649D01*
X500811Y135958D01*
D02*
G37*
G36*
X499811D02*
X499065Y135649D01*
X498446Y135030D01*
X498137Y134283D01*
X499811D01*
Y135958D01*
D02*
G37*
G36*
X502485Y133283D02*
X500811D01*
Y131609D01*
X501557Y131918D01*
X502176Y132537D01*
X502485Y133283D01*
D02*
G37*
G36*
X499811D02*
X498137D01*
X498446Y132537D01*
X499065Y131918D01*
X499811Y131609D01*
Y133283D01*
D02*
G37*
G36*
X186365Y134366D02*
X185635D01*
X184930Y134177D01*
X184298Y133812D01*
X183782Y133296D01*
X183417Y132664D01*
X183228Y131959D01*
Y131229D01*
X183417Y130524D01*
X183782Y129892D01*
X184298Y129376D01*
X184930Y129011D01*
X185635Y128822D01*
X186365D01*
X187070Y129011D01*
X187702Y129376D01*
X188218Y129892D01*
X188583Y130524D01*
X188772Y131229D01*
Y131959D01*
X188583Y132664D01*
X188218Y133296D01*
X187702Y133812D01*
X187070Y134177D01*
X186365Y134366D01*
D02*
G37*
G36*
X552866Y142000D02*
X537681D01*
Y128764D01*
X552866D01*
Y142000D01*
D02*
G37*
G36*
X536681D02*
X521496D01*
Y128764D01*
X536681D01*
Y142000D01*
D02*
G37*
G36*
X240504Y156236D02*
X209134D01*
Y143447D01*
X193480D01*
X192705Y143345D01*
X191983Y143046D01*
X191363Y142570D01*
X191362Y142569D01*
X191054Y142507D01*
X190333Y142025D01*
X189851Y141304D01*
X189682Y140453D01*
X189851Y139602D01*
X190333Y138880D01*
X191054Y138398D01*
X191362Y138337D01*
X191363Y138336D01*
X191983Y137860D01*
X192705Y137561D01*
X193480Y137459D01*
X209134D01*
Y128764D01*
X240504D01*
Y156236D01*
D02*
G37*
G36*
X410043Y132612D02*
Y128217D01*
X412339D01*
Y129882D01*
X412244Y130605D01*
X411964Y131280D01*
X411520Y131859D01*
X410941Y132303D01*
X410267Y132582D01*
X410043Y132612D01*
D02*
G37*
G36*
X375988D02*
Y128217D01*
X378284D01*
Y129882D01*
X378188Y130605D01*
X377909Y131280D01*
X377465Y131859D01*
X376886Y132303D01*
X376212Y132582D01*
X375988Y132612D01*
D02*
G37*
G36*
X409043D02*
X408820Y132582D01*
X408146Y132303D01*
X407566Y131859D01*
X407122Y131280D01*
X406843Y130605D01*
X406748Y129882D01*
Y128217D01*
X409043D01*
Y132612D01*
D02*
G37*
G36*
X374988D02*
X374765Y132582D01*
X374090Y132303D01*
X373511Y131859D01*
X373067Y131280D01*
X372788Y130605D01*
X372693Y129882D01*
Y128217D01*
X374988D01*
Y132612D01*
D02*
G37*
G36*
X201358Y131636D02*
X193480D01*
X192705Y131534D01*
X191983Y131235D01*
X191363Y130759D01*
X191362Y130757D01*
X191054Y130696D01*
X190333Y130214D01*
X189851Y129493D01*
X189682Y128642D01*
X189851Y127791D01*
X190333Y127069D01*
X190743Y126795D01*
X190591Y126295D01*
X187756D01*
Y120358D01*
X192905D01*
Y125344D01*
X193281Y125674D01*
X193480Y125648D01*
X201358D01*
X202133Y125750D01*
X202855Y126049D01*
X203475Y126525D01*
X203951Y127145D01*
X204250Y127867D01*
X204352Y128642D01*
X204250Y129417D01*
X203951Y130139D01*
X203475Y130759D01*
X202855Y131235D01*
X202133Y131534D01*
X201358Y131636D01*
D02*
G37*
G36*
X412339Y127216D02*
X410043D01*
Y122821D01*
X410267Y122851D01*
X410941Y123130D01*
X411520Y123574D01*
X411964Y124153D01*
X412244Y124828D01*
X412339Y125551D01*
Y127216D01*
D02*
G37*
G36*
X378284D02*
X375988D01*
Y122821D01*
X376212Y122851D01*
X376886Y123130D01*
X377465Y123574D01*
X377909Y124153D01*
X378188Y124828D01*
X378284Y125551D01*
Y127216D01*
D02*
G37*
G36*
X409043D02*
X406748D01*
Y125551D01*
X406843Y124828D01*
X407122Y124153D01*
X407566Y123574D01*
X408146Y123130D01*
X408820Y122851D01*
X409043Y122821D01*
Y127216D01*
D02*
G37*
G36*
X374988D02*
X372693D01*
Y125551D01*
X372788Y124828D01*
X373067Y124153D01*
X373511Y123574D01*
X374090Y123130D01*
X374765Y122851D01*
X374988Y122821D01*
Y127216D01*
D02*
G37*
G36*
X410043Y115604D02*
Y111799D01*
X412339D01*
Y112874D01*
X412244Y113598D01*
X411964Y114272D01*
X411520Y114851D01*
X410941Y115295D01*
X410267Y115574D01*
X410043Y115604D01*
D02*
G37*
G36*
X375988D02*
Y111799D01*
X378284D01*
Y112874D01*
X378188Y113598D01*
X377909Y114272D01*
X377465Y114851D01*
X376886Y115295D01*
X376212Y115574D01*
X375988Y115604D01*
D02*
G37*
G36*
X409043D02*
X408820Y115574D01*
X408146Y115295D01*
X407566Y114851D01*
X407122Y114272D01*
X406843Y113598D01*
X406748Y112874D01*
Y111799D01*
X409043D01*
Y115604D01*
D02*
G37*
G36*
X374988D02*
X374765Y115574D01*
X374090Y115295D01*
X373511Y114851D01*
X373067Y114272D01*
X372788Y113598D01*
X372693Y112874D01*
Y111799D01*
X374988D01*
Y115604D01*
D02*
G37*
G36*
X412339Y110799D02*
X410043D01*
Y106995D01*
X410267Y107024D01*
X410941Y107303D01*
X411520Y107748D01*
X411964Y108327D01*
X412244Y109001D01*
X412339Y109724D01*
Y110799D01*
D02*
G37*
G36*
X378284D02*
X375988D01*
Y106995D01*
X376212Y107024D01*
X376886Y107303D01*
X377465Y107748D01*
X377909Y108327D01*
X378188Y109001D01*
X378284Y109724D01*
Y110799D01*
D02*
G37*
G36*
X409043D02*
X406748D01*
Y109724D01*
X406843Y109001D01*
X407122Y108327D01*
X407566Y107748D01*
X408146Y107303D01*
X408820Y107024D01*
X409043Y106995D01*
Y110799D01*
D02*
G37*
G36*
X374988D02*
X372693D01*
Y109724D01*
X372788Y109001D01*
X373067Y108327D01*
X373511Y107748D01*
X374090Y107303D01*
X374765Y107024D01*
X374988Y106995D01*
Y110799D01*
D02*
G37*
G36*
X240727Y116709D02*
X239225D01*
X237774Y116320D01*
X236474Y115569D01*
X235412Y114507D01*
X234660Y113206D01*
X234272Y111755D01*
Y110253D01*
X234660Y108802D01*
X235412Y107501D01*
X236474Y106439D01*
X237774Y105688D01*
X239225Y105299D01*
X240727D01*
X242178Y105688D01*
X243479Y106439D01*
X244541Y107501D01*
X245292Y108802D01*
X245681Y110253D01*
Y111755D01*
X245292Y113206D01*
X244541Y114507D01*
X243479Y115569D01*
X242178Y116320D01*
X240727Y116709D01*
D02*
G37*
%LPD*%
G36*
X359301Y294536D02*
X358982Y294148D01*
X358585Y294413D01*
X358000Y294529D01*
X213591D01*
X213491Y295029D01*
X213746Y295135D01*
X214082Y295471D01*
X358366D01*
X359301Y294536D01*
D02*
G37*
D12*
X372240Y147240D02*
X372480Y147000D01*
X372240Y147240D02*
Y165760D01*
X372000Y166000D02*
X372240Y165760D01*
X369000Y189000D02*
X372000Y186000D01*
Y166000D02*
Y186000D01*
X257500Y189000D02*
X369000D01*
X201039Y252539D02*
X246861Y206717D01*
Y199639D02*
Y206717D01*
Y199639D02*
X257500Y189000D01*
X388500Y137000D02*
X388750Y137250D01*
X394250D01*
X394500Y137500D01*
D14*
X232000Y341500D02*
X232240Y341260D01*
X190500Y240500D02*
X191000Y241000D01*
X407000Y165500D02*
X409500Y168000D01*
X394500Y165500D02*
X407000D01*
X509750Y144250D02*
Y144629D01*
X329500Y302000D02*
X502500D01*
X325000Y244000D02*
X325850Y243150D01*
Y220858D02*
Y243150D01*
X242000Y244000D02*
X325000D01*
X241079Y243079D02*
X242000Y244000D01*
X241079Y240051D02*
Y243079D01*
X236079Y240051D02*
Y243579D01*
X239000Y246500D01*
X327000D01*
X337000Y236500D01*
X362500D01*
X367850Y231150D01*
Y220858D02*
Y231150D01*
X409850Y220858D02*
X410000Y221008D01*
Y233000D01*
X403500Y239500D02*
X410000Y233000D01*
X340000Y239500D02*
X403500D01*
X329000Y250500D02*
X340000Y239500D01*
X237500Y250500D02*
X329000D01*
X231079Y244079D02*
X237500Y250500D01*
X231079Y240051D02*
Y244079D01*
X333000Y154520D02*
X333379D01*
X333898Y154000D01*
X360000D01*
X341000Y172500D02*
X345664Y177164D01*
X362664D01*
X260000Y193500D02*
X353500D01*
X250000Y203500D02*
X260000Y193500D01*
X250000Y203500D02*
Y211000D01*
X206000Y255000D02*
X250000Y211000D01*
X185814Y204314D02*
Y204806D01*
X222772Y140453D02*
X224819Y142500D01*
X212500Y297000D02*
X359000D01*
X392000Y264000D01*
X200000Y293000D02*
X358000D01*
X389000Y262000D01*
X196500Y296500D02*
X200000Y293000D01*
X266594Y279500D02*
X267094Y280000D01*
X267500D01*
X243500Y279500D02*
X266594D01*
X243000Y274500D02*
X279500D01*
X292240Y230500D02*
X292666Y230074D01*
X240000Y196500D02*
X241012Y195488D01*
X184500Y196283D02*
X184992D01*
X249500Y271000D02*
X267500D01*
X533378Y344279D02*
X533507Y344150D01*
X450000Y364000D02*
X450507Y363493D01*
X354500Y344000D02*
X354700Y343800D01*
X278378Y344279D02*
X278507Y344150D01*
X273500Y209500D02*
X278012D01*
X272500Y208500D02*
X273500Y209500D01*
X266480Y208500D02*
X272500D01*
X191254Y309000D02*
Y313754D01*
X192300Y314800D01*
X258700D01*
X220299Y349000D02*
X232000D01*
X219150Y347850D02*
X220299Y349000D01*
X219150Y337142D02*
Y347850D01*
X232000Y349000D02*
Y353500D01*
X234000Y355500D01*
X248500D01*
X251000Y353000D01*
Y332000D02*
Y353000D01*
X241500Y328500D02*
X267500D01*
X274000Y322000D01*
X246000Y322500D02*
X266500D01*
X272000Y317000D01*
X264500Y318500D02*
X271000Y312000D01*
X226500Y318500D02*
X264500D01*
X258700Y314800D02*
X266500Y307000D01*
X274000Y322000D02*
X502500D01*
X272000Y317000D02*
X502500D01*
X271000Y312000D02*
X502500D01*
X266500Y307000D02*
X502500D01*
X328000Y303500D02*
X329500Y302000D01*
X222000Y303500D02*
X328000D01*
X221000Y304500D02*
X222000Y303500D01*
X221000Y304500D02*
Y309000D01*
X294500Y300000D02*
X318500D01*
X187850Y337142D02*
X219150D01*
X227264Y196283D02*
X227500Y196520D01*
X481000Y191717D02*
X481284Y192000D01*
X481478Y192194D01*
Y203000D02*
X481900Y203422D01*
D16*
X242500Y341260D02*
D03*
Y348740D02*
D03*
X240000Y196760D02*
D03*
Y204240D02*
D03*
D17*
X227500Y204000D02*
D03*
Y196520D02*
D03*
X232000Y341500D02*
D03*
Y348980D02*
D03*
D22*
X343378Y363213D02*
D03*
X365622D02*
D03*
X267256Y363500D02*
D03*
X289500D02*
D03*
X438878Y363213D02*
D03*
X461122D02*
D03*
X522256Y363000D02*
D03*
X544500D02*
D03*
D23*
X266480Y208500D02*
D03*
X259000D02*
D03*
X309000Y207500D02*
D03*
X316480D02*
D03*
X316500Y216500D02*
D03*
X309020D02*
D03*
D25*
X215799Y214000D02*
D03*
X184500D02*
D03*
X215799Y196283D02*
D03*
X184500D02*
D03*
X219150Y354858D02*
D03*
X187850D02*
D03*
X219150Y337142D02*
D03*
X187850D02*
D03*
D36*
X375488Y127717D02*
D03*
X409543D02*
D03*
D37*
X375488Y111299D02*
D03*
X409543D02*
D03*
D38*
X186000Y143406D02*
D03*
Y131594D02*
D03*
D39*
X239976Y111004D02*
D03*
D40*
X464500Y203000D02*
D03*
X267500Y280000D02*
D03*
X279500Y274500D02*
D03*
X294500Y300000D02*
D03*
X479500Y285912D02*
D03*
X318500Y300000D02*
D03*
X446500Y286000D02*
D03*
X501311Y238480D02*
D03*
X490000Y214500D02*
D03*
X500311Y168980D02*
D03*
X486000Y145522D02*
D03*
X457500Y179000D02*
D03*
X273500Y285000D02*
D03*
X421500Y146000D02*
D03*
X191000Y240000D02*
D03*
X243500Y279500D02*
D03*
X243000Y274500D02*
D03*
X430500Y154500D02*
D03*
D41*
X518000Y218500D02*
D03*
X502000D02*
D03*
X409500Y168000D02*
D03*
X394500Y165500D02*
D03*
X521700Y223938D02*
D03*
X516000Y149000D02*
D03*
X511000Y158000D02*
D03*
X509750Y144250D02*
D03*
X516000Y159500D02*
D03*
X501500Y223500D02*
D03*
X537181Y142500D02*
D03*
X241079Y240051D02*
D03*
X236079D02*
D03*
X231079D02*
D03*
X409850Y220858D02*
D03*
X367850D02*
D03*
X325850D02*
D03*
X184500Y214000D02*
D03*
X186079Y240051D02*
D03*
X216472Y268595D02*
D03*
X500311Y133783D02*
D03*
X501311Y203284D02*
D03*
X502311Y291783D02*
D03*
X258500Y218500D02*
D03*
X278000Y214500D02*
D03*
X360000Y154000D02*
D03*
X333000Y154520D02*
D03*
X362664Y177164D02*
D03*
X341000Y172500D02*
D03*
X372000Y166000D02*
D03*
X353500Y193500D02*
D03*
X422500Y247000D02*
D03*
X411000D02*
D03*
X388500D02*
D03*
X378000Y247500D02*
D03*
X368500Y247000D02*
D03*
X363500Y246500D02*
D03*
X343500D02*
D03*
X201039Y252539D02*
D03*
X206000Y255000D02*
D03*
X196500Y296500D02*
D03*
X212500Y297000D02*
D03*
X392000Y264000D02*
D03*
X389000Y262000D02*
D03*
X381567Y135433D02*
D03*
X394500Y137500D02*
D03*
X388500Y137000D02*
D03*
X281000Y149500D02*
D03*
X266500Y177000D02*
D03*
X317500Y216500D02*
D03*
X297166Y219500D02*
D03*
X316500Y208000D02*
D03*
X201358Y128642D02*
D03*
X240000Y196500D02*
D03*
X337500Y180500D02*
D03*
X267500Y271000D02*
D03*
X249500D02*
D03*
X372480Y147000D02*
D03*
X266240Y218500D02*
D03*
X297500Y204500D02*
D03*
X278012Y219500D02*
D03*
X191254Y309000D02*
D03*
X227500Y204000D02*
D03*
X184500Y196283D02*
D03*
X196000Y240000D02*
D03*
X251000Y332000D02*
D03*
Y309000D02*
D03*
X241500Y328500D02*
D03*
X246000Y322500D02*
D03*
X226500Y318500D02*
D03*
X221000Y309000D02*
D03*
X502500Y322000D02*
D03*
Y317000D02*
D03*
Y312000D02*
D03*
Y307000D02*
D03*
Y302000D02*
D03*
D42*
X464100Y203884D02*
Y215400D01*
X464217Y192392D02*
Y203000D01*
X463825Y192000D02*
X464217Y192392D01*
X227000Y328500D02*
X232000Y333500D01*
Y341500D01*
X196500Y328500D02*
X227000D01*
X492000Y216500D02*
Y231000D01*
X499480Y238480D01*
X490000Y214500D02*
X492000Y216500D01*
X499480Y238480D02*
X501311D01*
X284040Y183500D02*
X287040Y180500D01*
X240000Y196500D02*
X253000Y183500D01*
X284040D01*
X287040Y180500D02*
X337500D01*
X184500Y196283D02*
X215799D01*
X193480Y140453D02*
X222772D01*
X478500Y286000D02*
X479070Y286569D01*
X381567Y140067D02*
X386500Y145000D01*
X411000D01*
X381567Y135433D02*
Y140067D01*
X428194Y139500D02*
X430500Y141806D01*
X411000Y145000D02*
X416500Y139500D01*
X428194D01*
X430500Y141806D02*
Y154500D01*
X266500Y164000D02*
X281000Y149500D01*
X266500Y164000D02*
Y177000D01*
X292666Y230074D02*
X294926D01*
X297166Y227834D01*
Y219500D02*
Y227834D01*
X193480Y128642D02*
X201358D01*
X196000Y214500D02*
Y240000D01*
X185814Y204314D02*
X196000Y214500D01*
X184500Y203000D02*
X185814Y204314D01*
X184500Y196283D02*
Y203000D01*
X533378Y344279D02*
Y363787D01*
X450507Y344650D02*
Y363493D01*
X354500Y344000D02*
Y364000D01*
X278378Y344279D02*
Y364287D01*
X187086Y319086D02*
X196500Y328500D01*
X187086Y285000D02*
Y319086D01*
X446500Y286000D02*
X478500D01*
X495980Y168980D02*
X500311D01*
X486000Y159000D02*
X495980Y168980D01*
X486000Y145522D02*
Y159000D01*
X463825Y182825D02*
Y192000D01*
X460000Y179000D02*
X463825Y182825D01*
X457500Y179000D02*
X460000D01*
X187086Y285000D02*
X273500D01*
X187086Y263914D02*
Y285000D01*
X426500Y179000D02*
X457500D01*
X421500Y146000D02*
Y174000D01*
X426500Y179000D01*
X191000Y241000D02*
Y260000D01*
X187086Y263914D02*
X191000Y260000D01*
X430500Y154500D02*
X462000D01*
X481000Y173500D02*
Y191717D01*
X462000Y154500D02*
X481000Y173500D01*
X227500Y196520D02*
X239760D01*
X215799Y196283D02*
X227264D01*
X481478Y192194D02*
Y203000D01*
X481900Y203422D02*
Y215400D01*
D43*
X232240Y341260D02*
X242500D01*
X502000Y218500D02*
X518000D01*
X521583Y223938D02*
X521700D01*
X521146Y223500D02*
X521583Y223938D01*
X501500Y223500D02*
X521146D01*
X516000Y149000D02*
Y159500D01*
X509750Y144629D02*
X511000Y145879D01*
Y158000D01*
X215500Y177000D02*
X266500D01*
X202000Y163500D02*
X215500Y177000D01*
X202000Y149500D02*
Y163500D01*
X198858Y146358D02*
X202000Y149500D01*
X193480Y146358D02*
X198858D01*
X304500Y216500D02*
X309020D01*
X302500Y214500D02*
X304500Y216500D01*
X297500Y214500D02*
X302500D01*
X304500Y207500D02*
X309000D01*
X302500Y209500D02*
X304500Y207500D01*
X297500Y209500D02*
X302500D01*
D44*
X354500Y364000D02*
D03*
X278378Y364287D02*
D03*
X450000Y364000D02*
D03*
X533378Y363787D02*
D03*
D45*
X464217Y203000D02*
D03*
X453784D02*
D03*
X481284Y192000D02*
D03*
X491716D02*
D03*
D46*
X463825D02*
D03*
X452803D02*
D03*
X481478Y203000D02*
D03*
X492500D02*
D03*
D47*
X190331Y151673D02*
D03*
X181669D02*
D03*
Y123327D02*
D03*
X190331D02*
D03*
D48*
X193480Y128642D02*
D03*
Y140453D02*
D03*
Y146358D02*
D03*
D49*
X287756Y212000D02*
D03*
D50*
X297500Y204500D02*
D03*
Y209500D02*
D03*
Y214500D02*
D03*
Y219500D02*
D03*
X278012D02*
D03*
Y214500D02*
D03*
Y209500D02*
D03*
Y204500D02*
D03*
D51*
X464100Y215400D02*
D03*
X481900D02*
D03*
D52*
X473000Y240000D02*
D03*
D53*
X527693Y337850D02*
D03*
X539307D02*
D03*
X444693Y338350D02*
D03*
X456307D02*
D03*
X348886Y337500D02*
D03*
X360500D02*
D03*
X272693Y337850D02*
D03*
X284307D02*
D03*
D54*
X533507Y344150D02*
D03*
X450507Y344650D02*
D03*
X354700Y343800D02*
D03*
X278507Y344150D02*
D03*
D55*
X224819Y142500D02*
D03*
X537181D02*
D03*
D56*
X292240Y230500D02*
D03*
X284760D02*
D03*
X266240Y218500D02*
D03*
X258760D02*
D03*
M02*
