M48
;Layer_Color=9474304
;FILE_FORMAT=2:5
INCH,LZ
;TYPE=PLATED
T01F00S00C0.01200
T02F00S00C0.01394
;TYPE=NON_PLATED
T04F00S00C0.03543
T05F00S00C0.09409
%
T01
X0201358Y0128642
X0281Y01495
X0333Y015452
X036Y0154
X037248Y0147
X0381567Y0135433
X03885Y0137
X03945Y01375
X0500311Y0133783
X050975Y014425
X0516Y0149
X0537181Y01425
X0516Y01595
X0511Y0158
X0501311Y0203284
X0502Y02185
X05015Y02235
X05217Y0223938
X0518Y02185
X0502311Y0291783
X05025Y0302
Y0307
Y0312
X04225Y0247
X0411
X03885
X0378Y02475
X03685Y0247
X03635Y02465
X03435
X032585Y0220858
X03175Y02165
X03165Y0208
X03375Y01805
X0341Y01725
X0362664Y0177164
X0372Y0166
X03945Y01655
X04095Y0168
X040985Y0220858
X036785
X03535Y01935
X0389Y0262
X0392Y0264
X02675Y0271
X02495
X0216472Y0268595
X0206Y0255
X0201039Y0252539
X0196Y024
X0186079Y0240051
X01845Y0214
Y0196283
X02275Y0204
X024Y01965
X02585Y02185
X026624
X0278012Y02195
X0278Y02145
X0297166Y02195
X02975Y02045
X02665Y0177
X0241079Y0240051
X0236079
X0231079
X02125Y0297
X01965Y02965
X0191254Y0309
X0221
X0251
X0246Y03225
X02415Y03285
X0251Y0332
X02265Y03185
X05025Y0317
Y0322
T02
X04215Y0146
X04305Y01545
X0486Y0145522
X0500311Y016898
X049Y02145
X0501311Y023848
X04795Y0285912
X04465Y0286
X04645Y0203
X04575Y0179
X03185Y03
X02945
X02735Y0285
X02675Y028
X02795Y02745
X0243
X02435Y02795
X0191Y024
T04
X0186Y0131594
Y0143406
T05
X0239976Y0111004
M30
